<svg viewBox="0 0 128 128" xmlns="http://www.w3.org/2000/svg">
  <defs><filter id="fxBlur" x="-60%" y="-60%" width="220%" height="220%"><feGaussianBlur stdDeviation="1.6"></feGaussianBlur></filter>
    <radialGradient id="body" cx="38%" cy="32%" r="72%">
      <stop offset="0%" stop-color="#dfbe7f"></stop>
      <stop offset="55%" stop-color="#c9922a"></stop>
      <stop offset="100%" stop-color="#755518"></stop>
    </radialGradient>
    <radialGradient id="helmet" cx="34%" cy="26%" r="78%">
      <stop offset="0%" stop-color="#8ae7e7"></stop>
      <stop offset="52%" stop-color="#2ad4d4"></stop>
      <stop offset="100%" stop-color="#197f7f"></stop>
    </radialGradient>
    <radialGradient id="arm" cx="32%" cy="28%" r="85%">
      <stop offset="0%" stop-color="#dcbd75"></stop>
      <stop offset="100%" stop-color="#83641b"></stop>
    </radialGradient>
    <radialGradient id="pack" cx="38%" cy="30%" r="75%">
      <stop offset="0%" stop-color="#241010"></stop>
      <stop offset="100%" stop-color="#0a0303"></stop>
    </radialGradient>
    <radialGradient id="ao" cx="50%" cy="55%" r="52%">
      <stop offset="55%" stop-color="#000" stop-opacity="0"></stop>
      <stop offset="100%" stop-color="#000" stop-opacity="0.38"></stop>
    </radialGradient>
  </defs>

  <ellipse cx="64" cy="102" rx="34" ry="10" fill="#000" opacity="0.3" filter="url(#fxBlur)"></ellipse>
  <ellipse cx="64" cy="78" rx="22" ry="18" fill="url(#pack)"></ellipse>
  <path d="M48 68 Q64 78 80 68" stroke="#000" stroke-width="2" opacity="0.2" fill="none"></path>

  <circle cx="64" cy="64" r="34" fill="url(#body)"></circle>
  <circle cx="64" cy="64" r="34" fill="#3a0a0a" opacity="0.1"></circle>
  <circle cx="64" cy="64" r="34" fill="url(#ao)"></circle>
  <circle cx="64" cy="64" r="6" fill="#2ad4d4"></circle>
  <ellipse cx="61" cy="61" rx="2" ry="1.3" fill="#fff" opacity="0.5"></ellipse>

  <circle cx="64" cy="46" r="20" fill="url(#helmet)"></circle>
  <ellipse cx="57" cy="35" rx="7" ry="4" fill="#fff" opacity="0.4"></ellipse>
  <ellipse cx="64" cy="48" rx="9" ry="4" fill="#100a08" opacity="0.65"></ellipse>
  <ellipse cx="61" cy="47" rx="2" ry="1" fill="#fff" opacity="0.45"></ellipse>

  
      <path d="M32 50 L26 40 L34 44 Z" fill="#161616"></path>
      <path d="M96 50 L102 40 L94 44 Z" fill="#161616"></path>
      <rect x="30" y="38" width="2" height="10" fill="#ff2a3c" opacity="0.85"></rect>
      <rect x="96" y="38" width="2" height="10" fill="#ff2a3c" opacity="0.85"></rect>
      <path d="M45 65 Q64 84 83 65 L81 91 Q64 101 47 91 Z" fill="#161616" opacity="0.95"></path>
      <path d="M45 65 Q64 84 83 65" stroke="#ff2a3c" stroke-width="1.4" fill="none" opacity="0.7"></path>
      <path d="M50 70 L58 89 M78 70 L70 89" stroke="#ff2a3c" stroke-width="1.4" opacity="0.75"></path>
      <path d="M56 54 Q64 58 72 54" stroke="#161616" stroke-width="4.5" fill="none" opacity="0.95"></path>
      <rect x="52" y="44" width="24" height="3.2" rx="1.6" fill="#ff2a3c" opacity="0.9"></rect>
      <circle cx="46" cy="45.5" r="1.6" fill="#ff2a3c"></circle>
      <circle cx="82" cy="45.5" r="1.6" fill="#ff2a3c"></circle>
      <path d="M40 52 L48 58 L40 64 Z" fill="#161616"></path>
      <path d="M88 52 L80 58 L88 64 Z" fill="#161616"></path>
      <rect x="54" y="84" width="20" height="7" rx="2" fill="#0d0d0d"></rect>
      <rect x="54" y="84" width="20" height="7" rx="2" fill="none" stroke="#ff2a3c" stroke-width="1" opacity="0.8"></rect>
      <circle cx="64" cy="87.5" r="2.2" fill="#ffe98a"></circle>
      <ellipse cx="38" cy="70" rx="6.5" ry="5.4" fill="#141414" opacity="0.95"></ellipse>
      <ellipse cx="90" cy="70" rx="6.5" ry="5.4" fill="#141414" opacity="0.95"></ellipse>
      <path d="M36 68 L40 72 M92 68 L88 72" stroke="#ff2a3c" stroke-width="1.2" opacity="0.7"></path>

  <circle cx="38" cy="66" r="9" fill="url(#arm)"></circle>
  <circle cx="90" cy="66" r="9" fill="url(#arm)"></circle>
  <ellipse cx="35" cy="63" rx="2" ry="1.2" fill="#fff" opacity="0.4"></ellipse>
  <ellipse cx="87" cy="63" rx="2" ry="1.2" fill="#fff" opacity="0.4"></ellipse>

  <path d="M64 84 L54 92 L64 89 L74 92 Z" fill="#ffe98a"></path>
  <circle cx="64" cy="64" r="34" fill="none" stroke="#ff4d5e" stroke-width="5.5" opacity="0.2" filter="url(#fxBlur)"></circle>
  <text x="64" y="120" font-size="10" text-anchor="middle" fill="#ff4d5e" font-family="sans-serif" font-weight="600">AZZURE</text>
</svg>