<svg viewBox="0 0 128 128" xmlns="http://www.w3.org/2000/svg">
  <defs><filter id="fxBlur" x="-60%" y="-60%" width="220%" height="220%"><feGaussianBlur stdDeviation="1.6"></feGaussianBlur></filter>
    <radialGradient id="body" cx="38%" cy="32%" r="72%">
      <stop offset="0%" stop-color="#dfbe7f"></stop>
      <stop offset="55%" stop-color="#c9922a"></stop>
      <stop offset="100%" stop-color="#755518"></stop>
    </radialGradient>
    <radialGradient id="helmet" cx="34%" cy="26%" r="78%">
      <stop offset="0%" stop-color="#8ae7e7"></stop>
      <stop offset="52%" stop-color="#2ad4d4"></stop>
      <stop offset="100%" stop-color="#197f7f"></stop>
    </radialGradient>
    <radialGradient id="arm" cx="32%" cy="28%" r="85%">
      <stop offset="0%" stop-color="#dcbd75"></stop>
      <stop offset="100%" stop-color="#83641b"></stop>
    </radialGradient>
    <radialGradient id="pack" cx="38%" cy="30%" r="75%">
      <stop offset="0%" stop-color="#a3894f"></stop>
      <stop offset="100%" stop-color="#5c4726"></stop>
    </radialGradient>
    <radialGradient id="ao" cx="50%" cy="55%" r="52%">
      <stop offset="55%" stop-color="#000" stop-opacity="0"></stop>
      <stop offset="100%" stop-color="#000" stop-opacity="0.38"></stop>
    </radialGradient>
  </defs>

  <ellipse cx="64" cy="102" rx="34" ry="10" fill="#000" opacity="0.3" filter="url(#fxBlur)"></ellipse>
  <ellipse cx="64" cy="78" rx="22" ry="18" fill="url(#pack)"></ellipse>
  <path d="M48 68 Q64 78 80 68" stroke="#000" stroke-width="2" opacity="0.2" fill="none"></path>

  <circle cx="64" cy="64" r="34" fill="url(#body)"></circle>
  <circle cx="64" cy="64" r="34" fill="#d9b876" opacity="0.1"></circle>
  <circle cx="64" cy="64" r="34" fill="url(#ao)"></circle>
  <circle cx="64" cy="64" r="6" fill="#2ad4d4"></circle>
  <ellipse cx="61" cy="61" rx="2" ry="1.3" fill="#fff" opacity="0.5"></ellipse>

  <circle cx="64" cy="46" r="20" fill="url(#helmet)"></circle>
  <ellipse cx="57" cy="35" rx="7" ry="4" fill="#fff" opacity="0.4"></ellipse>
  <ellipse cx="64" cy="48" rx="9" ry="4" fill="#100a08" opacity="0.65"></ellipse>
  <ellipse cx="61" cy="47" rx="2" ry="1" fill="#fff" opacity="0.45"></ellipse>

  
      <path d="M30 44 Q22 56 28 70 L34 62 Q30 52 36 44 Z" fill="#cbb27e" opacity="0.9"></path>
      <path d="M98 44 Q106 56 100 70 L94 62 Q98 52 92 44 Z" fill="#cbb27e" opacity="0.9"></path>
      <path d="M45 65 Q64 82 83 65 L81 87 Q64 96 47 87 Z" fill="#c9b27e" opacity="0.9"></path>
      <path d="M45 65 Q64 82 83 65" stroke="#f0d48a" stroke-width="1.6" fill="none" opacity="0.65"></path>
      <path d="M47 69 L57 75 M81 69 L71 75" stroke="#5c4726" stroke-width="1.6" opacity="0.5"></path>
      <ellipse cx="46" cy="58" rx="6" ry="5" fill="#b89a5e"></ellipse>
      <ellipse cx="82" cy="58" rx="6" ry="5" fill="#b89a5e"></ellipse>
      <circle cx="46" cy="58" r="6" fill="none" stroke="#f0d48a" stroke-width="1" opacity="0.6"></circle>
      <circle cx="82" cy="58" r="6" fill="none" stroke="#f0d48a" stroke-width="1" opacity="0.6"></circle>
      <rect x="55" y="43" width="18" height="6.5" rx="3" fill="#c98f2a" opacity="0.85"></rect>
      <rect x="55" y="43" width="18" height="6.5" rx="3" fill="none" stroke="#4a3410" stroke-width="1" opacity="0.5"></rect>
      <rect x="54" y="82" width="20" height="7" rx="2.5" fill="#8a6a3a"></rect>
      <circle cx="64" cy="85.5" r="2.2" fill="#ffe98a"></circle>
      <ellipse cx="38" cy="70" rx="6" ry="5" fill="#b89a5e" opacity="0.9"></ellipse>
      <ellipse cx="90" cy="70" rx="6" ry="5" fill="#b89a5e" opacity="0.9"></ellipse>

  <circle cx="38" cy="66" r="9" fill="url(#arm)"></circle>
  <circle cx="90" cy="66" r="9" fill="url(#arm)"></circle>
  <ellipse cx="35" cy="63" rx="2" ry="1.2" fill="#fff" opacity="0.4"></ellipse>
  <ellipse cx="87" cy="63" rx="2" ry="1.2" fill="#fff" opacity="0.4"></ellipse>

  <path d="M64 84 L54 92 L64 89 L74 92 Z" fill="#ffe98a"></path>
  <circle cx="64" cy="64" r="34" fill="none" stroke="#f5e2b8" stroke-width="5.5" opacity="0.2" filter="url(#fxBlur)"></circle>
  <text x="64" y="120" font-size="10" text-anchor="middle" fill="#f5e2b8" font-family="sans-serif" font-weight="600">AZZURE</text>
</svg>