<svg viewBox="0 0 128 128" xmlns="http://www.w3.org/2000/svg">
  <defs>
    <radialGradient id="body" cx="38%" cy="32%" r="72%">
      <stop offset="0%" stop-color="#b9a685"></stop>
      <stop offset="55%" stop-color="#8a6a34"></stop>
      <stop offset="100%" stop-color="#503d1e"></stop>
    </radialGradient>
    <radialGradient id="helmet" cx="34%" cy="26%" r="78%">
      <stop offset="0%" stop-color="#cdba95"></stop>
      <stop offset="52%" stop-color="#a4823f"></stop>
      <stop offset="100%" stop-color="#624e26"></stop>
    </radialGradient>
    <radialGradient id="arm" cx="32%" cy="28%" r="85%">
      <stop offset="0%" stop-color="#a59472"></stop>
      <stop offset="100%" stop-color="#4c3b19"></stop>
    </radialGradient>
    <radialGradient id="pack" cx="38%" cy="30%" r="75%">
      <stop offset="0%" stop-color="#776b56"></stop>
      <stop offset="100%" stop-color="#342915"></stop>
    </radialGradient>
    <linearGradient id="gun" x1="0%" y1="0%" x2="100%" y2="0%">
      <stop offset="0%" stop-color="#5a5a5a"></stop>
      <stop offset="45%" stop-color="#232323"></stop>
      <stop offset="100%" stop-color="#050505"></stop>
    </linearGradient>
    <radialGradient id="ao" cx="50%" cy="55%" r="52%">
      <stop offset="55%" stop-color="#000" stop-opacity="0"></stop>
      <stop offset="100%" stop-color="#000" stop-opacity="0.38"></stop>
    </radialGradient>
  </defs>

  <ellipse cx="64" cy="102" rx="34" ry="10" fill="#000" opacity="0.3"></ellipse>
  <ellipse cx="64" cy="78" rx="22" ry="18" fill="url(#pack)"></ellipse>
  <path d="M48 68 Q64 78 80 68" stroke="#000" stroke-width="2" opacity="0.2" fill="none"></path>

  <circle cx="64" cy="64" r="34" fill="url(#body)" stroke="#2a2008" stroke-width="2.5"></circle>
  <circle cx="64" cy="64" r="34" fill="url(#ao)"></circle>
  <path d="M40 50 Q64 60 88 50" stroke="#2a2008" stroke-width="3" fill="none" opacity="0.55"></path>
  <circle cx="64" cy="64" r="6" fill="#c9a24d" stroke="#5a4318" stroke-width="1.5"></circle>
  <ellipse cx="61" cy="61" rx="2" ry="1.3" fill="#fff" opacity="0.5"></ellipse>

  <circle cx="64" cy="46" r="20" fill="url(#helmet)" stroke="#2a2008" stroke-width="2.5"></circle>
  <path d="M46 42 A18 18 0 0 1 82 42" fill="#2a2008" opacity="0.3"></path>
  <ellipse cx="57" cy="35" rx="7" ry="4" fill="#fff" opacity="0.4"></ellipse>

  <ellipse cx="64" cy="48" rx="9" ry="4" fill="#100a08" opacity="0.65"></ellipse>
  <ellipse cx="61" cy="47" rx="2" ry="1" fill="#fff" opacity="0.45"></ellipse>


  <circle cx="38" cy="66" r="9" fill="url(#arm)" stroke="#2a2008" stroke-width="1.5"></circle>
  <circle cx="90" cy="66" r="9" fill="url(#arm)" stroke="#2a2008" stroke-width="1.5"></circle>
  <ellipse cx="35" cy="63" rx="2" ry="1.2" fill="#fff" opacity="0.4"></ellipse>
  <ellipse cx="87" cy="63" rx="2" ry="1.2" fill="#fff" opacity="0.4"></ellipse>

  <path d="M54 90 L64 84 L74 90 M54 96 L64 90 L74 96" stroke="#ffd76a" stroke-width="2.5" fill="none"></path>
  <circle cx="64" cy="64" r="34" fill="none" stroke="#f0d9a0" stroke-width="1.5" opacity="0.42"></circle>
  <text x="64" y="120" font-size="10" text-anchor="middle" fill="#f0d9a0" font-family="sans-serif" font-weight="600">JACKSON</text>
</svg>