<svg viewBox="0 0 128 128" xmlns="http://www.w3.org/2000/svg">
  <defs><filter id="fxBlur" x="-60%" y="-60%" width="220%" height="220%"><feGaussianBlur stdDeviation="1.6"></feGaussianBlur></filter>
    <radialGradient id="body" cx="38%" cy="32%" r="72%">
      <stop offset="0%" stop-color="#af86a2"></stop>
      <stop offset="55%" stop-color="#7a3564"></stop>
      <stop offset="100%" stop-color="#471f3a"></stop>
    </radialGradient>
    <radialGradient id="helmet" cx="34%" cy="26%" r="78%">
      <stop offset="0%" stop-color="#c799b9"></stop>
      <stop offset="52%" stop-color="#9a4580"></stop>
      <stop offset="100%" stop-color="#5c294d"></stop>
    </radialGradient>
    <radialGradient id="arm" cx="32%" cy="28%" r="85%">
      <stop offset="0%" stop-color="#9a758f"></stop>
      <stop offset="100%" stop-color="#401b35"></stop>
    </radialGradient>
    <radialGradient id="pack" cx="38%" cy="30%" r="75%">
      <stop offset="0%" stop-color="#5c6b3c"></stop>
      <stop offset="100%" stop-color="#233010"></stop>
    </radialGradient>
    <radialGradient id="ao" cx="50%" cy="55%" r="52%">
      <stop offset="55%" stop-color="#000" stop-opacity="0"></stop>
      <stop offset="100%" stop-color="#000" stop-opacity="0.38"></stop>
    </radialGradient>
  </defs>

  <ellipse cx="64" cy="102" rx="34" ry="10" fill="#000" opacity="0.3" filter="url(#fxBlur)"></ellipse>
  <ellipse cx="64" cy="78" rx="22" ry="18" fill="url(#pack)"></ellipse>
  <path d="M48 68 Q64 78 80 68" stroke="#000" stroke-width="2" opacity="0.2" fill="none"></path>

  <circle cx="64" cy="64" r="34" fill="url(#body)"></circle>
  <circle cx="64" cy="64" r="34" fill="#5a7a34" opacity="0.1"></circle>
  <circle cx="64" cy="64" r="34" fill="url(#ao)"></circle>
  <circle cx="64" cy="64" r="6" fill="#ffd6f0"></circle>
  <ellipse cx="61" cy="61" rx="2" ry="1.3" fill="#fff" opacity="0.5"></ellipse>

  <circle cx="64" cy="46" r="20" fill="url(#helmet)"></circle>
  <ellipse cx="57" cy="35" rx="7" ry="4" fill="#fff" opacity="0.4"></ellipse>
  <ellipse cx="64" cy="48" rx="9" ry="4" fill="#100a08" opacity="0.65"></ellipse>
  <ellipse cx="61" cy="47" rx="2" ry="1" fill="#fff" opacity="0.45"></ellipse>

  
      <ellipse cx="64" cy="27" rx="6" ry="3" fill="#7a9a3a" transform="rotate(-8 64 27)"></ellipse>
      <ellipse cx="58" cy="29" rx="5" ry="2.4" fill="#658a2e" transform="rotate(20 58 29)"></ellipse>
      <path d="M45 65 Q64 80 83 65 L81 85 Q64 93 47 85 Z" fill="#556b34" opacity="0.92"></path>
      <path d="M45 65 Q64 80 83 65" stroke="#e0a8d0" stroke-width="1.4" fill="none" opacity="0.55"></path>
      <path d="M42 58 Q48 50 56 55" stroke="#c96a2e" stroke-width="2.6" fill="none" opacity="0.9" stroke-linecap="round"></path>
      <path d="M86 58 Q80 50 72 55" stroke="#c96a2e" stroke-width="2.6" fill="none" opacity="0.9" stroke-linecap="round"></path>
      <ellipse cx="50" cy="40" rx="5" ry="2.6" fill="#7a9a3a" transform="rotate(-20 50 40)"></ellipse>
      <ellipse cx="78" cy="39" rx="5" ry="2.6" fill="#7a9a3a" transform="rotate(20 78 39)"></ellipse>
      <ellipse cx="46" cy="58" rx="6" ry="5" fill="#4a5c2c"></ellipse>
      <ellipse cx="82" cy="58" rx="6" ry="5" fill="#4a5c2c"></ellipse>
      <rect x="54" y="81" width="20" height="7" rx="2.5" fill="#3c4a20"></rect>
      <circle cx="64" cy="84.5" r="2.2" fill="#ffd6f0"></circle>
      <ellipse cx="64" cy="73" rx="9" ry="4" fill="#4a5c2c" opacity="0.85"></ellipse>
      <ellipse cx="64" cy="70" rx="4" ry="2.6" fill="#8a6a3a" opacity="0.8"></ellipse>
      <ellipse cx="38" cy="70" rx="6" ry="5" fill="#4a5c2c" opacity="0.9"></ellipse>
      <ellipse cx="90" cy="70" rx="6" ry="5" fill="#4a5c2c" opacity="0.9"></ellipse>

  <circle cx="38" cy="66" r="9" fill="url(#arm)"></circle>
  <circle cx="90" cy="66" r="9" fill="url(#arm)"></circle>
  <ellipse cx="35" cy="63" rx="2" ry="1.2" fill="#fff" opacity="0.4"></ellipse>
  <ellipse cx="87" cy="63" rx="2" ry="1.2" fill="#fff" opacity="0.4"></ellipse>

  <rect x="52" y="86" width="10" height="6" rx="2" fill="#ffd6f0"></rect><rect x="66" y="86" width="10" height="6" rx="2" fill="#ffd6f0"></rect>
  <circle cx="64" cy="64" r="34" fill="none" stroke="#d8f0c0" stroke-width="5.5" opacity="0.2" filter="url(#fxBlur)"></circle>
  <text x="64" y="120" font-size="10" text-anchor="middle" fill="#d8f0c0" font-family="sans-serif" font-weight="600">MINA</text>
</svg>