<svg viewBox="0 0 128 128" xmlns="http://www.w3.org/2000/svg">
  <defs><filter id="fxBlur" x="-60%" y="-60%" width="220%" height="220%"><feGaussianBlur stdDeviation="1.6"></feGaussianBlur></filter>
    <radialGradient id="body" cx="38%" cy="32%" r="72%">
      <stop offset="0%" stop-color="#869baf"></stop>
      <stop offset="55%" stop-color="#35597a"></stop>
      <stop offset="100%" stop-color="#1f3447"></stop>
    </radialGradient>
    <radialGradient id="helmet" cx="34%" cy="26%" r="78%">
      <stop offset="0%" stop-color="#99b1c7"></stop>
      <stop offset="52%" stop-color="#45719a"></stop>
      <stop offset="100%" stop-color="#29445c"></stop>
    </radialGradient>
    <radialGradient id="arm" cx="32%" cy="28%" r="85%">
      <stop offset="0%" stop-color="#75899a"></stop>
      <stop offset="100%" stop-color="#1c3040"></stop>
    </radialGradient>
    <radialGradient id="pack" cx="38%" cy="30%" r="75%">
      <stop offset="0%" stop-color="#c3d2dc"></stop>
      <stop offset="100%" stop-color="#7b8f9c"></stop>
    </radialGradient>
    <radialGradient id="ao" cx="50%" cy="55%" r="52%">
      <stop offset="55%" stop-color="#000" stop-opacity="0"></stop>
      <stop offset="100%" stop-color="#000" stop-opacity="0.38"></stop>
    </radialGradient>
  </defs>

  <ellipse cx="64" cy="102" rx="34" ry="10" fill="#000" opacity="0.3" filter="url(#fxBlur)"></ellipse>
  <ellipse cx="64" cy="78" rx="22" ry="18" fill="url(#pack)"></ellipse>
  <path d="M48 68 Q64 78 80 68" stroke="#000" stroke-width="2" opacity="0.2" fill="none"></path>

  <circle cx="64" cy="64" r="34" fill="url(#body)"></circle>
  <circle cx="64" cy="64" r="34" fill="#dce8f0" opacity="0.1"></circle>
  <circle cx="64" cy="64" r="34" fill="url(#ao)"></circle>
  <circle cx="64" cy="64" r="6" fill="#bfe0ff"></circle>
  <ellipse cx="61" cy="61" rx="2" ry="1.3" fill="#fff" opacity="0.5"></ellipse>

  <circle cx="64" cy="46" r="20" fill="url(#helmet)"></circle>
  <ellipse cx="57" cy="35" rx="7" ry="4" fill="#fff" opacity="0.4"></ellipse>
  <ellipse cx="64" cy="48" rx="9" ry="4" fill="#100a08" opacity="0.65"></ellipse>
  <ellipse cx="61" cy="47" rx="2" ry="1" fill="#fff" opacity="0.45"></ellipse>

  
      <path d="M44 42 A22 20 0 0 1 84 42" fill="none" stroke="#fff" stroke-width="5.5" opacity="0.6" stroke-linecap="round"></path>
      <circle cx="43" cy="46" r="2.6" fill="#fff" opacity="0.7"></circle>
      <circle cx="85" cy="46" r="2.6" fill="#fff" opacity="0.7"></circle>
      <path d="M45 65 Q64 83 83 65 L81 87 Q64 96 47 87 Z" fill="#e4ecf2" opacity="0.94"></path>
      <path d="M45 65 Q64 83 83 65" stroke="#9db3c2" stroke-width="1.4" fill="none" opacity="0.6"></path>
      <ellipse cx="46" cy="58" rx="6.5" ry="5.4" fill="#d3dde3"></ellipse>
      <ellipse cx="82" cy="58" rx="6.5" ry="5.4" fill="#d3dde3"></ellipse>
      <rect x="53" y="42.5" width="22" height="7" rx="3.5" fill="#5aa8e0" opacity="0.6"></rect>
      <rect x="53" y="42.5" width="22" height="7" rx="3.5" fill="none" stroke="#fff" stroke-width="1" opacity="0.7"></rect>
      <rect x="54" y="82.5" width="20" height="7" rx="2.5" fill="#b7c6d0"></rect>
      <circle cx="64" cy="86" r="2.2" fill="#dfe8ee"></circle>
      <ellipse cx="38" cy="70" rx="6.5" ry="5.4" fill="#eef3f6" opacity="0.95"></ellipse>
      <ellipse cx="90" cy="70" rx="6.5" ry="5.4" fill="#eef3f6" opacity="0.95"></ellipse>

  <circle cx="38" cy="66" r="9" fill="url(#arm)"></circle>
  <circle cx="90" cy="66" r="9" fill="url(#arm)"></circle>
  <ellipse cx="35" cy="63" rx="2" ry="1.2" fill="#fff" opacity="0.4"></ellipse>
  <ellipse cx="87" cy="63" rx="2" ry="1.2" fill="#fff" opacity="0.4"></ellipse>

  <rect x="54" y="88" width="20" height="6" rx="2" fill="#dfe8ee"></rect>
  <circle cx="64" cy="64" r="34" fill="none" stroke="#eaf6ff" stroke-width="5.5" opacity="0.2" filter="url(#fxBlur)"></circle>
  <text x="64" y="120" font-size="10" text-anchor="middle" fill="#eaf6ff" font-family="sans-serif" font-weight="600">RYZOR</text>
</svg>