<svg viewBox="0 0 128 128" xmlns="http://www.w3.org/2000/svg">
  <defs>
    <radialGradient id="body" cx="38%" cy="32%" r="72%">
      <stop offset="0%" stop-color="#869baf"></stop>
      <stop offset="55%" stop-color="#35597a"></stop>
      <stop offset="100%" stop-color="#1f3447"></stop>
    </radialGradient>
    <radialGradient id="helmet" cx="34%" cy="26%" r="78%">
      <stop offset="0%" stop-color="#99b1c7"></stop>
      <stop offset="52%" stop-color="#45719a"></stop>
      <stop offset="100%" stop-color="#29445c"></stop>
    </radialGradient>
    <radialGradient id="arm" cx="32%" cy="28%" r="85%">
      <stop offset="0%" stop-color="#75899a"></stop>
      <stop offset="100%" stop-color="#1c3040"></stop>
    </radialGradient>
    <radialGradient id="pack" cx="38%" cy="30%" r="75%">
      <stop offset="0%" stop-color="#566774"></stop>
      <stop offset="100%" stop-color="#152431"></stop>
    </radialGradient>
    <linearGradient id="gun" x1="0%" y1="0%" x2="100%" y2="0%">
      <stop offset="0%" stop-color="#5a5a5a"></stop>
      <stop offset="45%" stop-color="#232323"></stop>
      <stop offset="100%" stop-color="#050505"></stop>
    </linearGradient>
    <radialGradient id="ao" cx="50%" cy="55%" r="52%">
      <stop offset="55%" stop-color="#000" stop-opacity="0"></stop>
      <stop offset="100%" stop-color="#000" stop-opacity="0.38"></stop>
    </radialGradient>
  </defs>

  <ellipse cx="64" cy="102" rx="34" ry="10" fill="#000" opacity="0.3"></ellipse>
  <ellipse cx="64" cy="78" rx="22" ry="18" fill="url(#pack)"></ellipse>
  <path d="M48 68 Q64 78 80 68" stroke="#000" stroke-width="2" opacity="0.2" fill="none"></path>

  <circle cx="64" cy="64" r="34" fill="url(#body)" stroke="#0f1c26" stroke-width="2.5"></circle>
  <circle cx="64" cy="64" r="34" fill="url(#ao)"></circle>
  <path d="M40 50 Q64 60 88 50" stroke="#0f1c26" stroke-width="3" fill="none" opacity="0.55"></path>
  <circle cx="64" cy="64" r="6" fill="#bfe0ff" stroke="#35597a" stroke-width="1.5"></circle>
  <ellipse cx="61" cy="61" rx="2" ry="1.3" fill="#fff" opacity="0.5"></ellipse>

  <circle cx="64" cy="46" r="20" fill="url(#helmet)" stroke="#0f1c26" stroke-width="2.5"></circle>
  <path d="M46 42 A18 18 0 0 1 82 42" fill="#0f1c26" opacity="0.3"></path>
  <ellipse cx="57" cy="35" rx="7" ry="4" fill="#fff" opacity="0.4"></ellipse>

  <ellipse cx="64" cy="48" rx="9" ry="4" fill="#100a08" opacity="0.65"></ellipse>
  <ellipse cx="61" cy="47" rx="2" ry="1" fill="#fff" opacity="0.45"></ellipse>


  <circle cx="38" cy="66" r="9" fill="url(#arm)" stroke="#0f1c26" stroke-width="1.5"></circle>
  <circle cx="90" cy="66" r="9" fill="url(#arm)" stroke="#0f1c26" stroke-width="1.5"></circle>
  <ellipse cx="35" cy="63" rx="2" ry="1.2" fill="#fff" opacity="0.4"></ellipse>
  <ellipse cx="87" cy="63" rx="2" ry="1.2" fill="#fff" opacity="0.4"></ellipse>

  <rect x="54" y="88" width="20" height="6" rx="2" fill="#bfe0ff"></rect>
  <circle cx="64" cy="64" r="34" fill="none" stroke="#bfe0ff" stroke-width="1.5" opacity="0.42"></circle>
  <text x="64" y="120" font-size="10" text-anchor="middle" fill="#bfe0ff" font-family="sans-serif" font-weight="600">RYZOR</text>
</svg>