<svg viewBox="0 0 128 96" xmlns="http://www.w3.org/2000/svg">
  <defs><filter id="fxOutline" x="-40%" y="-40%" width="180%" height="180%"><feTurbulence type="fractalNoise" baseFrequency="0.85" numOctaves="2" seed="7" result="fxn"></feTurbulence><feDisplacementMap in="SourceGraphic" in2="fxn" scale="2.6" xChannelSelector="R" yChannelSelector="G" result="fxrough"></feDisplacementMap><feDropShadow in="fxrough" dx="0" dy="0" stdDeviation="1.3" flood-color="#3e3016" flood-opacity="0.85"></feDropShadow></filter><filter id="fxBlur" x="-60%" y="-60%" width="220%" height="220%"><feGaussianBlur stdDeviation="1.6"></feGaussianBlur></filter>
    <radialGradient id="sb1" cx="40%" cy="30%" r="80%"><stop offset="0%" stop-color="#cdb88c"></stop><stop offset="100%" stop-color="#816c3f"></stop></radialGradient>
    <radialGradient id="sb2" cx="40%" cy="28%" r="80%"><stop offset="0%" stop-color="#dac79a"></stop><stop offset="100%" stop-color="#907c4c"></stop></radialGradient>
    <radialGradient id="sb3" cx="40%" cy="30%" r="80%"><stop offset="0%" stop-color="#c1af83"></stop><stop offset="100%" stop-color="#715f35"></stop></radialGradient>
  <filter id="fxGrain" x="0" y="0" width="100%" height="100%"><feTurbulence type="fractalNoise" baseFrequency="0.9" numOctaves="2" seed="3" result="n"></feTurbulence><feColorMatrix in="n" type="matrix" values="0 0 0 0 0  0 0 0 0 0  0 0 0 0 0  0.9 0 0 0 0"></feColorMatrix></filter></defs><g filter="url(#fxOutline)">
  <ellipse cx="64" cy="82" rx="46" ry="10" fill="#000" opacity="0.34" filter="url(#fxBlur)"></ellipse>
  <g>
    <ellipse cx="30" cy="60" rx="22" ry="14" fill="url(#sb1)"></ellipse>
    <ellipse cx="98" cy="60" rx="22" ry="14" fill="url(#sb1)"></ellipse>
    <ellipse cx="46" cy="70" rx="22" ry="14" fill="url(#sb3)"></ellipse>
    <ellipse cx="82" cy="70" rx="22" ry="14" fill="url(#sb3)"></ellipse>
    <ellipse cx="64" cy="52" rx="24" ry="15" fill="url(#sb2)"></ellipse>
  </g>
  <ellipse cx="22" cy="52" rx="7" ry="4" fill="#fff" opacity="0.22"></ellipse>
  <ellipse cx="56" cy="43" rx="7" ry="4" fill="#fff" opacity="0.24"></ellipse>
  <ellipse cx="90" cy="52" rx="7" ry="4" fill="#fff" opacity="0.22"></ellipse>
  
<rect x="0" y="0" width="128" height="96" filter="url(#fxGrain)" opacity="0.11" style="mix-blend-mode:overlay" pointer-events="none"></rect></g></svg>