<svg viewBox="0 0 96 96" xmlns="http://www.w3.org/2000/svg">
  <defs><filter id="fxOutline" x="-40%" y="-40%" width="180%" height="180%"><feTurbulence type="fractalNoise" baseFrequency="0.85" numOctaves="2" seed="7" result="fxn"></feTurbulence><feDisplacementMap in="SourceGraphic" in2="fxn" scale="2.6" xChannelSelector="R" yChannelSelector="G" result="fxrough"></feDisplacementMap><feDropShadow in="fxrough" dx="0" dy="0" stdDeviation="1.3" flood-color="#3a2410" flood-opacity="0.85"></feDropShadow></filter><filter id="fxBlur" x="-60%" y="-60%" width="220%" height="220%"><feGaussianBlur stdDeviation="1.6"></feGaussianBlur></filter>
    <linearGradient id="crateWood" x1="0%" y1="0%" x2="100%" y2="100%">
      <stop offset="0%" stop-color="#ad8c6d"></stop>
      <stop offset="55%" stop-color="#8a5a2e"></stop>
      <stop offset="100%" stop-color="#5a3b1e"></stop>
    </linearGradient>
    <linearGradient id="metalBand" x1="0%" y1="0%" x2="0%" y2="100%">
      <stop offset="0%" stop-color="#9a9a94"></stop>
      <stop offset="100%" stop-color="#4a4a44"></stop>
    </linearGradient>
  <filter id="fxGrain" x="0" y="0" width="100%" height="100%"><feTurbulence type="fractalNoise" baseFrequency="0.9" numOctaves="2" seed="3" result="n"></feTurbulence><feColorMatrix in="n" type="matrix" values="0 0 0 0 0  0 0 0 0 0  0 0 0 0 0  0.9 0 0 0 0"></feColorMatrix></filter></defs><g filter="url(#fxOutline)">
  <ellipse cx="48" cy="82" rx="34" ry="9" fill="#000" opacity="0.32" filter="url(#fxBlur)"></ellipse>
  <rect x="12" y="18" width="72" height="60" rx="3" fill="url(#crateWood)"></rect>
  
  
  
  
  <rect x="10" y="16" width="10" height="64" fill="url(#metalBand)" opacity="0.85"></rect>
  <rect x="76" y="16" width="10" height="64" fill="url(#metalBand)" opacity="0.85"></rect>
  <rect x="10" y="44" width="76" height="8" fill="url(#metalBand)" opacity="0.8"></rect>
  <g fill="#2a2a24">
    <circle cx="15" cy="22" r="1.4"></circle><circle cx="15" cy="74" r="1.4"></circle>
    <circle cx="81" cy="22" r="1.4"></circle><circle cx="81" cy="74" r="1.4"></circle>
  </g>
  <rect x="26" y="30" width="44" height="34" fill="none" stroke="#c8935a" stroke-width="1.8" opacity="0.6"></rect>
  <circle cx="48" cy="47" r="6" fill="#3a2410"></circle>
  <rect x="12" y="18" width="72" height="10" fill="#fff" opacity="0.08"></rect>
<rect x="0" y="0" width="96" height="96" filter="url(#fxGrain)" opacity="0.11" style="mix-blend-mode:overlay" pointer-events="none"></rect></g></svg>