<svg viewBox="0 0 96 96" xmlns="http://www.w3.org/2000/svg">
  <defs>
    <linearGradient id="wall" x1="0%" y1="0%" x2="100%" y2="0%">
      <stop offset="0%" stop-color="#d3b993"></stop>
      <stop offset="100%" stop-color="#967e5a"></stop>
    </linearGradient>
    <linearGradient id="roof" x1="0%" y1="0%" x2="100%" y2="100%">
      <stop offset="0%" stop-color="#a76b5f"></stop>
      <stop offset="100%" stop-color="#61291d"></stop>
    </linearGradient>
    <linearGradient id="glass" x1="0%" y1="0%" x2="0%" y2="100%">
      <stop offset="0%" stop-color="#dff0fa"></stop>
      <stop offset="100%" stop-color="#7fb0cc"></stop>
    </linearGradient>
  </defs>
  <ellipse cx="48" cy="86" rx="40" ry="8" fill="#000" opacity="0.3"></ellipse>
  <rect x="16" y="30" width="64" height="50" rx="2" fill="url(#wall)" stroke="#5a3f22" stroke-width="2.5"></rect>
  <g stroke="#8a6c46" stroke-width="0.8" opacity="0.45">
    <path d="M16 40 H80 M16 50 H80 M16 60 H80 M16 70 H80"></path>
    <path d="M32 30 V40 M48 40 V50 M64 50 V60 M32 60 V70 M64 70 V80 M48 30 V40"></path>
  </g>
  <path d="M8 34 L48 6 L88 34 Z" fill="url(#roof)" stroke="#3a170e" stroke-width="2.5"></path>
  <g stroke="#4a1e12" stroke-width="0.9" opacity="0.5">
    <path d="M16 30 L20 32 M24 26 L28 28 M32 22 L36 24 M40 18 L44 20 M52 18 L56 20 M60 22 L64 24 M68 26 L72 28 M76 30 L80 32"></path>
  </g>
  <path d="M48 6 L88 34 L80 34 L48 12 Z" fill="#fff" opacity="0.12"></path>
  <rect x="40" y="54" width="16" height="26" fill="#3a2210" stroke="#20130a" stroke-width="1"></rect>
  <circle cx="53" cy="67" r="1.2" fill="#c8a848"></circle>
  <rect x="24" y="42" width="12" height="12" fill="url(#glass)" stroke="#5a3f22" stroke-width="1.5"></rect>
  <path d="M30 42 V54 M24 48 H36" stroke="#5a3f22" stroke-width="1"></path>
  <rect x="60" y="42" width="12" height="12" fill="url(#glass)" stroke="#5a3f22" stroke-width="1.5"></rect>
  <path d="M66 42 V54 M60 48 H72" stroke="#5a3f22" stroke-width="1"></path>
  <rect x="44" y="10" width="6" height="10" fill="#4a3626"></rect>
</svg>