<svg viewBox="0 0 80 80" xmlns="http://www.w3.org/2000/svg">
  <defs><filter id="fxOutline" x="-40%" y="-40%" width="180%" height="180%"><feTurbulence type="fractalNoise" baseFrequency="0.85" numOctaves="2" seed="7" result="fxn"></feTurbulence><feDisplacementMap in="SourceGraphic" in2="fxn" scale="2.6" xChannelSelector="R" yChannelSelector="G" result="fxrough"></feDisplacementMap><feDropShadow in="fxrough" dx="0" dy="0" stdDeviation="1.3" flood-color="#182a10" flood-opacity="0.85"></feDropShadow></filter><filter id="fxBlur" x="-60%" y="-60%" width="220%" height="220%"><feGaussianBlur stdDeviation="1.6"></feGaussianBlur></filter>
    <radialGradient id="foliage" cx="38%" cy="30%" r="80%">
      <stop offset="0%" stop-color="#899d7d"></stop>
      <stop offset="60%" stop-color="#3a5c26"></stop>
      <stop offset="100%" stop-color="#233717"></stop>
    </radialGradient>
    <radialGradient id="clump" cx="35%" cy="28%" r="85%">
      <stop offset="0%" stop-color="#89a178"></stop>
      <stop offset="100%" stop-color="#344d22"></stop>
    </radialGradient>
    <linearGradient id="bark" x1="0%" y1="0%" x2="100%" y2="0%">
      <stop offset="0%" stop-color="#6a6058"></stop>
      <stop offset="100%" stop-color="#1d140b"></stop>
    </linearGradient>
  <filter id="fxGrain" x="0" y="0" width="100%" height="100%"><feTurbulence type="fractalNoise" baseFrequency="0.9" numOctaves="2" seed="3" result="n"></feTurbulence><feColorMatrix in="n" type="matrix" values="0 0 0 0 0  0 0 0 0 0  0 0 0 0 0  0.9 0 0 0 0"></feColorMatrix></filter></defs><g filter="url(#fxOutline)">
  <ellipse cx="40" cy="70" rx="24" ry="7" fill="#000" opacity="0.32" filter="url(#fxBlur)"></ellipse>
  <path d="M40 8 C58 8 70 22 70 40 C70 56 60 68 44 68 C24 68 10 56 10 38 C10 20 24 8 40 8 Z" fill="url(#foliage)"></path>
  <circle cx="26" cy="30" r="14" fill="url(#clump)" opacity="0.85"></circle>
  <circle cx="54" cy="30" r="14" fill="url(#clump)" opacity="0.85"></circle>
  <circle cx="40" cy="20" r="14" fill="url(#clump)" opacity="0.9"></circle>
  <circle cx="16" cy="46" r="9" fill="url(#clump)" opacity="0.65"></circle><path d="M40 40 Q42 50 38 58" stroke="#1d140b" stroke-width="1.2" opacity="0.3" fill="none"></path>
  <circle cx="62" cy="42" r="10" fill="url(#clump)" opacity="0.7"></circle>
  <ellipse cx="30" cy="14" rx="7" ry="4.5" fill="#fff" opacity="0.18"></ellipse>
  
  <rect x="34" y="40" width="12" height="14" fill="url(#bark)"></rect>
  <circle cx="40" cy="40" r="7" fill="url(#bark)"></circle>
  
<rect x="0" y="0" width="80" height="80" filter="url(#fxGrain)" opacity="0.11" style="mix-blend-mode:overlay" pointer-events="none"></rect></g></svg>