<svg viewBox="0 0 88 76" xmlns="http://www.w3.org/2000/svg">
  <defs><filter id="fxOutline" x="-40%" y="-40%" width="180%" height="180%"><feTurbulence type="fractalNoise" baseFrequency="0.85" numOctaves="2" seed="7" result="fxn"></feTurbulence><feDisplacementMap in="SourceGraphic" in2="fxn" scale="2.6" xChannelSelector="R" yChannelSelector="G" result="fxrough"></feDisplacementMap><feDropShadow in="fxrough" dx="0" dy="0" stdDeviation="1.3" flood-color="#22300f" flood-opacity="0.85"></feDropShadow></filter><filter id="fxBlur" x="-60%" y="-60%" width="220%" height="220%"><feGaussianBlur stdDeviation="1.6"></feGaussianBlur></filter>
    <linearGradient id="tentFront" x1="0%" y1="0%" x2="100%" y2="0%">
      <stop offset="0%" stop-color="#8c9a75"></stop>
      <stop offset="100%" stop-color="#3f4d29"></stop>
    </linearGradient>
  <filter id="fxGrain" x="0" y="0" width="100%" height="100%"><feTurbulence type="fractalNoise" baseFrequency="0.9" numOctaves="2" seed="3" result="n"></feTurbulence><feColorMatrix in="n" type="matrix" values="0 0 0 0 0  0 0 0 0 0  0 0 0 0 0  0.9 0 0 0 0"></feColorMatrix></filter></defs><g filter="url(#fxOutline)">
  <ellipse cx="44" cy="68" rx="38" ry="8" fill="#000" opacity="0.32" filter="url(#fxBlur)"></ellipse>
  <path d="M44 8 L80 62 L8 62 Z" fill="url(#tentFront)"></path>
  
  <path d="M44 8 L44 62" stroke="#22300f" stroke-width="2"></path>
  <path d="M44 8 L64 62 L24 62 Z" fill="#3a4a24" opacity="0.7"></path>
  <path d="M44 8 L14 62 L20 62 Z" fill="#fff" opacity="0.08"></path>
  <path d="M36 62 L44 40 L52 62 Z" fill="#171310"></path>
  <path d="M8 62 L-4 74" stroke="#3a2f1a" stroke-width="1.2" opacity="0.7"></path>
  <path d="M80 62 L92 74" stroke="#3a2f1a" stroke-width="1.2" opacity="0.7"></path>
  <circle cx="-4" cy="74" r="1.6" fill="#2a2214"></circle>
  <circle cx="92" cy="74" r="1.6" fill="#2a2214"></circle>
  <circle cx="44" cy="8" r="3" fill="#22300f"></circle>
<rect x="0" y="0" width="88" height="76" filter="url(#fxGrain)" opacity="0.11" style="mix-blend-mode:overlay" pointer-events="none"></rect></g></svg>