<svg viewBox="0 0 96 96" xmlns="http://www.w3.org/2000/svg">
  <defs><filter id="fxOutline" x="-40%" y="-40%" width="180%" height="180%"><feTurbulence type="fractalNoise" baseFrequency="0.85" numOctaves="2" seed="7" result="fxn"></feTurbulence><feDisplacementMap in="SourceGraphic" in2="fxn" scale="2.6" xChannelSelector="R" yChannelSelector="G" result="fxrough"></feDisplacementMap><feDropShadow in="fxrough" dx="0" dy="0" stdDeviation="1.3" flood-color="#5a3f22" flood-opacity="0.85"></feDropShadow></filter><filter id="fxBlur" x="-60%" y="-60%" width="220%" height="220%"><feGaussianBlur stdDeviation="1.6"></feGaussianBlur></filter>
    <linearGradient id="wall" x1="0%" y1="0%" x2="100%" y2="0%">
      <stop offset="0%" stop-color="#d3b993"></stop>
      <stop offset="100%" stop-color="#967e5a"></stop>
    </linearGradient>
    <linearGradient id="roof" x1="0%" y1="0%" x2="100%" y2="100%">
      <stop offset="0%" stop-color="#a76b5f"></stop>
      <stop offset="100%" stop-color="#61291d"></stop>
    </linearGradient>
    <linearGradient id="glass" x1="0%" y1="0%" x2="0%" y2="100%">
      <stop offset="0%" stop-color="#dff0fa"></stop>
      <stop offset="100%" stop-color="#7fb0cc"></stop>
    </linearGradient>
  <filter id="fxGrain" x="0" y="0" width="100%" height="100%"><feTurbulence type="fractalNoise" baseFrequency="0.9" numOctaves="2" seed="3" result="n"></feTurbulence><feColorMatrix in="n" type="matrix" values="0 0 0 0 0  0 0 0 0 0  0 0 0 0 0  0.9 0 0 0 0"></feColorMatrix></filter></defs><g filter="url(#fxOutline)">
  <ellipse cx="48" cy="86" rx="40" ry="8" fill="#000" opacity="0.3" filter="url(#fxBlur)"></ellipse>
  <rect x="16" y="30" width="64" height="50" rx="2" fill="url(#wall)"></rect>
  
  <path d="M8 34 L48 6 L88 34 Z" fill="url(#roof)"></path>
  
  <path d="M48 6 L88 34 L80 34 L48 12 Z" fill="#fff" opacity="0.12"></path>
  <rect x="40" y="54" width="16" height="26" fill="#3a2210"></rect>
  <circle cx="53" cy="67" r="1.2" fill="#c8a848"></circle>
  <rect x="24" y="42" width="12" height="12" fill="url(#glass)"></rect>
  <path d="M30 42 V54 M24 48 H36" stroke="#5a3f22" stroke-width="1"></path>
  <rect x="60" y="42" width="12" height="12" fill="url(#glass)"></rect>
  <path d="M66 42 V54 M60 48 H72" stroke="#5a3f22" stroke-width="1"></path>
  <rect x="44" y="10" width="6" height="10" fill="#4a3626"></rect>
<rect x="0" y="0" width="96" height="96" filter="url(#fxGrain)" opacity="0.11" style="mix-blend-mode:overlay" pointer-events="none"></rect></g></svg>