<svg viewBox="0 0 120 48" xmlns="http://www.w3.org/2000/svg">
  <defs><filter id="fxOutline" x="-40%" y="-40%" width="180%" height="180%"><feTurbulence type="fractalNoise" baseFrequency="0.85" numOctaves="2" seed="7" result="fxn"></feTurbulence><feDisplacementMap in="SourceGraphic" in2="fxn" scale="2.6" xChannelSelector="R" yChannelSelector="G" result="fxrough"></feDisplacementMap><feDropShadow in="fxrough" dx="0" dy="0" stdDeviation="1.3" flood-color="#3a3a34" flood-opacity="0.85"></feDropShadow></filter><filter id="fxBlur" x="-60%" y="-60%" width="220%" height="220%"><feGaussianBlur stdDeviation="1.6"></feGaussianBlur></filter>
    <linearGradient id="wallStone" x1="0%" y1="0%" x2="0%" y2="100%">
      <stop offset="0%" stop-color="#adada8"></stop>
      <stop offset="100%" stop-color="#61615b"></stop>
    </linearGradient>
  <filter id="fxGrain" x="0" y="0" width="100%" height="100%"><feTurbulence type="fractalNoise" baseFrequency="0.9" numOctaves="2" seed="3" result="n"></feTurbulence><feColorMatrix in="n" type="matrix" values="0 0 0 0 0  0 0 0 0 0  0 0 0 0 0  0.9 0 0 0 0"></feColorMatrix></filter></defs><g filter="url(#fxOutline)">
  <ellipse cx="60" cy="42" rx="55" ry="6" fill="#000" opacity="0.3" filter="url(#fxBlur)"></ellipse>
  <rect x="4" y="6" width="112" height="30" rx="3" fill="url(#wallStone)"></rect>
  
  <path d="M20 8 L26 6 L28 12 L22 13 Z" fill="#5c5c54" opacity="0.5"></path>
  <path d="M92 30 L98 28 L100 35 L94 36 Z" fill="#4a4a42" opacity="0.5"></path>
  <ellipse cx="60" cy="30" rx="10" ry="3" fill="#3a3a2e" opacity="0.25"></ellipse>
  <rect x="4" y="6" width="112" height="4" fill="#fff" opacity="0.15"></rect>
<rect x="0" y="0" width="120" height="48" filter="url(#fxGrain)" opacity="0.11" style="mix-blend-mode:overlay" pointer-events="none"></rect><g stroke="#000" stroke-width="1" opacity="0.18" fill="none" data-crackline="1"><path d="M18 10 L24 30 L16 46"></path><path d="M60 6 L56 22"></path></g></g></svg>