<svg viewBox="0 0 80 80" xmlns="http://www.w3.org/2000/svg">
  <defs>
    <radialGradient id="foliageMain" cx="42%" cy="38%" r="65%">
      <stop offset="0%" stop-color="#7fae52"></stop>
      <stop offset="55%" stop-color="#4c7a34"></stop>
      <stop offset="100%" stop-color="#264420"></stop>
    </radialGradient>
    <radialGradient id="foliageDark" cx="45%" cy="45%" r="70%">
      <stop offset="0%" stop-color="#3d6329"></stop>
      <stop offset="100%" stop-color="#1c3016"></stop>
    </radialGradient>
    <filter id="leafBump" x="-30%" y="-30%" width="160%" height="160%">
      <feTurbulence type="fractalNoise" baseFrequency="0.085" numOctaves="4" seed="14" result="n"></feTurbulence>
      <feDiffuseLighting in="n" lighting-color="#ffffff" surfaceScale="3" diffuseConstant="1.1" result="lit">
        <feDistantLight azimuth="235" elevation="55"></feDistantLight>
      </feDiffuseLighting>
      <feComposite in="lit" in2="SourceGraphic" operator="in"></feComposite>
    </filter>
    <filter id="softBlur" x="-60%" y="-60%" width="220%" height="220%"><feGaussianBlur stdDeviation="2"></feGaussianBlur></filter>
  </defs>

  <ellipse cx="41" cy="70" rx="24" ry="9" fill="#000" opacity="0.3" filter="url(#softBlur)"></ellipse>

  <path d="M40 6 C54 4 68 12 70 26 C76 32 74 46 64 50 C66 58 56 66 46 62 C40 70 26 70 20 60 C10 58 8 44 16 36 C10 26 18 12 30 12 C30 6 36 6 40 6 Z" fill="url(#foliageDark)"></path>

  <path d="M38 8 C50 4 62 12 64 24 C70 28 68 42 58 46 C60 54 50 60 42 56 C36 64 24 62 20 52 C12 50 10 38 18 32 C14 22 22 10 32 10 C32 6 36 6 38 8 Z" fill="url(#foliageMain)"></path>
  <path d="M38 8 C50 4 62 12 64 24 C70 28 68 42 58 46 C60 54 50 60 42 56 C36 64 24 62 20 52 C12 50 10 38 18 32 C14 22 22 10 32 10 C32 6 36 6 38 8 Z" fill="#000" filter="url(#leafBump)" opacity="0.36" style="mix-blend-mode:overlay"></path>

  <g opacity="0.9">
    <path d="M26 20 q3 -4 7 -2 q-2 4 -7 2Z" fill="#8fbf5e"></path>
    <path d="M46 16 q4 -3 7 0 q-3 4 -7 0Z" fill="#9fce6a"></path>
    <path d="M54 36 q4 -2 6 1 q-3 3 -6 -1Z" fill="#3d6329"></path>
    <path d="M18 40 q3 -3 6 -1 q-2 4 -6 1Z" fill="#3d6329"></path>
    <path d="M34 50 q3 -3 6 -1 q-2 3 -6 1Z" fill="#8fbf5e"></path>
    <path d="M50 50 q3 -2 5 0 q-2 3 -5 0Z" fill="#3d6329"></path>
    <path d="M24 30 q3 -3 5 -1 q-1 3 -5 1Z" fill="#4c7a34"></path>
  </g>

  <ellipse cx="34" cy="24" rx="16" ry="12" fill="#ffffff" opacity="0.14" filter="url(#softBlur)"></ellipse>
  <ellipse cx="52" cy="44" rx="8" ry="6" fill="#1c3016" opacity="0.3" filter="url(#softBlur)"></ellipse>
</svg>