<svg viewBox="0 0 88 76" xmlns="http://www.w3.org/2000/svg">
  <defs>
    <linearGradient id="tentFront" x1="0%" y1="0%" x2="100%" y2="0%">
      <stop offset="0%" stop-color="#8c9a75"></stop>
      <stop offset="100%" stop-color="#3f4d29"></stop>
    </linearGradient>
  </defs>
  <ellipse cx="44" cy="68" rx="38" ry="8" fill="#000" opacity="0.32"></ellipse>
  <path d="M44 8 L80 62 L8 62 Z" fill="url(#tentFront)" stroke="#22300f" stroke-width="2.5"></path>
  <g stroke="#22300f" stroke-width="1" opacity="0.45" fill="none">
    <path d="M44 8 L28 62"></path>
    <path d="M44 8 L60 62"></path>
    <path d="M44 8 L16 62"></path>
    <path d="M44 8 L72 62"></path>
  </g>
  <path d="M44 8 L44 62" stroke="#22300f" stroke-width="2"></path>
  <path d="M44 8 L64 62 L24 62 Z" fill="#3a4a24" opacity="0.7"></path>
  <path d="M44 8 L14 62 L20 62 Z" fill="#fff" opacity="0.08"></path>
  <path d="M36 62 L44 40 L52 62 Z" fill="#171310" stroke="#0c0a08" stroke-width="1"></path>
  <path d="M8 62 L-4 74" stroke="#3a2f1a" stroke-width="1.2" opacity="0.7"></path>
  <path d="M80 62 L92 74" stroke="#3a2f1a" stroke-width="1.2" opacity="0.7"></path>
  <circle cx="-4" cy="74" r="1.6" fill="#2a2214"></circle>
  <circle cx="92" cy="74" r="1.6" fill="#2a2214"></circle>
  <circle cx="44" cy="8" r="3" fill="#22300f"></circle>
</svg>