<svg viewBox="0 0 120 48" xmlns="http://www.w3.org/2000/svg">
  <defs>
    <linearGradient id="wallStone" x1="0%" y1="0%" x2="0%" y2="100%">
      <stop offset="0%" stop-color="#adada8"></stop>
      <stop offset="100%" stop-color="#61615b"></stop>
    </linearGradient>
  </defs>
  <ellipse cx="60" cy="42" rx="55" ry="6" fill="#000" opacity="0.3"></ellipse>
  <rect x="4" y="6" width="112" height="30" rx="3" fill="url(#wallStone)" stroke="#3a3a34" stroke-width="2.5"></rect>
  <g stroke="#3a3a34" stroke-width="1.5" opacity="0.7">
    <path d="M4 21 H116 M24 6 V21 M54 6 V21 M84 6 V21 M104 6 V21 M14 21 V36 M44 21 V36 M74 21 V36 M104 21 V36"></path>
  </g>
  <path d="M20 8 L26 6 L28 12 L22 13 Z" fill="#5c5c54" opacity="0.5"></path>
  <path d="M92 30 L98 28 L100 35 L94 36 Z" fill="#4a4a42" opacity="0.5"></path>
  <ellipse cx="60" cy="30" rx="10" ry="3" fill="#3a3a2e" opacity="0.25"></ellipse>
  <rect x="4" y="6" width="112" height="4" fill="#fff" opacity="0.15"></rect>
</svg>