<svg viewBox="0 0 80 80" xmlns="http://www.w3.org/2000/svg">
  <defs>
    <radialGradient id="foliage" cx="38%" cy="30%" r="80%">
      <stop offset="0%" stop-color="#899d7d"></stop>
      <stop offset="60%" stop-color="#3a5c26"></stop>
      <stop offset="100%" stop-color="#233717"></stop>
    </radialGradient>
    <radialGradient id="clump" cx="35%" cy="28%" r="85%">
      <stop offset="0%" stop-color="#89a178"></stop>
      <stop offset="100%" stop-color="#344d22"></stop>
    </radialGradient>
    <linearGradient id="bark" x1="0%" y1="0%" x2="100%" y2="0%">
      <stop offset="0%" stop-color="#6a6058"></stop>
      <stop offset="100%" stop-color="#1d140b"></stop>
    </linearGradient>
  </defs>
  <ellipse cx="40" cy="70" rx="24" ry="7" fill="#000" opacity="0.32"></ellipse>
  <circle cx="40" cy="38" r="30" fill="url(#foliage)" stroke="#182a10" stroke-width="2.5"></circle>
  <circle cx="26" cy="30" r="14" fill="url(#clump)" opacity="0.85"></circle>
  <circle cx="54" cy="30" r="14" fill="url(#clump)" opacity="0.85"></circle>
  <circle cx="40" cy="20" r="14" fill="url(#clump)" opacity="0.9"></circle>
  <circle cx="18" cy="42" r="10" fill="url(#clump)" opacity="0.7"></circle>
  <circle cx="62" cy="42" r="10" fill="url(#clump)" opacity="0.7"></circle>
  <ellipse cx="30" cy="14" rx="7" ry="4.5" fill="#fff" opacity="0.18"></ellipse>
  <g stroke="#274018" stroke-width="1" opacity="0.35" fill="none">
    <path d="M20 22 q4 -4 8 0"></path><path d="M50 18 q4 -4 8 0"></path><path d="M34 12 q4 -4 8 0"></path>
    <path d="M14 46 q4 -4 8 0"></path><path d="M56 46 q4 -4 8 0"></path>
  </g>
  <rect x="34" y="40" width="12" height="14" fill="url(#bark)"></rect>
  <circle cx="40" cy="40" r="7" fill="url(#bark)"></circle>
  <g stroke="#170f08" stroke-width="0.8" opacity="0.6">
    <path d="M35 38 V52 M40 38 V52 M45 38 V52"></path>
  </g>
</svg>