<svg viewBox="0 0 128 128" xmlns="http://www.w3.org/2000/svg">
  <defs>
    <radialGradient id="body" cx="38%" cy="32%" r="72%">
      <stop offset="0%" stop-color="#7889a6"></stop>
      <stop offset="55%" stop-color="#1e3a6a"></stop>
      <stop offset="100%" stop-color="#11223d"></stop>
    </radialGradient>
    <radialGradient id="helmet" cx="34%" cy="26%" r="78%">
      <stop offset="0%" stop-color="#8a9bb9"></stop>
      <stop offset="52%" stop-color="#2a4a80"></stop>
      <stop offset="100%" stop-color="#192c4d"></stop>
    </radialGradient>
    <radialGradient id="arm" cx="32%" cy="28%" r="85%">
      <stop offset="0%" stop-color="#7182a1"></stop>
      <stop offset="100%" stop-color="#172948"></stop>
    </radialGradient>
    <radialGradient id="pack" cx="38%" cy="30%" r="75%">
      <stop offset="0%" stop-color="#4c5362"></stop>
      <stop offset="100%" stop-color="#0b1220"></stop>
    </radialGradient>
    <linearGradient id="gun" x1="0%" y1="0%" x2="100%" y2="0%">
      <stop offset="0%" stop-color="#5a5a5a"></stop>
      <stop offset="45%" stop-color="#232323"></stop>
      <stop offset="100%" stop-color="#050505"></stop>
    </linearGradient>
    <radialGradient id="ao" cx="50%" cy="55%" r="52%">
      <stop offset="55%" stop-color="#000" stop-opacity="0"></stop>
      <stop offset="100%" stop-color="#000" stop-opacity="0.38"></stop>
    </radialGradient>
  </defs>

  <ellipse cx="64" cy="102" rx="34" ry="10" fill="#000" opacity="0.3"></ellipse>
  <ellipse cx="64" cy="78" rx="22" ry="18" fill="url(#pack)"></ellipse>
  <path d="M48 68 Q64 78 80 68" stroke="#000" stroke-width="2" opacity="0.2" fill="none"></path>

  <circle cx="64" cy="64" r="34" fill="url(#body)" stroke="#0a1526" stroke-width="2.5"></circle>
  <circle cx="64" cy="64" r="34" fill="url(#ao)"></circle>
  <path d="M40 50 Q64 60 88 50" stroke="#0a1526" stroke-width="3" fill="none" opacity="0.55"></path>
  <circle cx="64" cy="64" r="6" fill="#20242a" stroke="#0a0d10" stroke-width="1.5"></circle>
  <ellipse cx="61" cy="61" rx="2" ry="1.3" fill="#fff" opacity="0.5"></ellipse>

  <circle cx="64" cy="46" r="20" fill="url(#helmet)" stroke="#0a1526" stroke-width="2.5"></circle>
  <path d="M46 42 A18 18 0 0 1 82 42" fill="#0a1526" opacity="0.3"></path>
  <ellipse cx="57" cy="35" rx="7" ry="4" fill="#fff" opacity="0.4"></ellipse>

  <ellipse cx="64" cy="48" rx="9" ry="4" fill="#100a08" opacity="0.65"></ellipse>
  <ellipse cx="61" cy="47" rx="2" ry="1" fill="#fff" opacity="0.45"></ellipse>

  <rect x="60" y="94" width="8" height="30" rx="3" fill="url(#gun)" stroke="#050505" stroke-width="1.5"></rect>
  <rect x="58" y="88" width="12" height="10" rx="2" fill="#3a3a3a"></rect>
  <rect x="61" y="96" width="2" height="24" fill="#8a8a8a" opacity="0.5"></rect>

  <circle cx="38" cy="66" r="9" fill="url(#arm)" stroke="#0a1526" stroke-width="1.5"></circle>
  <circle cx="90" cy="66" r="9" fill="url(#arm)" stroke="#0a1526" stroke-width="1.5"></circle>
  <ellipse cx="35" cy="63" rx="2" ry="1.2" fill="#fff" opacity="0.4"></ellipse>
  <ellipse cx="87" cy="63" rx="2" ry="1.2" fill="#fff" opacity="0.4"></ellipse>

  <rect x="44" y="86" width="8" height="18" rx="2" fill="#20242a"></rect>
  <rect x="76" y="86" width="8" height="18" rx="2" fill="#20242a"></rect>
  <circle cx="64" cy="64" r="34" fill="none" stroke="#7fa8e0" stroke-width="1.5" opacity="0.42"></circle>
  
</svg>