<svg viewBox="0 0 128 128" xmlns="http://www.w3.org/2000/svg">
  <defs><filter id="fxBlur" x="-60%" y="-60%" width="220%" height="220%"><feGaussianBlur stdDeviation="1.6"></feGaussianBlur></filter>
    <radialGradient id="bossBody" cx="36%" cy="30%" r="75%">
      <stop offset="0%" stop-color="#a69595"></stop>
      <stop offset="55%" stop-color="#3a1414"></stop>
      <stop offset="100%" stop-color="#230c0c"></stop>
    </radialGradient>
    <radialGradient id="bossHead" cx="34%" cy="26%" r="80%">
      <stop offset="0%" stop-color="#ae9898"></stop>
      <stop offset="55%" stop-color="#4a1a1a"></stop>
      <stop offset="100%" stop-color="#2c1010"></stop>
    </radialGradient>
    <radialGradient id="bossArm" cx="32%" cy="28%" r="85%">
      <stop offset="0%" stop-color="#826f6f"></stop>
      <stop offset="100%" stop-color="#200b0b"></stop>
    </radialGradient>
    <radialGradient id="eyeGlow" cx="50%" cy="45%" r="60%">
      <stop offset="0%" stop-color="#ffb0a8"></stop>
      <stop offset="45%" stop-color="#ff3b3b"></stop>
      <stop offset="100%" stop-color="#8a0f0f"></stop>
    </radialGradient>
    <radialGradient id="ao" cx="50%" cy="55%" r="52%">
      <stop offset="55%" stop-color="#000" stop-opacity="0"></stop>
      <stop offset="100%" stop-color="#000" stop-opacity="0.42"></stop>
    </radialGradient>
    <linearGradient id="gold" x1="0%" y1="0%" x2="100%" y2="100%">
      <stop offset="0%" stop-color="#fff2b0"></stop>
      <stop offset="50%" stop-color="#d4af37"></stop>
      <stop offset="100%" stop-color="#8a6a1a"></stop>
    </linearGradient>
    <linearGradient id="g_bl" x1="0%" y1="0%" x2="100%" y2="0%">
      <stop offset="0%" stop-color="#9f9f9f"></stop>
      <stop offset="42%" stop-color="#2a2a2a"></stop>
      <stop offset="100%" stop-color="#131313"></stop>
    </linearGradient>
    <linearGradient id="g_body" x1="0%" y1="0%" x2="100%" y2="0%">
      <stop offset="0%" stop-color="#929292"></stop>
      <stop offset="45%" stop-color="#4a4a4a"></stop>
      <stop offset="100%" stop-color="#2c2c2c"></stop>
    </linearGradient>
    <linearGradient id="g_grip" x1="0%" y1="0%" x2="100%" y2="0%">
      <stop offset="0%" stop-color="#7f7f7f"></stop>
      <stop offset="45%" stop-color="#2a2a2a"></stop>
      <stop offset="100%" stop-color="#191919"></stop>
    </linearGradient>
  </defs>
  <ellipse cx="64" cy="104" rx="42" ry="12" fill="#000" opacity="0.35" filter="url(#fxBlur)"></ellipse>
  <ellipse cx="64" cy="78" rx="26" ry="21" fill="#1c0d0d"></ellipse>
  <ellipse cx="64" cy="78" rx="26" ry="21" fill="url(#ao)"></ellipse>
  <circle cx="64" cy="64" r="38" fill="url(#bossBody)"></circle>
  <circle cx="64" cy="64" r="38" fill="url(#ao)"></circle>
  <circle cx="64" cy="44" r="22" fill="url(#bossHead)"></circle>
  <ellipse cx="55" cy="34" rx="8" ry="5" fill="#fff" opacity="0.22"></ellipse>
  
  <path d="M48 30 L56 18 L64 28 L72 18 L80 30 L72 26 L64 34 L56 26 Z" fill="url(#gold)"></path>
  <ellipse cx="64" cy="46" rx="10" ry="4.5" fill="#100404" opacity="0.75"></ellipse>
  
  <circle cx="56" cy="44" r="3" fill="url(#eyeGlow)"></circle>
  <circle cx="72" cy="44" r="3" fill="url(#eyeGlow)"></circle>
  <circle cx="55" cy="43" r="1" fill="#fff" opacity="0.8"></circle>
  <circle cx="71" cy="43" r="1" fill="#fff" opacity="0.8"></circle>

  <g transform="translate(64,98) rotate(180) scale(0.78) translate(-22,-89)">
    <g fill="url(#g_bl)">
      <rect x="8" y="0" width="5" height="44" rx="2"></rect>
      <rect x="15" y="0" width="5" height="44" rx="2"></rect>
      <rect x="22" y="0" width="5" height="44" rx="2"></rect>
      <rect x="29" y="0" width="5" height="44" rx="2"></rect>
    </g>
    <rect x="6" y="2" width="30" height="4" rx="2" fill="#1a1a1a"></rect>
    <circle cx="22" cy="46" r="12" fill="url(#g_bl)"></circle>
    <circle cx="19" cy="42" r="2.6" fill="#fff" opacity="0.25"></circle>
    <rect x="10" y="56" width="24" height="24" rx="3" fill="url(#g_body)"></rect>
    <rect x="12" y="60" width="20" height="2" fill="#1a1a1a" opacity="0.6"></rect>
    <rect x="12" y="66" width="20" height="2" fill="#1a1a1a" opacity="0.6"></rect>
    <rect x="34" y="58" width="12" height="16" rx="2" fill="#3a3a3a"></rect>
    <path d="M34 66 Q28 66 24 62" stroke="#5a5a5a" stroke-width="2" fill="none"></path>
    <rect x="16" y="80" width="12" height="18" rx="2" fill="url(#g_grip)"></rect>
  </g>

  <circle cx="30" cy="66" r="11" fill="url(#bossArm)"></circle>
  <circle cx="98" cy="66" r="11" fill="url(#bossArm)"></circle>
  <circle cx="64" cy="64" r="38" fill="none" stroke="#ff8a6a" stroke-width="5.5" opacity="0.12" filter="url(#fxBlur)"></circle>
</svg>