<svg viewBox="0 0 128 128" xmlns="http://www.w3.org/2000/svg">
  <defs><filter id="fxBlur" x="-60%" y="-60%" width="220%" height="220%"><feGaussianBlur stdDeviation="1.6"></feGaussianBlur></filter>
    <linearGradient id="steel" x1="0%" y1="0%" x2="100%" y2="100%">
      <stop offset="0%" stop-color="#9aa0a4"></stop>
      <stop offset="50%" stop-color="#6d7276"></stop>
      <stop offset="100%" stop-color="#3a3d40"></stop>
    </linearGradient>
    <radialGradient id="dome" cx="35%" cy="30%" r="80%">
      <stop offset="0%" stop-color="#8a9094"></stop>
      <stop offset="55%" stop-color="#54585c"></stop>
      <stop offset="100%" stop-color="#2a2c2e"></stop>
    </radialGradient>
    <radialGradient id="lens" cx="40%" cy="35%" r="65%">
      <stop offset="0%" stop-color="#ff7a6a"></stop>
      <stop offset="60%" stop-color="#c0392b"></stop>
      <stop offset="100%" stop-color="#6a1a12"></stop>
    </radialGradient>
    <linearGradient id="barrel" x1="0%" y1="0%" x2="100%" y2="0%">
      <stop offset="0%" stop-color="#4a4d50"></stop>
      <stop offset="50%" stop-color="#1c1e20"></stop>
      <stop offset="100%" stop-color="#050606"></stop>
    </linearGradient>
    <radialGradient id="ao" cx="50%" cy="55%" r="55%">
      <stop offset="55%" stop-color="#000" stop-opacity="0"></stop>
      <stop offset="100%" stop-color="#000" stop-opacity="0.4"></stop>
    </radialGradient>
  </defs>
  <ellipse cx="64" cy="100" rx="36" ry="10" fill="#000" opacity="0.32" filter="url(#fxBlur)"></ellipse>
  <rect x="30" y="86" width="68" height="16" rx="4" fill="url(#steel)"></rect>
  <rect x="30" y="86" width="68" height="4" rx="2" fill="#fff" opacity="0.15"></rect>
  <circle cx="40" cy="94" r="5" fill="#232527"></circle>
  <circle cx="88" cy="94" r="5" fill="#232527"></circle>
  <circle cx="64" cy="64" r="32" fill="url(#steel)"></circle>
  <circle cx="64" cy="64" r="32" fill="url(#ao)"></circle>
  <ellipse cx="52" cy="50" rx="14" ry="9" fill="#fff" opacity="0.14"></ellipse>
  <path d="M40 46 L88 46" stroke="#2a2c2e" stroke-width="3" opacity="0.7"></path>
  <path d="M36 64 L92 64" stroke="#2a2c2e" stroke-width="3" opacity="0.7"></path>
  <path d="M40 82 L88 82" stroke="#2a2c2e" stroke-width="3" opacity="0.7"></path>
  <circle cx="64" cy="64" r="14" fill="url(#dome)"></circle>
  <circle cx="64" cy="64" r="5" fill="url(#lens)"></circle>
  <circle cx="62" cy="62" r="1.4" fill="#fff" opacity="0.8"></circle>
  <rect x="56" y="16" width="16" height="34" rx="2" fill="url(#barrel)"></rect>
  <rect x="57" y="18" width="2" height="28" fill="#8a8a8a" opacity="0.4"></rect>
  <circle cx="59" cy="18" r="2.4" fill="#050606"></circle>
  <circle cx="64" cy="16" r="2.4" fill="#050606"></circle>
  <circle cx="69" cy="18" r="2.4" fill="#050606"></circle>
  <rect x="52" y="46" width="24" height="12" rx="3" fill="url(#steel)"></rect>
  <rect x="30" y="56" width="12" height="16" rx="2" fill="url(#steel)"></rect>
  <rect x="86" y="56" width="12" height="16" rx="2" fill="url(#steel)"></rect>
</svg>