<svg viewBox="0 0 128 128" xmlns="http://www.w3.org/2000/svg">
  <defs><filter id="fxBlur" x="-60%" y="-60%" width="220%" height="220%"><feGaussianBlur stdDeviation="1.6"></feGaussianBlur></filter>
    <radialGradient id="body" cx="38%" cy="32%" r="72%">
      <stop offset="0%" stop-color="#a87974"></stop>
      <stop offset="55%" stop-color="#6e1f18"></stop>
      <stop offset="100%" stop-color="#40120e"></stop>
    </radialGradient>
    <radialGradient id="helmet" cx="34%" cy="26%" r="78%">
      <stop offset="0%" stop-color="#bf8a84"></stop>
      <stop offset="52%" stop-color="#8a2a20"></stop>
      <stop offset="100%" stop-color="#531913"></stop>
    </radialGradient>
    <radialGradient id="arm" cx="32%" cy="28%" r="85%">
      <stop offset="0%" stop-color="#a9716b"></stop>
      <stop offset="100%" stop-color="#4f1812"></stop>
    </radialGradient>
    <radialGradient id="pack" cx="38%" cy="30%" r="75%">
      <stop offset="0%" stop-color="#624d4b"></stop>
      <stop offset="100%" stop-color="#200d0b"></stop>
    </radialGradient>
    <linearGradient id="gun" x1="0%" y1="0%" x2="100%" y2="0%">
      <stop offset="0%" stop-color="#5a5a5a"></stop>
      <stop offset="45%" stop-color="#232323"></stop>
      <stop offset="100%" stop-color="#050505"></stop>
    </linearGradient>
    <radialGradient id="ao" cx="50%" cy="55%" r="52%">
      <stop offset="55%" stop-color="#000" stop-opacity="0"></stop>
      <stop offset="100%" stop-color="#000" stop-opacity="0.38"></stop>
    </radialGradient>
    <linearGradient id="g_tube" x1="0%" y1="0%" x2="100%" y2="0%">
      <stop offset="0%" stop-color="#92927f"></stop>
      <stop offset="45%" stop-color="#4a4a2a"></stop>
      <stop offset="100%" stop-color="#2c2c19"></stop>
    </linearGradient>
    <linearGradient id="g_body" x1="0%" y1="0%" x2="100%" y2="0%">
      <stop offset="0%" stop-color="#9c9c89"></stop>
      <stop offset="45%" stop-color="#5a5a3a"></stop>
      <stop offset="100%" stop-color="#363623"></stop>
    </linearGradient>
    <linearGradient id="g_grip" x1="0%" y1="0%" x2="100%" y2="0%">
      <stop offset="0%" stop-color="#89897f"></stop>
      <stop offset="45%" stop-color="#3a3a2a"></stop>
      <stop offset="100%" stop-color="#232319"></stop>
    </linearGradient>
    <linearGradient id="g_grip2" x1="0%" y1="0%" x2="100%" y2="0%">
      <stop offset="0%" stop-color="#7f7f76"></stop>
      <stop offset="45%" stop-color="#2a2a1a"></stop>
      <stop offset="100%" stop-color="#191910"></stop>
    </linearGradient>
  </defs>

  <ellipse cx="64" cy="102" rx="34" ry="10" fill="#000" opacity="0.3" filter="url(#fxBlur)"></ellipse>
  <ellipse cx="64" cy="78" rx="22" ry="18" fill="url(#pack)"></ellipse>
  <path d="M48 68 Q64 78 80 68" stroke="#000" stroke-width="2" opacity="0.2" fill="none"></path>

  <circle cx="64" cy="64" r="34" fill="url(#body)"></circle>
  <circle cx="64" cy="64" r="34" fill="url(#ao)"></circle>
  <path d="M40 50 Q64 60 88 50" stroke="#2a0a08" stroke-width="1.8" fill="none" opacity="0.25" stroke-linecap="round"></path>
  <circle cx="64" cy="64" r="6" fill="#241210"></circle>
  <ellipse cx="61" cy="61" rx="2" ry="1.3" fill="#fff" opacity="0.5"></ellipse>

  <circle cx="64" cy="46" r="20" fill="url(#helmet)"></circle>
  <path d="M46 42 A18 18 0 0 1 82 42" fill="#2a0a08" opacity="0.3"></path>
  <ellipse cx="57" cy="35" rx="7" ry="4" fill="#fff" opacity="0.4"></ellipse>

  <ellipse cx="64" cy="48" rx="9" ry="4" fill="#100a08" opacity="0.65"></ellipse>
  <ellipse cx="61" cy="47" rx="2" ry="1" fill="#fff" opacity="0.45"></ellipse>

  <circle cx="38" cy="66" r="9" fill="url(#arm)"></circle>
  <circle cx="90" cy="66" r="9" fill="url(#arm)"></circle>
  <ellipse cx="35" cy="63" rx="2" ry="1.2" fill="#fff" opacity="0.4"></ellipse>
  <ellipse cx="87" cy="63" rx="2" ry="1.2" fill="#fff" opacity="0.4"></ellipse>

  <circle cx="64" cy="64" r="34" fill="none" stroke="#e08a7a" stroke-width="5.5" opacity="0.17" filter="url(#fxBlur)"></circle>
  
</svg>