<svg viewBox="0 0 128 128" xmlns="http://www.w3.org/2000/svg">
  <defs><filter id="fxBlur" x="-60%" y="-60%" width="220%" height="220%"><feGaussianBlur stdDeviation="1.6"></feGaussianBlur></filter>
    <radialGradient id="body" cx="38%" cy="32%" r="72%">
      <stop offset="0%" stop-color="#899c89"></stop>
      <stop offset="55%" stop-color="#3a5a3a"></stop>
      <stop offset="100%" stop-color="#223422"></stop>
    </radialGradient>
    <radialGradient id="helmet" cx="34%" cy="26%" r="78%">
      <stop offset="0%" stop-color="#9bad9b"></stop>
      <stop offset="52%" stop-color="#4a6a4a"></stop>
      <stop offset="100%" stop-color="#2c402c"></stop>
    </radialGradient>
    <radialGradient id="arm" cx="32%" cy="28%" r="85%">
      <stop offset="0%" stop-color="#7b947b"></stop>
      <stop offset="100%" stop-color="#223b22"></stop>
    </radialGradient>
    <radialGradient id="pack" cx="38%" cy="30%" r="75%">
      <stop offset="0%" stop-color="#555f55"></stop>
      <stop offset="100%" stop-color="#141d14"></stop>
    </radialGradient>
    <linearGradient id="gun" x1="0%" y1="0%" x2="100%" y2="0%">
      <stop offset="0%" stop-color="#5a5a5a"></stop>
      <stop offset="45%" stop-color="#232323"></stop>
      <stop offset="100%" stop-color="#050505"></stop>
    </linearGradient>
    <radialGradient id="ao" cx="50%" cy="55%" r="52%">
      <stop offset="55%" stop-color="#000" stop-opacity="0"></stop>
      <stop offset="100%" stop-color="#000" stop-opacity="0.38"></stop>
    </radialGradient>
    <linearGradient id="g_stock" x1="0%" y1="0%" x2="100%" y2="0%">
      <stop offset="0%" stop-color="#899289"></stop>
      <stop offset="45%" stop-color="#3a4a3a"></stop>
      <stop offset="100%" stop-color="#232c23"></stop>
    </linearGradient>
    <linearGradient id="g_scope" x1="0%" y1="0%" x2="100%" y2="0%">
      <stop offset="0%" stop-color="#7f7f7f"></stop>
      <stop offset="45%" stop-color="#2a2a2a"></stop>
      <stop offset="100%" stop-color="#191919"></stop>
    </linearGradient>
  </defs>

  <ellipse cx="64" cy="102" rx="34" ry="10" fill="#000" opacity="0.3" filter="url(#fxBlur)"></ellipse>
  <ellipse cx="64" cy="78" rx="22" ry="18" fill="url(#pack)"></ellipse>
  <path d="M48 68 Q64 78 80 68" stroke="#000" stroke-width="2" opacity="0.2" fill="none"></path>

  <circle cx="64" cy="64" r="34" fill="url(#body)"></circle>
  <circle cx="64" cy="64" r="34" fill="url(#ao)"></circle>
  <path d="M40 50 Q64 60 88 50" stroke="#152315" stroke-width="1.8" fill="none" opacity="0.25" stroke-linecap="round"></path>
  <circle cx="64" cy="64" r="6" fill="#1e1e1e"></circle>
  <ellipse cx="61" cy="61" rx="2" ry="1.3" fill="#fff" opacity="0.5"></ellipse>

  <circle cx="64" cy="46" r="20" fill="url(#helmet)"></circle>
  <path d="M46 42 A18 18 0 0 1 82 42" fill="#0f1c0f" opacity="0.3"></path>
  <ellipse cx="57" cy="35" rx="7" ry="4" fill="#fff" opacity="0.4"></ellipse>

  <ellipse cx="64" cy="48" rx="9" ry="4" fill="#100a08" opacity="0.65"></ellipse>
  <ellipse cx="61" cy="47" rx="2" ry="1" fill="#fff" opacity="0.45"></ellipse>

  <g transform="translate(64,96) rotate(180) scale(0.44) translate(-14,-67)">
    <rect x="12" y="0" width="4" height="62" rx="1.2" fill="url(#gun)"></rect>
    <rect x="11" y="0" width="6" height="6" fill="#1a1a1a"></rect>
    <path d="M13 40 L5 54 M13 40 L21 46" stroke="#1a1a1a" stroke-width="1.6" fill="none"></path>
    <rect x="4" y="18" width="18" height="9" rx="3" fill="url(#g_scope)"></rect>
    <circle cx="6.5" cy="22.5" r="3.6" fill="#0a0a0a"></circle>
    <circle cx="6.5" cy="22.5" r="2.2" fill="#5ac8ff" opacity="0.65"></circle>
    <circle cx="19.5" cy="22.5" r="3.2" fill="#0a0a0a"></circle>
    <circle cx="19.5" cy="22.5" r="1.8" fill="#5ac8ff" opacity="0.55"></circle>
    <rect x="4" y="16" width="18" height="2" fill="#0a0a0a"></rect>
    <rect x="4" y="27" width="18" height="2" fill="#0a0a0a"></rect>
    <path d="M16 60 L24 64 L22 67 L15 63 Z" fill="#2a2a2a"></path>
    <rect x="8" y="62" width="11" height="36" rx="2" fill="url(#g_stock)"></rect>
    <path d="M9 90 Q14 100 9 108" stroke="#0a1208" stroke-width="1.4" fill="none"></path>
    <rect x="13" y="92" width="7" height="26" rx="2" fill="#222"></rect>
    <rect x="4" y="100" width="7" height="24" rx="2" fill="#2a2a2a"></rect>
  </g>

  <circle cx="38" cy="66" r="9" fill="url(#arm)"></circle>
  <circle cx="90" cy="66" r="9" fill="url(#arm)"></circle>
  <ellipse cx="35" cy="63" rx="2" ry="1.2" fill="#fff" opacity="0.4"></ellipse>
  <ellipse cx="87" cy="63" rx="2" ry="1.2" fill="#fff" opacity="0.4"></ellipse>

  <circle cx="64" cy="64" r="34" fill="none" stroke="#8ac48a" stroke-width="5.5" opacity="0.17" filter="url(#fxBlur)"></circle>
  
</svg>