<svg viewBox="0 0 128 128" xmlns="http://www.w3.org/2000/svg">
  <defs><filter id="fxBlur" x="-60%" y="-60%" width="220%" height="220%"><feGaussianBlur stdDeviation="1.6"></feGaussianBlur></filter>
    <radialGradient id="body" cx="38%" cy="32%" r="72%">
      <stop offset="0%" stop-color="#af9683"></stop>
      <stop offset="55%" stop-color="#7a5030"></stop>
      <stop offset="100%" stop-color="#472e1c"></stop>
    </radialGradient>
    <radialGradient id="helmet" cx="34%" cy="26%" r="78%">
      <stop offset="0%" stop-color="#bfa892"></stop>
      <stop offset="52%" stop-color="#8a6038"></stop>
      <stop offset="100%" stop-color="#533a22"></stop>
    </radialGradient>
    <radialGradient id="arm" cx="32%" cy="28%" r="85%">
      <stop offset="0%" stop-color="#9c8573"></stop>
      <stop offset="100%" stop-color="#422c1a"></stop>
    </radialGradient>
    <radialGradient id="pack" cx="38%" cy="30%" r="75%">
      <stop offset="0%" stop-color="#5f554c"></stop>
      <stop offset="100%" stop-color="#1d140b"></stop>
    </radialGradient>
    <linearGradient id="gun" x1="0%" y1="0%" x2="100%" y2="0%">
      <stop offset="0%" stop-color="#5a5a5a"></stop>
      <stop offset="45%" stop-color="#232323"></stop>
      <stop offset="100%" stop-color="#050505"></stop>
    </linearGradient>
    <radialGradient id="ao" cx="50%" cy="55%" r="52%">
      <stop offset="55%" stop-color="#000" stop-opacity="0"></stop>
      <stop offset="100%" stop-color="#000" stop-opacity="0.38"></stop>
    </radialGradient>
    <linearGradient id="g_wood" x1="0%" y1="0%" x2="100%" y2="0%">
      <stop offset="0%" stop-color="#a68e7a"></stop>
      <stop offset="45%" stop-color="#6a4322"></stop>
      <stop offset="100%" stop-color="#402814"></stop>
    </linearGradient>
    <linearGradient id="g_pump" x1="0%" y1="0%" x2="100%" y2="0%">
      <stop offset="0%" stop-color="#7f7973"></stop>
      <stop offset="45%" stop-color="#2a2016"></stop>
      <stop offset="100%" stop-color="#19130d"></stop>
    </linearGradient>
  </defs>

  <ellipse cx="64" cy="102" rx="34" ry="10" fill="#000" opacity="0.3" filter="url(#fxBlur)"></ellipse>
  <ellipse cx="64" cy="78" rx="22" ry="18" fill="url(#pack)"></ellipse>
  <path d="M48 68 Q64 78 80 68" stroke="#000" stroke-width="2" opacity="0.2" fill="none"></path>

  <circle cx="64" cy="64" r="34" fill="url(#body)"></circle>
  <circle cx="64" cy="64" r="34" fill="url(#ao)"></circle>
  <path d="M40 50 Q64 60 88 50" stroke="#301f10" stroke-width="1.8" fill="none" opacity="0.25" stroke-linecap="round"></path>
  <circle cx="64" cy="64" r="6" fill="#241a10"></circle>
  <ellipse cx="61" cy="61" rx="2" ry="1.3" fill="#fff" opacity="0.5"></ellipse>

  <circle cx="64" cy="46" r="20" fill="url(#helmet)"></circle>
  <path d="M46 42 A18 18 0 0 1 82 42" fill="#2c1c0c" opacity="0.3"></path>
  <ellipse cx="57" cy="35" rx="7" ry="4" fill="#fff" opacity="0.4"></ellipse>

  <ellipse cx="64" cy="48" rx="9" ry="4" fill="#100a08" opacity="0.65"></ellipse>
  <ellipse cx="61" cy="47" rx="2" ry="1" fill="#fff" opacity="0.45"></ellipse>

  <g transform="translate(64,94) rotate(180) scale(0.52) translate(-15,-55)">
    <circle cx="16" cy="3" r="3.4" fill="#0a0a0a"></circle>
    <rect x="13" y="2" width="6" height="46" rx="2" fill="url(#gun)"></rect>
    <rect x="8" y="14" width="4" height="30" rx="2" fill="#3a3a3a"></rect>
    <rect x="6" y="42" width="14" height="14" rx="3" fill="url(#g_pump)"></rect>
    <rect x="10" y="56" width="14" height="20" rx="2" fill="url(#g_wood)"></rect>
    <circle cx="17" cy="64" r="1.6" fill="#0a0a0a"></circle>
    <path d="M12 76 Q9 82 12 88" stroke="#170f08" stroke-width="1.6" fill="none"></path>
    <rect x="18" y="76" width="9" height="24" rx="2" fill="url(#g_wood)"></rect>
    <rect x="5" y="84" width="8" height="22" rx="2" fill="url(#g_wood)"></rect>
  </g>

  <circle cx="38" cy="66" r="9" fill="url(#arm)"></circle>
  <circle cx="90" cy="66" r="9" fill="url(#arm)"></circle>
  <ellipse cx="35" cy="63" rx="2" ry="1.2" fill="#fff" opacity="0.4"></ellipse>
  <ellipse cx="87" cy="63" rx="2" ry="1.2" fill="#fff" opacity="0.4"></ellipse>

  <circle cx="64" cy="64" r="34" fill="none" stroke="#d0a860" stroke-width="5.5" opacity="0.17" filter="url(#fxBlur)"></circle>
  
</svg>