<svg viewBox="0 0 128 128" xmlns="http://www.w3.org/2000/svg">
  <defs><filter id="fxBlur" x="-60%" y="-60%" width="220%" height="220%"><feGaussianBlur stdDeviation="1.6"></feGaussianBlur></filter>
    <radialGradient id="body" cx="38%" cy="32%" r="72%">
      <stop offset="0%" stop-color="#c49c83"></stop>
      <stop offset="55%" stop-color="#9c5a30"></stop>
      <stop offset="100%" stop-color="#5a341c"></stop>
    </radialGradient>
    <radialGradient id="helmet" cx="34%" cy="26%" r="78%">
      <stop offset="0%" stop-color="#d4ad93"></stop>
      <stop offset="52%" stop-color="#b06a3a"></stop>
      <stop offset="100%" stop-color="#6a4023"></stop>
    </radialGradient>
    <radialGradient id="arm" cx="32%" cy="28%" r="85%">
      <stop offset="0%" stop-color="#b38d73"></stop>
      <stop offset="100%" stop-color="#5a341a"></stop>
    </radialGradient>
    <radialGradient id="pack" cx="38%" cy="30%" r="75%">
      <stop offset="0%" stop-color="#6b5b50"></stop>
      <stop offset="100%" stop-color="#29190f"></stop>
    </radialGradient>
    <linearGradient id="gun" x1="0%" y1="0%" x2="100%" y2="0%">
      <stop offset="0%" stop-color="#5a5a5a"></stop>
      <stop offset="45%" stop-color="#232323"></stop>
      <stop offset="100%" stop-color="#050505"></stop>
    </linearGradient>
    <radialGradient id="ao" cx="50%" cy="55%" r="52%">
      <stop offset="55%" stop-color="#000" stop-opacity="0"></stop>
      <stop offset="100%" stop-color="#000" stop-opacity="0.38"></stop>
    </radialGradient>
    <linearGradient id="g_wood" x1="0%" y1="0%" x2="100%" y2="0%">
      <stop offset="0%" stop-color="#b99279"></stop>
      <stop offset="45%" stop-color="#8a4a20"></stop>
      <stop offset="100%" stop-color="#532c13"></stop>
    </linearGradient>
    <linearGradient id="g_grip" x1="0%" y1="0%" x2="100%" y2="0%">
      <stop offset="0%" stop-color="#897f76"></stop>
      <stop offset="45%" stop-color="#3a2a1a"></stop>
      <stop offset="100%" stop-color="#231910"></stop>
    </linearGradient>
  </defs>

  <ellipse cx="64" cy="102" rx="34" ry="10" fill="#000" opacity="0.3" filter="url(#fxBlur)"></ellipse>
  <ellipse cx="64" cy="78" rx="22" ry="18" fill="url(#pack)"></ellipse>
  <path d="M48 68 Q64 78 80 68" stroke="#000" stroke-width="2" opacity="0.2" fill="none"></path>

  <circle cx="64" cy="64" r="34" fill="url(#body)"></circle>
  <circle cx="64" cy="64" r="34" fill="url(#ao)"></circle>
  <path d="M40 50 Q64 60 88 50" stroke="#402410" stroke-width="1.8" fill="none" opacity="0.25" stroke-linecap="round"></path>
  <circle cx="64" cy="64" r="6" fill="#2b2b2b"></circle>
  <ellipse cx="61" cy="61" rx="2" ry="1.3" fill="#fff" opacity="0.5"></ellipse>

  <circle cx="64" cy="46" r="20" fill="url(#helmet)"></circle>
  <path d="M46 42 A18 18 0 0 1 82 42" fill="#3a1c0c" opacity="0.3"></path>
  <ellipse cx="57" cy="35" rx="7" ry="4" fill="#fff" opacity="0.4"></ellipse>

  <ellipse cx="64" cy="48" rx="9" ry="4" fill="#100a08" opacity="0.65"></ellipse>
  <ellipse cx="61" cy="47" rx="2" ry="1" fill="#fff" opacity="0.45"></ellipse>

  <g transform="translate(64,94) rotate(180) scale(0.5) translate(-8.5,-77)">
    <rect x="16" y="0" width="6" height="6" fill="url(#gun)"></rect>
    <rect x="14" y="6" width="10" height="4" fill="#1a1a1a"></rect>
    <rect x="15" y="10" width="8" height="38" rx="1.5" fill="url(#gun)"></rect>
    <rect x="12" y="16" width="4" height="26" rx="1.5" fill="#3a3a3a"></rect>
    <rect x="9" y="42" width="14" height="16" rx="2" fill="url(#g_wood)"></rect>
    <rect x="12" y="46" width="8" height="6" fill="#1a1a1a"></rect>
    <path d="M22 58 Q34 66 30 92 Q28 98 20 96 L18 60 Z" fill="url(#g_wood)"></path>
    <path d="M9 58 L24 58 L22 84 L11 92 Z" fill="url(#g_wood)"></path>
    <rect x="4" y="66" width="9" height="22" rx="2" fill="url(#g_grip)"></rect>
    <path d="M13 70 Q18 78 13 84" stroke="#1a1a1a" stroke-width="2" fill="none"></path>
    <rect x="16" y="42" width="7" height="4" fill="#0a0a0a"></rect>
    <ellipse cx="17" cy="20" rx="1.4" ry="10" fill="#fff" opacity="0.12"></ellipse>
  </g>

  <circle cx="38" cy="66" r="9" fill="url(#arm)"></circle>
  <circle cx="90" cy="66" r="9" fill="url(#arm)"></circle>
  <ellipse cx="35" cy="63" rx="2" ry="1.2" fill="#fff" opacity="0.4"></ellipse>
  <ellipse cx="87" cy="63" rx="2" ry="1.2" fill="#fff" opacity="0.4"></ellipse>

  <path d="M70 108 Q80 114 76 128" stroke="#2b2b2b" stroke-width="4" fill="none"></path>
  <circle cx="64" cy="64" r="34" fill="none" stroke="#e0a870" stroke-width="5.5" opacity="0.17" filter="url(#fxBlur)"></circle>
  
</svg>