<svg viewBox="0 0 128 128" xmlns="http://www.w3.org/2000/svg">
  <defs><filter id="fxBlur" x="-60%" y="-60%" width="220%" height="220%"><feGaussianBlur stdDeviation="1.6"></feGaussianBlur></filter>
    <radialGradient id="body" cx="38%" cy="32%" r="72%">
      <stop offset="0%" stop-color="#b98989"></stop>
      <stop offset="55%" stop-color="#8a3a3a"></stop>
      <stop offset="100%" stop-color="#502222"></stop>
    </radialGradient>
    <radialGradient id="helmet" cx="34%" cy="26%" r="78%">
      <stop offset="0%" stop-color="#c99b99"></stop>
      <stop offset="52%" stop-color="#9c4a45"></stop>
      <stop offset="100%" stop-color="#5e2c29"></stop>
    </radialGradient>
    <radialGradient id="arm" cx="32%" cy="28%" r="85%">
      <stop offset="0%" stop-color="#a97a7a"></stop>
      <stop offset="100%" stop-color="#4f2121"></stop>
    </radialGradient>
    <radialGradient id="pack" cx="38%" cy="30%" r="75%">
      <stop offset="0%" stop-color="#6b5555"></stop>
      <stop offset="100%" stop-color="#291414"></stop>
    </radialGradient>
    <linearGradient id="gun" x1="0%" y1="0%" x2="100%" y2="0%">
      <stop offset="0%" stop-color="#5a5a5a"></stop>
      <stop offset="45%" stop-color="#232323"></stop>
      <stop offset="100%" stop-color="#050505"></stop>
    </linearGradient>
    <radialGradient id="ao" cx="50%" cy="55%" r="52%">
      <stop offset="55%" stop-color="#000" stop-opacity="0"></stop>
      <stop offset="100%" stop-color="#000" stop-opacity="0.38"></stop>
    </radialGradient>
    <linearGradient id="g_stock" x1="0%" y1="0%" x2="100%" y2="0%">
      <stop offset="0%" stop-color="#9c9283"></stop>
      <stop offset="45%" stop-color="#5a4a30"></stop>
      <stop offset="100%" stop-color="#362c1d"></stop>
    </linearGradient>
    <linearGradient id="g_grip" x1="0%" y1="0%" x2="100%" y2="0%">
      <stop offset="0%" stop-color="#7f7f7f"></stop>
      <stop offset="45%" stop-color="#2a2a2a"></stop>
      <stop offset="100%" stop-color="#191919"></stop>
    </linearGradient>
  </defs>

  <ellipse cx="64" cy="102" rx="34" ry="10" fill="#000" opacity="0.3" filter="url(#fxBlur)"></ellipse>
  <ellipse cx="64" cy="78" rx="22" ry="18" fill="url(#pack)"></ellipse>
  <path d="M48 68 Q64 78 80 68" stroke="#000" stroke-width="2" opacity="0.2" fill="none"></path>

  <circle cx="64" cy="64" r="34" fill="url(#body)"></circle>
  <circle cx="64" cy="64" r="34" fill="url(#ao)"></circle>
  <path d="M40 50 Q64 60 88 50" stroke="#301010" stroke-width="1.8" fill="none" opacity="0.25" stroke-linecap="round"></path>
  <circle cx="64" cy="64" r="6" fill="#2b2b2b"></circle>
  <ellipse cx="61" cy="61" rx="2" ry="1.3" fill="#fff" opacity="0.5"></ellipse>

  <circle cx="64" cy="46" r="20" fill="url(#helmet)"></circle>
  <path d="M46 42 A18 18 0 0 1 82 42" fill="#2c0f0f" opacity="0.3"></path>
  <ellipse cx="57" cy="35" rx="7" ry="4" fill="#fff" opacity="0.4"></ellipse>

  <ellipse cx="64" cy="48" rx="9" ry="4" fill="#100a08" opacity="0.65"></ellipse>
  <ellipse cx="61" cy="47" rx="2" ry="1" fill="#fff" opacity="0.45"></ellipse>

  <g transform="translate(64,94) rotate(180) scale(0.5) translate(-15,-81)">
    <rect x="12" y="0" width="6" height="42" rx="1.5" fill="url(#gun)"></rect>
    <circle cx="15" cy="4" r="2.2" fill="#0a0a0a"></circle>
    <path d="M9 42 L21 42 L23 62 L7 62 Z" fill="url(#g_stock)"></path>
    <path d="M10 30 Q15 20 20 30 L20 40 L10 40 Z" fill="#2a2a2a"></path>
    <rect x="12" y="36" width="6" height="8" fill="#1a1a1a"></rect>
    <path d="M13 62 L21 62 L19 92 Q17 96 15 92 Z" fill="url(#gun)"></path>
    <rect x="9" y="62" width="12" height="10" rx="1" fill="#2f2a24"></rect>
    <rect x="17" y="70" width="9" height="22" rx="2" fill="url(#g_grip)"></rect>
    <path d="M11 74 Q15 80 11 86" stroke="#1a1a1a" stroke-width="1.6" fill="none"></path>
    <rect x="6" y="80" width="8" height="24" rx="2" fill="url(#g_stock)"></rect>
  </g>

  <circle cx="38" cy="66" r="9" fill="url(#arm)"></circle>
  <circle cx="90" cy="66" r="9" fill="url(#arm)"></circle>
  <ellipse cx="35" cy="63" rx="2" ry="1.2" fill="#fff" opacity="0.4"></ellipse>
  <ellipse cx="87" cy="63" rx="2" ry="1.2" fill="#fff" opacity="0.4"></ellipse>

  
  <circle cx="64" cy="64" r="34" fill="none" stroke="#e07a6a" stroke-width="5.5" opacity="0.17" filter="url(#fxBlur)"></circle>
  
</svg>