<svg viewBox="0 0 128 128" xmlns="http://www.w3.org/2000/svg">
  <defs>
    <radialGradient id="bodyGradE" cx="50%" cy="45%" r="60%">
      <stop offset="0%" stop-color="#8a3a3a"/>
      <stop offset="100%" stop-color="#5a2020"/>
    </radialGradient>
    <radialGradient id="helmetGradE" cx="45%" cy="35%" r="65%">
      <stop offset="0%" stop-color="#9c4a45"/>
      <stop offset="100%" stop-color="#6a2825"/>
    </radialGradient>
  </defs>

  <ellipse cx="64" cy="100" rx="34" ry="10" fill="#000000" opacity="0.25"/>

  <!-- backpack -->
  <ellipse cx="64" cy="78" rx="22" ry="18" fill="#3a1c1c"/>

  <!-- body -->
  <circle cx="64" cy="64" r="34" fill="url(#bodyGradE)" stroke="#301010" stroke-width="2.5"/>

  <path d="M40 50 Q64 60 88 50" stroke="#301010" stroke-width="3" fill="none" opacity="0.6"/>
  <circle cx="64" cy="64" r="6" fill="#2b2b2b" stroke="#141414" stroke-width="1.5"/>

  <!-- helmet -->
  <circle cx="64" cy="46" r="20" fill="url(#helmetGradE)" stroke="#2c0f0f" stroke-width="2.5"/>
  <path d="M46 42 A18 18 0 0 1 82 42" fill="#2c0f0f" opacity="0.35"/>

  <!-- visor -->
  <ellipse cx="64" cy="48" rx="9" ry="4" fill="#1c0808" opacity="0.6"/>

  <!-- weapon barrel facing down (toward player base) -->
  <rect x="60" y="94" width="8" height="30" rx="3" fill="#2b2b2b" stroke="#111111" stroke-width="1.5"/>
  <rect x="58" y="88" width="12" height="10" rx="2" fill="#3a3a3a"/>

  <!-- arms -->
  <circle cx="38" cy="66" r="9" fill="#7a3232" stroke="#301010" stroke-width="2"/>
  <circle cx="90" cy="66" r="9" fill="#7a3232" stroke="#301010" stroke-width="2"/>

  <!-- warning rim -->
  <circle cx="64" cy="64" r="34" fill="none" stroke="#e07a6a" stroke-width="1.5" opacity="0.45"/>
</svg>
