<svg viewBox="0 0 200 200" xmlns="http://www.w3.org/2000/svg">
  <defs><filter id="fxOutline" x="-40%" y="-40%" width="180%" height="180%"><feTurbulence type="fractalNoise" baseFrequency="0.85" numOctaves="2" seed="7" result="fxn"></feTurbulence><feDisplacementMap in="SourceGraphic" in2="fxn" scale="2.6" xChannelSelector="R" yChannelSelector="G" result="fxrough"></feDisplacementMap><feDropShadow in="fxrough" dx="0" dy="0" stdDeviation="1.3" flood-color="#fff6c8" flood-opacity="0.85"></feDropShadow></filter><filter id="fxBlur" x="-60%" y="-60%" width="220%" height="220%"><feGaussianBlur stdDeviation="1.6"></feGaussianBlur></filter>
    <radialGradient id="burstGlow" cx="50%" cy="50%" r="50%">
      <stop offset="0%" stop-color="#ffffff" stop-opacity="1"></stop>
      <stop offset="25%" stop-color="#fffbe0" stop-opacity="1"></stop>
      <stop offset="45%" stop-color="#ffe98a" stop-opacity="0.85"></stop>
      <stop offset="70%" stop-color="#ffb84a" stop-opacity="0.3"></stop>
      <stop offset="100%" stop-color="#ffb84a" stop-opacity="0"></stop>
    </radialGradient>
    <radialGradient id="core" cx="50%" cy="50%" r="50%">
      <stop offset="0%" stop-color="#ffffff"></stop>
      <stop offset="100%" stop-color="#fff2b0" stop-opacity="0"></stop>
    </radialGradient>
  </defs><g filter="url(#fxOutline)">
  <circle cx="100" cy="100" r="95" fill="url(#burstGlow)"></circle>
  
  <g stroke="#ffe98a" stroke-width="2" opacity="0.6"><line x1="100" y1="100" x2="70" y2="10"></line><line x1="100" y1="100" x2="130" y2="10"></line><line x1="100" y1="100" x2="10" y2="70"></line><line x1="100" y1="100" x2="10" y2="130"></line><line x1="100" y1="100" x2="190" y2="70"></line><line x1="100" y1="100" x2="190" y2="130"></line><line x1="100" y1="100" x2="70" y2="190"></line><line x1="100" y1="100" x2="130" y2="190"></line></g>
    <circle cx="100" cy="100" r="34" fill="url(#core)"></circle>
    <g fill="#fff6c8"><path d="M30 40 l3 8 l8 3 l-8 3 l-3 8 l-3 -8 l-8 -3 l8 -3 Z" opacity="0.8"></path><path d="M172 60 l2.4 6.4 l6.4 2.4 l-6.4 2.4 l-2.4 6.4 l-2.4 -6.4 l-6.4 -2.4 l6.4 -2.4 Z" opacity="0.75"></path><path d="M150 150 l2.6 7 l7 2.6 l-7 2.6 l-2.6 7 l-2.6 -7 l-7 -2.6 l7 -2.6 Z" opacity="0.7"></path><path d="M45 160 l2 5.4 l5.4 2 l-5.4 2 l-2 5.4 l-2 -5.4 l-5.4 -2 l5.4 -2 Z" opacity="0.7"></path></g>
</g></svg>