<svg xmlns="http://www.w3.org/2000/svg" viewBox="0 0 24 24">
  <defs>
    <linearGradient id="g" x1="0" y1="0" x2="1" y2="1">
      <stop offset="0" stop-color="#7bff9a" />
      <stop offset="1" stop-color="#00a832" />
    </linearGradient>
  </defs>
  <path d="M12 19s-6.4-4-6.4-8.8A3.8 3.8 0 0 1 12 7.4a3.8 3.8 0 0 1 6.4 2.8C18.4 15 12 19 12 19Z" fill="url(#g)" stroke="#00a832" stroke-width="1.1" stroke-linejoin="round" />
  <path d="M9 11.6h1.4l0.6 -1.4 1 2.8 0.6 -1.4h1.4" fill="none" stroke="#00a832" stroke-width="1" stroke-linecap="round" stroke-linejoin="round" />
  <path d="M3.4 5.2h2.6M4.7 3.9v2.6" stroke="#00a832" stroke-width="1.2" stroke-linecap="round" />
  <path d="M17.6 4.4h2.3M18.75 3.25v2.3" stroke="#00a832" stroke-width="1.1" stroke-linecap="round" />
  <path d="M2 15.4h2.1M3.05 14.35v2.1" stroke="#00a832" stroke-width="1" stroke-linecap="round" />
  <path d="M19.8 16.6h2.1M20.85 15.55v2.1" stroke="#00a832" stroke-width="1" stroke-linecap="round" />
</svg>
