<svg viewBox="0 0 80 80" xmlns="http://www.w3.org/2000/svg">
  <defs><filter id="fxBlur" x="-60%" y="-60%" width="220%" height="220%"><feGaussianBlur stdDeviation="1.6"></feGaussianBlur></filter>
    <radialGradient id="capRed" cx="38%" cy="30%" r="70%">
      <stop offset="0%" stop-color="#ff8a78"></stop>
      <stop offset="50%" stop-color="#e0483a"></stop>
      <stop offset="100%" stop-color="#8a1c14"></stop>
    </radialGradient>
    <linearGradient id="capWhite" x1="0%" y1="0%" x2="0%" y2="100%">
      <stop offset="0%" stop-color="#ffffff"></stop>
      <stop offset="100%" stop-color="#d8d8d8"></stop>
    </linearGradient>
  </defs>
  <ellipse cx="40" cy="72" rx="26" ry="6" fill="#000" opacity="0.25" filter="url(#fxBlur)"></ellipse>
  <circle cx="40" cy="36" r="30" fill="url(#capRed)"></circle>
  <path d="M10 36 A30 30 0 0 0 70 36 Z" fill="url(#capWhite)"></path>
  <ellipse cx="26" cy="20" rx="7" ry="4" fill="#fff" opacity="0.5"></ellipse>
  <circle cx="40" cy="36" r="30" fill="none" stroke="#8a1c14" stroke-width="3"></circle>
  <circle cx="40" cy="36" r="8" fill="#ffd76a"></circle>
  <circle cx="38" cy="34" r="2" fill="#fff" opacity="0.6"></circle>
<circle cx="40" cy="36" r="34" fill="none" stroke="#ff8a78" stroke-width="4" opacity="0.22" filter="url(#fxBlur)"></circle>
    <g fill="#ffffff" opacity="0.8"><path d="M14 50 l1.6 4.2 l4.2 1.6 l-4.2 1.6 l-1.6 4.2 l-1.6 -4.2 l-4.2 -1.6 l4.2 -1.6 Z"></path><path d="M66 54 l1.4 3.8 l3.8 1.4 l-3.8 1.4 l-1.4 3.8 l-1.4 -3.8 l-3.8 -1.4 l3.8 -1.4 Z"></path></g>
    </svg>