<svg viewBox="0 0 512 512" xmlns="http://www.w3.org/2000/svg">
  <defs>
    <linearGradient id="baseGrass" x1="0%" y1="0%" x2="60%" y2="100%">
      <stop offset="0%" stop-color="#566f42"></stop>
      <stop offset="50%" stop-color="#465f34"></stop>
      <stop offset="100%" stop-color="#374a28"></stop>
    </linearGradient>
    <filter id="bump" x="-20%" y="-20%" width="140%" height="140%">
      <feTurbulence type="fractalNoise" baseFrequency="0.042" numOctaves="4" seed="11" result="n"></feTurbulence>
      <feDiffuseLighting in="n" lighting-color="#ffffff" surfaceScale="3.4" diffuseConstant="1.12">
        <feDistantLight azimuth="235" elevation="43"></feDistantLight>
      </feDiffuseLighting>
    </filter>
    <radialGradient id="vignette" cx="50%" cy="39%" r="78%">
      <stop offset="0%" stop-color="#ffffff" stop-opacity="0.055"></stop>
      <stop offset="60%" stop-color="#000000" stop-opacity="0"></stop>
      <stop offset="100%" stop-color="#000000" stop-opacity="0.34"></stop>
    </radialGradient>
  </defs>

  <rect width="512" height="512" fill="url(#baseGrass)"></rect>

  
  <path d="M60 120 Q110 90 170 110 Q210 130 190 175 Q150 210 90 190 Q40 165 60 120 Z" fill="#6b5230" opacity="0.55"></path>
  <path d="M330 320 Q400 300 440 345 Q460 400 410 420 Q350 430 320 390 Q300 350 330 320 Z" fill="#6b5230" opacity="0.5"></path>
  <path d="M260 80 Q300 65 325 95 Q330 125 295 130 Q265 120 260 80 Z" fill="#6b5230" opacity="0.4"></path>
  <path d="M150 380 Q190 365 210 400 Q205 430 165 430 Q140 410 150 380 Z" fill="#5a4526" opacity="0.4"></path>

  
  <path d="M-10 265 Q160 215 260 275 T522 245" stroke="#7a6a48" stroke-width="46" fill="none" opacity="0.45"></path>
  <path d="M453.6 418.6 L469.8 422.3 L483.0 428.1 L456.3 440.3 L473.1 452.9 L462.4 467.4 L489.3 497.0" stroke="#241f1a" stroke-width="2.8" fill="none" opacity="0.35"></path><path d="M69.1 335.3 L48.9 331.8 L37.7 331.5 L47.9 303.9 L50.7 319.4 L46.6 333.5 L23.9 357.9" stroke="#241f1a" stroke-width="2.0" fill="none" opacity="0.34"></path><path d="M449.4 95.5 L465.1 82.5 L437.0 111.3 L418.1 121.0 L444.7 109.4" stroke="#241f1a" stroke-width="2.3" fill="none" opacity="0.32"></path><path d="M32.4 214.1 L54.9 206.7 L54.2 186.0 L80.8 192.6 L70.1 194.7 L73.9 212.3 L78.1 228.1" stroke="#241f1a" stroke-width="3.0" fill="none" opacity="0.42"></path><path d="M321.8 158.3 L326.3 139.7 L325.8 110.8 L298.2 108.5 L290.7 95.0 L318.1 68.9" stroke="#241f1a" stroke-width="1.6" fill="none" opacity="0.40"></path>

  
  <ellipse cx="122.0" cy="69.8" rx="6.3" ry="4.4" fill="#3a352e" opacity="0.61"></ellipse><ellipse cx="232.6" cy="415.2" rx="6.4" ry="4.5" fill="#5a5a52" opacity="0.74"></ellipse><ellipse cx="72.9" cy="118.9" rx="4.8" ry="3.3" fill="#3a352e" opacity="0.56"></ellipse><ellipse cx="440.8" cy="168.6" rx="5.1" ry="3.6" fill="#6b5230" opacity="0.50"></ellipse><ellipse cx="408.8" cy="110.7" rx="3.2" ry="2.3" fill="#5a5a52" opacity="0.51"></ellipse><ellipse cx="111.2" cy="496.6" rx="2.4" ry="1.7" fill="#3a352e" opacity="0.79"></ellipse><ellipse cx="289.2" cy="38.6" rx="2.5" ry="1.7" fill="#6b5230" opacity="0.78"></ellipse><ellipse cx="128.8" cy="274.2" rx="2.0" ry="1.4" fill="#8a9a6a" opacity="0.81"></ellipse><ellipse cx="48.9" cy="332.7" rx="3.7" ry="2.6" fill="#3a352e" opacity="0.75"></ellipse><ellipse cx="221.6" cy="234.6" rx="3.7" ry="2.6" fill="#3a352e" opacity="0.69"></ellipse><ellipse cx="459.1" cy="436.6" rx="3.1" ry="2.2" fill="#6b5230" opacity="0.47"></ellipse><ellipse cx="440.4" cy="181.8" rx="4.2" ry="3.0" fill="#6b5230" opacity="0.50"></ellipse><ellipse cx="280.9" cy="287.2" rx="4.2" ry="2.9" fill="#8a9a6a" opacity="0.65"></ellipse><ellipse cx="418.4" cy="128.5" rx="2.0" ry="1.4" fill="#8a9a6a" opacity="0.74"></ellipse><ellipse cx="304.5" cy="86.7" rx="4.3" ry="3.0" fill="#8a9a6a" opacity="0.45"></ellipse><ellipse cx="509.7" cy="239.0" rx="4.4" ry="3.1" fill="#8a9a6a" opacity="0.69"></ellipse><ellipse cx="49.5" cy="416.6" rx="4.0" ry="2.8" fill="#5a5a52" opacity="0.84"></ellipse><ellipse cx="195.9" cy="89.9" rx="4.4" ry="3.0" fill="#6b5230" opacity="0.65"></ellipse><ellipse cx="438.6" cy="132.8" rx="4.7" ry="3.3" fill="#3a352e" opacity="0.46"></ellipse><ellipse cx="418.9" cy="319.4" rx="4.7" ry="3.3" fill="#8a9a6a" opacity="0.80"></ellipse><ellipse cx="157.2" cy="234.1" rx="4.8" ry="3.4" fill="#8a9a6a" opacity="0.73"></ellipse><ellipse cx="110.4" cy="11.1" rx="5.6" ry="3.9" fill="#5a5a52" opacity="0.78"></ellipse><ellipse cx="33.3" cy="391.7" rx="4.3" ry="3.0" fill="#5a5a52" opacity="0.66"></ellipse><ellipse cx="231.1" cy="50.0" rx="6.1" ry="4.3" fill="#5a5a52" opacity="0.71"></ellipse><ellipse cx="79.6" cy="428.8" rx="2.4" ry="1.7" fill="#6b5230" opacity="0.49"></ellipse><ellipse cx="471.5" cy="164.2" rx="3.4" ry="2.4" fill="#3a352e" opacity="0.46"></ellipse><ellipse cx="460.3" cy="92.3" rx="3.6" ry="2.5" fill="#5a5a52" opacity="0.64"></ellipse><ellipse cx="388.9" cy="404.3" rx="5.6" ry="3.9" fill="#8a9a6a" opacity="0.83"></ellipse><ellipse cx="240.0" cy="191.5" rx="2.4" ry="1.7" fill="#5a5a52" opacity="0.62"></ellipse><ellipse cx="375.4" cy="403.7" rx="2.8" ry="2.0" fill="#5a5a52" opacity="0.54"></ellipse><ellipse cx="57.1" cy="492.4" rx="5.6" ry="3.9" fill="#8a9a6a" opacity="0.61"></ellipse><ellipse cx="405.6" cy="4.3" rx="6.6" ry="4.6" fill="#8a9a6a" opacity="0.78"></ellipse><ellipse cx="19.1" cy="2.7" rx="4.1" ry="2.8" fill="#5a5a52" opacity="0.46"></ellipse><ellipse cx="150.8" cy="223.8" rx="2.8" ry="2.0" fill="#6b5230" opacity="0.69"></ellipse><ellipse cx="498.8" cy="157.2" rx="6.5" ry="4.5" fill="#8a9a6a" opacity="0.57"></ellipse><ellipse cx="458.0" cy="468.1" rx="2.8" ry="2.0" fill="#6b5230" opacity="0.82"></ellipse><ellipse cx="200.6" cy="153.1" rx="2.7" ry="1.9" fill="#3a352e" opacity="0.68"></ellipse><ellipse cx="50.5" cy="180.9" rx="2.5" ry="1.7" fill="#5a5a52" opacity="0.83"></ellipse><ellipse cx="198.9" cy="306.6" rx="4.4" ry="3.1" fill="#8a9a6a" opacity="0.45"></ellipse><ellipse cx="249.2" cy="323.1" rx="5.6" ry="3.9" fill="#5a5a52" opacity="0.63"></ellipse><ellipse cx="127.2" cy="118.2" rx="5.0" ry="3.5" fill="#6b5230" opacity="0.79"></ellipse><ellipse cx="308.4" cy="72.7" rx="4.4" ry="3.1" fill="#6b5230" opacity="0.60"></ellipse><ellipse cx="339.3" cy="264.2" rx="1.9" ry="1.4" fill="#8a9a6a" opacity="0.57"></ellipse><ellipse cx="259.5" cy="11.5" rx="4.5" ry="3.1" fill="#5a5a52" opacity="0.48"></ellipse><ellipse cx="317.1" cy="321.3" rx="3.1" ry="2.2" fill="#6b5230" opacity="0.49"></ellipse><ellipse cx="1.6" cy="19.3" rx="2.2" ry="1.5" fill="#8a9a6a" opacity="0.53"></ellipse>

  
  <path d="M251.1 287.1 q-1.3 -3.6 -2.6 -7.2" stroke="#3f5a24" stroke-width="1.5" fill="none" opacity="0.63" stroke-linecap="round"></path><path d="M40.2 450.0 q-0.4 -5.9 -0.9 -11.9" stroke="#5c7f3a" stroke-width="1.5" fill="none" opacity="0.75" stroke-linecap="round"></path><path d="M336.6 39.2 q-1.3 -5.5 -2.6 -11.0" stroke="#82a352" stroke-width="1.5" fill="none" opacity="0.47" stroke-linecap="round"></path><path d="M286.9 249.5 q-2.2 -3.9 -4.5 -7.8" stroke="#365220" stroke-width="1.5" fill="none" opacity="0.84" stroke-linecap="round"></path><path d="M61.8 227.4 q-1.6 -7.8 -3.1 -15.6" stroke="#3f5a24" stroke-width="1.5" fill="none" opacity="0.65" stroke-linecap="round"></path><path d="M344.0 143.8 q2.4 -3.9 4.9 -7.7" stroke="#3f5a24" stroke-width="1.5" fill="none" opacity="0.50" stroke-linecap="round"></path><path d="M280.1 169.2 q1.4 -3.8 2.7 -7.5" stroke="#5c7f3a" stroke-width="1.5" fill="none" opacity="0.56" stroke-linecap="round"></path><path d="M40.8 474.2 q1.9 -4.2 3.8 -8.4" stroke="#3f5a24" stroke-width="1.5" fill="none" opacity="0.51" stroke-linecap="round"></path><path d="M308.7 205.7 q0.8 -6.8 1.5 -13.6" stroke="#6b8f42" stroke-width="1.5" fill="none" opacity="0.50" stroke-linecap="round"></path><path d="M230.6 46.2 q-0.4 -3.2 -0.9 -6.5" stroke="#82a352" stroke-width="1.5" fill="none" opacity="0.69" stroke-linecap="round"></path><path d="M489.1 166.4 q-0.0 -5.2 -0.0 -10.4" stroke="#3f5a24" stroke-width="1.5" fill="none" opacity="0.78" stroke-linecap="round"></path><path d="M230.8 224.9 q-1.3 -4.3 -2.6 -8.6" stroke="#82a352" stroke-width="1.5" fill="none" opacity="0.46" stroke-linecap="round"></path><path d="M138.4 392.5 q2.3 -7.3 4.7 -14.6" stroke="#365220" stroke-width="1.5" fill="none" opacity="0.79" stroke-linecap="round"></path><path d="M382.7 327.8 q-2.4 -5.8 -4.8 -11.5" stroke="#5c7f3a" stroke-width="1.5" fill="none" opacity="0.56" stroke-linecap="round"></path><path d="M110.2 201.5 q1.2 -6.4 2.4 -12.9" stroke="#5c7f3a" stroke-width="1.5" fill="none" opacity="0.83" stroke-linecap="round"></path><path d="M3.6 184.2 q-0.3 -5.9 -0.6 -11.9" stroke="#6b8f42" stroke-width="1.5" fill="none" opacity="0.85" stroke-linecap="round"></path><path d="M233.6 446.6 q-0.2 -5.9 -0.3 -11.9" stroke="#6b8f42" stroke-width="1.5" fill="none" opacity="0.76" stroke-linecap="round"></path><path d="M458.9 135.4 q-1.7 -3.1 -3.5 -6.2" stroke="#82a352" stroke-width="1.5" fill="none" opacity="0.71" stroke-linecap="round"></path><path d="M338.1 445.2 q1.7 -4.1 3.3 -8.3" stroke="#6b8f42" stroke-width="1.5" fill="none" opacity="0.42" stroke-linecap="round"></path><path d="M41.9 10.8 q1.7 -5.7 3.3 -11.4" stroke="#365220" stroke-width="1.5" fill="none" opacity="0.47" stroke-linecap="round"></path><path d="M252.9 26.6 q-0.1 -4.4 -0.1 -8.8" stroke="#6b8f42" stroke-width="1.5" fill="none" opacity="0.56" stroke-linecap="round"></path><path d="M117.9 151.6 q-1.8 -7.0 -3.6 -13.9" stroke="#6b8f42" stroke-width="1.5" fill="none" opacity="0.40" stroke-linecap="round"></path><path d="M319.5 44.2 q-2.0 -5.0 -3.9 -10.0" stroke="#3f5a24" stroke-width="1.5" fill="none" opacity="0.59" stroke-linecap="round"></path><path d="M4.3 387.2 q1.2 -5.3 2.4 -10.5" stroke="#5c7f3a" stroke-width="1.5" fill="none" opacity="0.82" stroke-linecap="round"></path><path d="M367.1 327.3 q-0.7 -4.3 -1.4 -8.7" stroke="#6b8f42" stroke-width="1.5" fill="none" opacity="0.80" stroke-linecap="round"></path><path d="M42.4 35.0 q-1.0 -3.9 -2.0 -7.9" stroke="#6b8f42" stroke-width="1.5" fill="none" opacity="0.67" stroke-linecap="round"></path><path d="M225.0 193.1 q2.0 -5.7 4.1 -11.4" stroke="#3f5a24" stroke-width="1.5" fill="none" opacity="0.59" stroke-linecap="round"></path><path d="M61.6 460.3 q-0.0 -6.3 -0.0 -12.6" stroke="#365220" stroke-width="1.5" fill="none" opacity="0.71" stroke-linecap="round"></path><path d="M234.7 495.1 q-0.4 -7.4 -0.8 -14.9" stroke="#3f5a24" stroke-width="1.5" fill="none" opacity="0.72" stroke-linecap="round"></path><path d="M403.1 468.4 q2.4 -5.7 4.9 -11.5" stroke="#82a352" stroke-width="1.5" fill="none" opacity="0.77" stroke-linecap="round"></path><path d="M225.4 38.6 q0.3 -7.9 0.5 -15.7" stroke="#82a352" stroke-width="1.5" fill="none" opacity="0.58" stroke-linecap="round"></path><path d="M384.3 400.6 q-0.3 -5.5 -0.6 -11.0" stroke="#365220" stroke-width="1.5" fill="none" opacity="0.72" stroke-linecap="round"></path><path d="M26.5 188.9 q2.5 -5.3 4.9 -10.7" stroke="#82a352" stroke-width="1.5" fill="none" opacity="0.47" stroke-linecap="round"></path><path d="M346.6 86.3 q0.1 -4.0 0.3 -8.0" stroke="#5c7f3a" stroke-width="1.5" fill="none" opacity="0.41" stroke-linecap="round"></path><path d="M491.3 263.4 q-0.6 -3.2 -1.1 -6.4" stroke="#6b8f42" stroke-width="1.5" fill="none" opacity="0.70" stroke-linecap="round"></path><path d="M119.2 378.8 q2.0 -4.5 4.1 -9.1" stroke="#3f5a24" stroke-width="1.5" fill="none" opacity="0.58" stroke-linecap="round"></path><path d="M425.1 91.3 q-0.4 -4.7 -0.8 -9.4" stroke="#365220" stroke-width="1.5" fill="none" opacity="0.66" stroke-linecap="round"></path><path d="M43.5 83.5 q-1.2 -5.4 -2.5 -10.8" stroke="#3f5a24" stroke-width="1.5" fill="none" opacity="0.63" stroke-linecap="round"></path><path d="M169.3 14.1 q1.2 -3.3 2.4 -6.6" stroke="#3f5a24" stroke-width="1.5" fill="none" opacity="0.65" stroke-linecap="round"></path><path d="M460.9 53.7 q-1.4 -5.0 -2.8 -10.0" stroke="#5c7f3a" stroke-width="1.5" fill="none" opacity="0.41" stroke-linecap="round"></path><path d="M65.2 373.0 q-2.4 -7.3 -4.7 -14.5" stroke="#3f5a24" stroke-width="1.5" fill="none" opacity="0.53" stroke-linecap="round"></path><path d="M176.6 118.7 q-0.0 -6.7 -0.1 -13.3" stroke="#5c7f3a" stroke-width="1.5" fill="none" opacity="0.68" stroke-linecap="round"></path><path d="M454.1 485.4 q2.2 -4.9 4.5 -9.8" stroke="#365220" stroke-width="1.5" fill="none" opacity="0.59" stroke-linecap="round"></path><path d="M44.1 107.8 q1.1 -3.7 2.2 -7.3" stroke="#3f5a24" stroke-width="1.5" fill="none" opacity="0.83" stroke-linecap="round"></path><path d="M141.4 180.6 q-1.7 -4.6 -3.4 -9.2" stroke="#365220" stroke-width="1.5" fill="none" opacity="0.68" stroke-linecap="round"></path><path d="M404.6 362.4 q0.4 -4.4 0.9 -8.8" stroke="#6b8f42" stroke-width="1.5" fill="none" opacity="0.72" stroke-linecap="round"></path><path d="M492.4 311.9 q-0.8 -4.7 -1.6 -9.3" stroke="#3f5a24" stroke-width="1.5" fill="none" opacity="0.66" stroke-linecap="round"></path><path d="M63.4 199.8 q1.2 -7.1 2.4 -14.3" stroke="#3f5a24" stroke-width="1.5" fill="none" opacity="0.64" stroke-linecap="round"></path><path d="M312.4 196.7 q-1.8 -3.4 -3.6 -6.9" stroke="#5c7f3a" stroke-width="1.5" fill="none" opacity="0.82" stroke-linecap="round"></path><path d="M386.0 473.4 q1.8 -5.2 3.6 -10.5" stroke="#3f5a24" stroke-width="1.5" fill="none" opacity="0.44" stroke-linecap="round"></path><path d="M454.8 176.4 q-1.3 -4.2 -2.6 -8.5" stroke="#6b8f42" stroke-width="1.5" fill="none" opacity="0.56" stroke-linecap="round"></path><path d="M177.6 500.4 q0.6 -7.1 1.1 -14.1" stroke="#3f5a24" stroke-width="1.5" fill="none" opacity="0.42" stroke-linecap="round"></path><path d="M236.9 80.2 q-1.0 -5.4 -1.9 -10.8" stroke="#5c7f3a" stroke-width="1.5" fill="none" opacity="0.63" stroke-linecap="round"></path><path d="M291.5 110.3 q0.8 -5.9 1.6 -11.9" stroke="#3f5a24" stroke-width="1.5" fill="none" opacity="0.44" stroke-linecap="round"></path><path d="M0.1 249.4 q-2.5 -5.3 -5.0 -10.6" stroke="#82a352" stroke-width="1.5" fill="none" opacity="0.44" stroke-linecap="round"></path><path d="M45.2 156.3 q0.9 -5.2 1.7 -10.3" stroke="#365220" stroke-width="1.5" fill="none" opacity="0.79" stroke-linecap="round"></path><path d="M85.6 1.5 q2.5 -7.2 4.9 -14.4" stroke="#365220" stroke-width="1.5" fill="none" opacity="0.74" stroke-linecap="round"></path><path d="M291.9 467.8 q-1.0 -3.1 -1.9 -6.2" stroke="#82a352" stroke-width="1.5" fill="none" opacity="0.43" stroke-linecap="round"></path><path d="M322.8 189.8 q2.2 -4.5 4.5 -9.0" stroke="#3f5a24" stroke-width="1.5" fill="none" opacity="0.46" stroke-linecap="round"></path><path d="M349.0 362.1 q-1.3 -3.1 -2.5 -6.1" stroke="#6b8f42" stroke-width="1.5" fill="none" opacity="0.55" stroke-linecap="round"></path><path d="M29.1 131.5 q0.2 -5.5 0.3 -11.0" stroke="#3f5a24" stroke-width="1.5" fill="none" opacity="0.82" stroke-linecap="round"></path><path d="M45.8 180.5 q-1.8 -3.4 -3.6 -6.8" stroke="#6b8f42" stroke-width="1.5" fill="none" opacity="0.55" stroke-linecap="round"></path><path d="M57.7 168.0 q-0.4 -3.5 -0.9 -7.0" stroke="#5c7f3a" stroke-width="1.5" fill="none" opacity="0.77" stroke-linecap="round"></path><path d="M235.6 264.5 q0.9 -7.5 1.7 -14.9" stroke="#5c7f3a" stroke-width="1.5" fill="none" opacity="0.73" stroke-linecap="round"></path><path d="M238.0 128.7 q-1.2 -6.9 -2.4 -13.8" stroke="#82a352" stroke-width="1.5" fill="none" opacity="0.59" stroke-linecap="round"></path><path d="M235.8 443.2 q-0.0 -3.5 -0.0 -7.1" stroke="#3f5a24" stroke-width="1.5" fill="none" opacity="0.50" stroke-linecap="round"></path><path d="M399.4 354.8 q1.1 -4.0 2.3 -8.0" stroke="#6b8f42" stroke-width="1.5" fill="none" opacity="0.60" stroke-linecap="round"></path><path d="M387.6 34.1 q-1.1 -5.0 -2.2 -10.0" stroke="#6b8f42" stroke-width="1.5" fill="none" opacity="0.60" stroke-linecap="round"></path><path d="M371.1 163.8 q-0.0 -3.1 -0.0 -6.3" stroke="#3f5a24" stroke-width="1.5" fill="none" opacity="0.65" stroke-linecap="round"></path><path d="M8.6 402.5 q1.0 -5.1 2.0 -10.3" stroke="#82a352" stroke-width="1.5" fill="none" opacity="0.44" stroke-linecap="round"></path><path d="M494.6 408.9 q-1.4 -7.7 -2.7 -15.3" stroke="#5c7f3a" stroke-width="1.5" fill="none" opacity="0.57" stroke-linecap="round"></path><path d="M463.9 353.7 q-0.4 -7.3 -0.9 -14.7" stroke="#5c7f3a" stroke-width="1.5" fill="none" opacity="0.76" stroke-linecap="round"></path><path d="M87.1 407.5 q0.5 -5.9 0.9 -11.7" stroke="#5c7f3a" stroke-width="1.5" fill="none" opacity="0.68" stroke-linecap="round"></path><path d="M46.9 229.1 q-2.0 -4.9 -4.1 -9.8" stroke="#3f5a24" stroke-width="1.5" fill="none" opacity="0.51" stroke-linecap="round"></path><path d="M1.9 501.0 q-1.3 -6.1 -2.5 -12.2" stroke="#5c7f3a" stroke-width="1.5" fill="none" opacity="0.83" stroke-linecap="round"></path><path d="M122.9 369.9 q-0.5 -6.2 -1.0 -12.3" stroke="#365220" stroke-width="1.5" fill="none" opacity="0.44" stroke-linecap="round"></path><path d="M68.5 6.5 q1.8 -6.7 3.7 -13.5" stroke="#82a352" stroke-width="1.5" fill="none" opacity="0.40" stroke-linecap="round"></path><path d="M9.3 93.5 q2.5 -4.5 5.0 -8.9" stroke="#6b8f42" stroke-width="1.5" fill="none" opacity="0.41" stroke-linecap="round"></path><path d="M116.1 289.6 q-1.9 -6.1 -3.8 -12.1" stroke="#5c7f3a" stroke-width="1.5" fill="none" opacity="0.61" stroke-linecap="round"></path><path d="M47.4 253.3 q0.3 -3.1 0.6 -6.3" stroke="#82a352" stroke-width="1.5" fill="none" opacity="0.71" stroke-linecap="round"></path><path d="M486.0 155.4 q0.8 -7.4 1.7 -14.8" stroke="#82a352" stroke-width="1.5" fill="none" opacity="0.41" stroke-linecap="round"></path><path d="M66.6 166.6 q1.3 -5.5 2.6 -11.1" stroke="#3f5a24" stroke-width="1.5" fill="none" opacity="0.75" stroke-linecap="round"></path><path d="M495.7 457.4 q-1.6 -4.1 -3.2 -8.3" stroke="#82a352" stroke-width="1.5" fill="none" opacity="0.53" stroke-linecap="round"></path><path d="M408.1 174.7 q-1.3 -4.9 -2.5 -9.9" stroke="#5c7f3a" stroke-width="1.5" fill="none" opacity="0.82" stroke-linecap="round"></path><path d="M486.4 0.9 q-0.9 -4.6 -1.9 -9.2" stroke="#365220" stroke-width="1.5" fill="none" opacity="0.84" stroke-linecap="round"></path><path d="M389.3 106.9 q1.0 -4.7 2.0 -9.5" stroke="#3f5a24" stroke-width="1.5" fill="none" opacity="0.77" stroke-linecap="round"></path><path d="M287.5 151.2 q1.3 -7.0 2.5 -14.1" stroke="#365220" stroke-width="1.5" fill="none" opacity="0.74" stroke-linecap="round"></path><path d="M351.6 304.6 q1.4 -3.2 2.9 -6.4" stroke="#365220" stroke-width="1.5" fill="none" opacity="0.45" stroke-linecap="round"></path><path d="M240.2 225.7 q-1.8 -4.9 -3.5 -9.8" stroke="#5c7f3a" stroke-width="1.5" fill="none" opacity="0.51" stroke-linecap="round"></path><path d="M124.2 85.2 q-1.7 -3.7 -3.3 -7.5" stroke="#5c7f3a" stroke-width="1.5" fill="none" opacity="0.62" stroke-linecap="round"></path><path d="M174.1 53.6 q-1.6 -6.4 -3.2 -12.9" stroke="#6b8f42" stroke-width="1.5" fill="none" opacity="0.47" stroke-linecap="round"></path><path d="M48.5 301.8 q0.1 -4.6 0.1 -9.3" stroke="#6b8f42" stroke-width="1.5" fill="none" opacity="0.67" stroke-linecap="round"></path><path d="M430.2 488.4 q0.0 -5.0 0.0 -10.0" stroke="#82a352" stroke-width="1.5" fill="none" opacity="0.47" stroke-linecap="round"></path><path d="M465.9 272.0 q-0.1 -4.2 -0.2 -8.5" stroke="#6b8f42" stroke-width="1.5" fill="none" opacity="0.46" stroke-linecap="round"></path><path d="M326.1 335.3 q1.4 -4.0 2.9 -7.9" stroke="#82a352" stroke-width="1.5" fill="none" opacity="0.79" stroke-linecap="round"></path><path d="M181.6 337.0 q1.3 -5.9 2.5 -11.8" stroke="#365220" stroke-width="1.5" fill="none" opacity="0.72" stroke-linecap="round"></path><path d="M203.1 447.7 q1.0 -6.6 2.1 -13.3" stroke="#365220" stroke-width="1.5" fill="none" opacity="0.40" stroke-linecap="round"></path><path d="M49.1 326.1 q2.4 -7.9 4.8 -15.8" stroke="#5c7f3a" stroke-width="1.5" fill="none" opacity="0.43" stroke-linecap="round"></path><path d="M402.3 142.9 q2.1 -6.3 4.2 -12.6" stroke="#6b8f42" stroke-width="1.5" fill="none" opacity="0.50" stroke-linecap="round"></path><path d="M409.6 68.7 q1.7 -3.6 3.5 -7.2" stroke="#365220" stroke-width="1.5" fill="none" opacity="0.76" stroke-linecap="round"></path><path d="M241.3 274.2 q-2.0 -6.4 -4.0 -12.8" stroke="#82a352" stroke-width="1.5" fill="none" opacity="0.47" stroke-linecap="round"></path><path d="M68.4 418.1 q-2.5 -6.3 -5.0 -12.7" stroke="#5c7f3a" stroke-width="1.5" fill="none" opacity="0.68" stroke-linecap="round"></path><path d="M61.4 159.0 q2.0 -5.2 4.0 -10.3" stroke="#3f5a24" stroke-width="1.5" fill="none" opacity="0.63" stroke-linecap="round"></path><path d="M391.0 179.7 q-1.9 -4.5 -3.8 -8.9" stroke="#6b8f42" stroke-width="1.5" fill="none" opacity="0.48" stroke-linecap="round"></path><path d="M203.8 138.7 q-2.5 -6.0 -5.0 -11.9" stroke="#5c7f3a" stroke-width="1.5" fill="none" opacity="0.83" stroke-linecap="round"></path><path d="M182.5 206.7 q1.9 -6.3 3.7 -12.6" stroke="#5c7f3a" stroke-width="1.5" fill="none" opacity="0.47" stroke-linecap="round"></path><path d="M497.9 42.5 q-2.2 -7.1 -4.3 -14.3" stroke="#3f5a24" stroke-width="1.5" fill="none" opacity="0.45" stroke-linecap="round"></path><path d="M296.5 328.6 q2.1 -5.1 4.2 -10.3" stroke="#6b8f42" stroke-width="1.5" fill="none" opacity="0.48" stroke-linecap="round"></path><path d="M261.0 211.7 q1.3 -7.0 2.6 -14.0" stroke="#82a352" stroke-width="1.5" fill="none" opacity="0.71" stroke-linecap="round"></path><path d="M50.2 374.6 q2.2 -4.4 4.3 -8.8" stroke="#82a352" stroke-width="1.5" fill="none" opacity="0.84" stroke-linecap="round"></path><path d="M346.6 475.8 q1.3 -3.9 2.5 -7.8" stroke="#6b8f42" stroke-width="1.5" fill="none" opacity="0.55" stroke-linecap="round"></path><path d="M296.9 174.1 q0.3 -7.3 0.7 -14.6" stroke="#5c7f3a" stroke-width="1.5" fill="none" opacity="0.47" stroke-linecap="round"></path><path d="M71.8 152.1 q1.0 -6.2 2.1 -12.4" stroke="#82a352" stroke-width="1.5" fill="none" opacity="0.73" stroke-linecap="round"></path><path d="M354.0 68.4 q0.0 -7.3 0.1 -14.6" stroke="#82a352" stroke-width="1.5" fill="none" opacity="0.59" stroke-linecap="round"></path><path d="M290.0 93.8 q-1.0 -7.2 -2.1 -14.4" stroke="#82a352" stroke-width="1.5" fill="none" opacity="0.64" stroke-linecap="round"></path><path d="M50.7 398.9 q-0.5 -7.6 -1.0 -15.2" stroke="#365220" stroke-width="1.5" fill="none" opacity="0.59" stroke-linecap="round"></path><path d="M318.7 130.3 q-1.6 -5.2 -3.3 -10.5" stroke="#3f5a24" stroke-width="1.5" fill="none" opacity="0.58" stroke-linecap="round"></path><path d="M240.5 482.8 q2.2 -6.7 4.3 -13.3" stroke="#6b8f42" stroke-width="1.5" fill="none" opacity="0.77" stroke-linecap="round"></path><path d="M499.0 91.0 q-2.4 -3.6 -4.8 -7.2" stroke="#82a352" stroke-width="1.5" fill="none" opacity="0.41" stroke-linecap="round"></path><path d="M240.7 149.6 q1.3 -7.8 2.6 -15.5" stroke="#6b8f42" stroke-width="1.5" fill="none" opacity="0.54" stroke-linecap="round"></path><path d="M148.4 317.1 q-0.1 -5.7 -0.1 -11.4" stroke="#5c7f3a" stroke-width="1.5" fill="none" opacity="0.42" stroke-linecap="round"></path><path d="M392.6 252.5 q0.2 -4.2 0.4 -8.4" stroke="#82a352" stroke-width="1.5" fill="none" opacity="0.64" stroke-linecap="round"></path><path d="M120.1 126.1 q-1.2 -4.9 -2.4 -9.7" stroke="#82a352" stroke-width="1.5" fill="none" opacity="0.46" stroke-linecap="round"></path><path d="M13.5 108.8 q2.3 -4.4 4.6 -8.7" stroke="#3f5a24" stroke-width="1.5" fill="none" opacity="0.48" stroke-linecap="round"></path><path d="M243.6 371.2 q2.4 -4.4 4.9 -8.7" stroke="#3f5a24" stroke-width="1.5" fill="none" opacity="0.84" stroke-linecap="round"></path><path d="M468.8 60.0 q0.9 -6.6 1.7 -13.1" stroke="#6b8f42" stroke-width="1.5" fill="none" opacity="0.80" stroke-linecap="round"></path><path d="M348.0 369.9 q-0.8 -7.6 -1.5 -15.2" stroke="#3f5a24" stroke-width="1.5" fill="none" opacity="0.50" stroke-linecap="round"></path><path d="M51.8 447.4 q-0.7 -4.1 -1.5 -8.2" stroke="#6b8f42" stroke-width="1.5" fill="none" opacity="0.55" stroke-linecap="round"></path><path d="M262.9 463.3 q-2.5 -7.8 -4.9 -15.7" stroke="#3f5a24" stroke-width="1.5" fill="none" opacity="0.64" stroke-linecap="round"></path><path d="M127.9 76.2 q0.8 -5.4 1.6 -10.8" stroke="#3f5a24" stroke-width="1.5" fill="none" opacity="0.48" stroke-linecap="round"></path><path d="M329.4 480.8 q0.6 -3.4 1.3 -6.9" stroke="#365220" stroke-width="1.5" fill="none" opacity="0.67" stroke-linecap="round"></path><path d="M14.3 311.8 q-1.2 -3.7 -2.4 -7.4" stroke="#82a352" stroke-width="1.5" fill="none" opacity="0.45" stroke-linecap="round"></path><path d="M377.0 251.9 q1.9 -7.8 3.8 -15.5" stroke="#3f5a24" stroke-width="1.5" fill="none" opacity="0.43" stroke-linecap="round"></path><path d="M52.4 471.6 q1.6 -7.4 3.2 -14.7" stroke="#5c7f3a" stroke-width="1.5" fill="none" opacity="0.75" stroke-linecap="round"></path><path d="M235.0 117.7 q-0.4 -4.1 -0.7 -8.3" stroke="#365220" stroke-width="1.5" fill="none" opacity="0.67" stroke-linecap="round"></path><path d="M71.5 384.9 q-2.4 -4.7 -4.8 -9.5" stroke="#5c7f3a" stroke-width="1.5" fill="none" opacity="0.79" stroke-linecap="round"></path><path d="M244.7 419.8 q2.2 -5.9 4.4 -11.7" stroke="#365220" stroke-width="1.5" fill="none" opacity="0.80" stroke-linecap="round"></path><path d="M413.1 393.0 q0.0 -4.2 0.1 -8.3" stroke="#365220" stroke-width="1.5" fill="none" opacity="0.41" stroke-linecap="round"></path><path d="M235.4 475.3 q-2.1 -6.3 -4.3 -12.6" stroke="#6b8f42" stroke-width="1.5" fill="none" opacity="0.66" stroke-linecap="round"></path><path d="M394.3 325.2 q2.3 -3.9 4.6 -7.9" stroke="#5c7f3a" stroke-width="1.5" fill="none" opacity="0.81" stroke-linecap="round"></path><path d="M36.4 113.6 q0.0 -3.8 0.1 -7.5" stroke="#6b8f42" stroke-width="1.5" fill="none" opacity="0.55" stroke-linecap="round"></path><path d="M356.5 10.9 q-2.3 -7.4 -4.5 -14.9" stroke="#82a352" stroke-width="1.5" fill="none" opacity="0.49" stroke-linecap="round"></path><path d="M501.2 188.0 q2.0 -6.6 4.1 -13.2" stroke="#3f5a24" stroke-width="1.5" fill="none" opacity="0.78" stroke-linecap="round"></path><path d="M129.2 303.5 q-0.4 -8.0 -0.7 -15.9" stroke="#365220" stroke-width="1.5" fill="none" opacity="0.66" stroke-linecap="round"></path><path d="M435.0 16.0 q2.2 -3.2 4.4 -6.3" stroke="#5c7f3a" stroke-width="1.5" fill="none" opacity="0.74" stroke-linecap="round"></path><path d="M53.5 8.1 q1.4 -3.9 2.7 -7.7" stroke="#82a352" stroke-width="1.5" fill="none" opacity="0.71" stroke-linecap="round"></path><path d="M179.2 450.7 q-1.2 -6.7 -2.4 -13.5" stroke="#365220" stroke-width="1.5" fill="none" opacity="0.73" stroke-linecap="round"></path><path d="M470.9 490.3 q1.2 -3.5 2.4 -6.9" stroke="#82a352" stroke-width="1.5" fill="none" opacity="0.50" stroke-linecap="round"></path><path d="M75.1 297.6 q0.2 -5.7 0.5 -11.4" stroke="#365220" stroke-width="1.5" fill="none" opacity="0.61" stroke-linecap="round"></path><path d="M186.6 43.3 q-2.4 -5.1 -4.9 -10.2" stroke="#3f5a24" stroke-width="1.5" fill="none" opacity="0.77" stroke-linecap="round"></path><path d="M464.0 410.0 q-0.2 -3.3 -0.3 -6.7" stroke="#6b8f42" stroke-width="1.5" fill="none" opacity="0.67" stroke-linecap="round"></path><path d="M54.0 32.4 q-1.3 -7.1 -2.6 -14.2" stroke="#365220" stroke-width="1.5" fill="none" opacity="0.47" stroke-linecap="round"></path><path d="M151.3 105.2 q0.9 -3.0 1.8 -6.1" stroke="#5c7f3a" stroke-width="1.5" fill="none" opacity="0.76" stroke-linecap="round"></path><path d="M414.5 287.0 q-2.0 -7.8 -4.0 -15.6" stroke="#3f5a24" stroke-width="1.5" fill="none" opacity="0.80" stroke-linecap="round"></path><path d="M502.3 236.5 q1.8 -3.1 3.6 -6.2" stroke="#365220" stroke-width="1.5" fill="none" opacity="0.74" stroke-linecap="round"></path><path d="M73.4 124.4 q-1.2 -5.6 -2.4 -11.1" stroke="#365220" stroke-width="1.5" fill="none" opacity="0.72" stroke-linecap="round"></path><path d="M322.4 121.4 q0.8 -6.9 1.6 -13.7" stroke="#82a352" stroke-width="1.5" fill="none" opacity="0.45" stroke-linecap="round"></path><path d="M395.9 398.0 q-0.6 -3.7 -1.2 -7.4" stroke="#82a352" stroke-width="1.5" fill="none" opacity="0.52" stroke-linecap="round"></path><path d="M464.8 101.0 q1.3 -7.7 2.6 -15.3" stroke="#3f5a24" stroke-width="1.5" fill="none" opacity="0.64" stroke-linecap="round"></path><path d="M187.5 425.0 q-1.8 -5.5 -3.7 -11.0" stroke="#365220" stroke-width="1.5" fill="none" opacity="0.51" stroke-linecap="round"></path><path d="M246.9 4.8 q1.6 -3.8 3.3 -7.7" stroke="#3f5a24" stroke-width="1.5" fill="none" opacity="0.72" stroke-linecap="round"></path><path d="M301.5 34.9 q-1.6 -4.4 -3.2 -8.7" stroke="#365220" stroke-width="1.5" fill="none" opacity="0.53" stroke-linecap="round"></path><path d="M10.0 174.1 q0.1 -3.7 0.2 -7.4" stroke="#365220" stroke-width="1.5" fill="none" opacity="0.53" stroke-linecap="round"></path><path d="M55.2 80.9 q-1.6 -3.6 -3.1 -7.2" stroke="#5c7f3a" stroke-width="1.5" fill="none" opacity="0.43" stroke-linecap="round"></path><path d="M95.5 438.1 q0.1 -5.6 0.1 -11.3" stroke="#5c7f3a" stroke-width="1.5" fill="none" opacity="0.82" stroke-linecap="round"></path><path d="M301.9 392.4 q1.6 -6.5 3.3 -13.1" stroke="#365220" stroke-width="1.5" fill="none" opacity="0.51" stroke-linecap="round"></path><path d="M332.8 114.4 q-0.2 -7.9 -0.3 -15.8" stroke="#365220" stroke-width="1.5" fill="none" opacity="0.55" stroke-linecap="round"></path><path d="M358.9 286.7 q1.3 -6.5 2.6 -13.0" stroke="#3f5a24" stroke-width="1.5" fill="none" opacity="0.63" stroke-linecap="round"></path><path d="M39.0 56.1 q-2.2 -3.9 -4.5 -7.8" stroke="#365220" stroke-width="1.5" fill="none" opacity="0.46" stroke-linecap="round"></path><path d="M55.7 105.2 q0.8 -6.8 1.6 -13.7" stroke="#3f5a24" stroke-width="1.5" fill="none" opacity="0.63" stroke-linecap="round"></path><path d="M67.7 92.6 q2.2 -6.9 4.3 -13.9" stroke="#82a352" stroke-width="1.5" fill="none" opacity="0.40" stroke-linecap="round"></path><path d="M245.5 189.1 q-1.5 -5.9 -3.1 -11.8" stroke="#82a352" stroke-width="1.5" fill="none" opacity="0.82" stroke-linecap="round"></path><path d="M248.0 53.3 q1.4 -5.3 2.7 -10.7" stroke="#365220" stroke-width="1.5" fill="none" opacity="0.68" stroke-linecap="round"></path><path d="M245.7 367.9 q-2.4 -7.0 -4.8 -13.9" stroke="#82a352" stroke-width="1.5" fill="none" opacity="0.58" stroke-linecap="round"></path><path d="M409.4 279.5 q-1.3 -7.4 -2.5 -14.9" stroke="#3f5a24" stroke-width="1.5" fill="none" opacity="0.69" stroke-linecap="round"></path><path d="M397.6 470.8 q1.5 -3.4 3.0 -6.8" stroke="#5c7f3a" stroke-width="1.5" fill="none" opacity="0.69" stroke-linecap="round"></path><path d="M381.1 88.4 q-2.4 -6.6 -4.8 -13.2" stroke="#82a352" stroke-width="1.5" fill="none" opacity="0.73" stroke-linecap="round"></path><path d="M18.5 327.1 q-1.4 -3.6 -2.8 -7.1" stroke="#6b8f42" stroke-width="1.5" fill="none" opacity="0.52" stroke-linecap="round"></path><path d="M504.5 333.6 q1.2 -6.1 2.5 -12.2" stroke="#82a352" stroke-width="1.5" fill="none" opacity="0.66" stroke-linecap="round"></path><path d="M473.8 278.3 q2.2 -5.8 4.3 -11.5" stroke="#82a352" stroke-width="1.5" fill="none" opacity="0.84" stroke-linecap="round"></path><path d="M97.0 332.2 q-2.0 -4.3 -3.9 -8.6" stroke="#82a352" stroke-width="1.5" fill="none" opacity="0.77" stroke-linecap="round"></path><path d="M56.8 153.7 q0.5 -3.3 1.1 -6.7" stroke="#365220" stroke-width="1.5" fill="none" opacity="0.59" stroke-linecap="round"></path><path d="M11.9 425.6 q1.3 -4.5 2.7 -9.1" stroke="#3f5a24" stroke-width="1.5" fill="none" opacity="0.46" stroke-linecap="round"></path><path d="M132.9 294.5 q2.1 -4.6 4.2 -9.2" stroke="#6b8f42" stroke-width="1.5" fill="none" opacity="0.53" stroke-linecap="round"></path><path d="M78.4 443.1 q-0.6 -5.2 -1.1 -10.3" stroke="#6b8f42" stroke-width="1.5" fill="none" opacity="0.49" stroke-linecap="round"></path><path d="M19.3 18.2 q0.1 -7.9 0.2 -15.8" stroke="#5c7f3a" stroke-width="1.5" fill="none" opacity="0.49" stroke-linecap="round"></path><path d="M126.0 214.2 q0.7 -4.5 1.4 -9.0" stroke="#82a352" stroke-width="1.5" fill="none" opacity="0.70" stroke-linecap="round"></path><path d="M57.4 177.9 q-2.1 -6.6 -4.2 -13.2" stroke="#6b8f42" stroke-width="1.5" fill="none" opacity="0.80" stroke-linecap="round"></path><path d="M496.0 80.1 q-1.6 -5.8 -3.1 -11.7" stroke="#6b8f42" stroke-width="1.5" fill="none" opacity="0.49" stroke-linecap="round"></path><path d="M76.5 91.2 q-1.1 -4.0 -2.2 -7.9" stroke="#365220" stroke-width="1.5" fill="none" opacity="0.83" stroke-linecap="round"></path><path d="M505.6 382.1 q1.0 -7.6 1.9 -15.2" stroke="#6b8f42" stroke-width="1.5" fill="none" opacity="0.62" stroke-linecap="round"></path><path d="M418.0 99.3 q1.3 -3.4 2.7 -6.7" stroke="#82a352" stroke-width="1.5" fill="none" opacity="0.45" stroke-linecap="round"></path><path d="M496.3 437.6 q1.7 -3.0 3.3 -6.0" stroke="#6b8f42" stroke-width="1.5" fill="none" opacity="0.48" stroke-linecap="round"></path><path d="M399.3 31.5 q-1.4 -3.2 -2.8 -6.3" stroke="#365220" stroke-width="1.5" fill="none" opacity="0.40" stroke-linecap="round"></path><path d="M297.4 75.9 q-1.2 -5.5 -2.3 -11.0" stroke="#6b8f42" stroke-width="1.5" fill="none" opacity="0.82" stroke-linecap="round"></path><path d="M361.5 229.2 q-1.0 -6.6 -1.9 -13.3" stroke="#5c7f3a" stroke-width="1.5" fill="none" opacity="0.54" stroke-linecap="round"></path><path d="M250.2 150.3 q0.8 -3.3 1.7 -6.6" stroke="#82a352" stroke-width="1.5" fill="none" opacity="0.60" stroke-linecap="round"></path><path d="M134.1 9.8 q0.9 -7.2 1.9 -14.3" stroke="#82a352" stroke-width="1.5" fill="none" opacity="0.70" stroke-linecap="round"></path><path d="M184.0 490.3 q1.0 -4.9 2.0 -9.7" stroke="#3f5a24" stroke-width="1.5" fill="none" opacity="0.56" stroke-linecap="round"></path><path d="M58.5 226.5 q-2.4 -3.1 -4.7 -6.1" stroke="#3f5a24" stroke-width="1.5" fill="none" opacity="0.76" stroke-linecap="round"></path><path d="M440.2 413.0 q-2.4 -3.4 -4.8 -6.9" stroke="#365220" stroke-width="1.5" fill="none" opacity="0.55" stroke-linecap="round"></path><path d="M475.8 196.6 q-2.5 -7.7 -5.0 -15.3" stroke="#3f5a24" stroke-width="1.5" fill="none" opacity="0.54" stroke-linecap="round"></path><path d="M336.1 259.9 q-1.0 -7.4 -1.9 -14.8" stroke="#6b8f42" stroke-width="1.5" fill="none" opacity="0.43" stroke-linecap="round"></path><path d="M191.6 261.6 q-1.1 -4.3 -2.3 -8.6" stroke="#5c7f3a" stroke-width="1.5" fill="none" opacity="0.81" stroke-linecap="round"></path><path d="M213.0 372.3 q-1.4 -5.1 -2.7 -10.1" stroke="#5c7f3a" stroke-width="1.5" fill="none" opacity="0.49" stroke-linecap="round"></path><path d="M59.0 250.7 q0.0 -6.3 0.0 -12.6" stroke="#82a352" stroke-width="1.5" fill="none" opacity="0.51" stroke-linecap="round"></path><path d="M412.3 67.5 q-0.3 -4.8 -0.6 -9.5" stroke="#3f5a24" stroke-width="1.5" fill="none" opacity="0.58" stroke-linecap="round"></path><path d="M419.5 505.3 q-0.7 -7.0 -1.4 -14.1" stroke="#6b8f42" stroke-width="1.5" fill="none" opacity="0.84" stroke-linecap="round"></path><path d="M251.3 198.8 q0.6 -4.8 1.1 -9.6" stroke="#6b8f42" stroke-width="1.5" fill="none" opacity="0.56" stroke-linecap="round"></path><path d="M78.4 342.7 q0.1 -4.8 0.2 -9.6" stroke="#3f5a24" stroke-width="1.5" fill="none" opacity="0.76" stroke-linecap="round"></path><path d="M71.3 83.7 q-0.4 -3.6 -0.8 -7.2" stroke="#365220" stroke-width="1.5" fill="none" opacity="0.72" stroke-linecap="round"></path><path d="M400.9 104.3 q0.7 -7.9 1.4 -15.8" stroke="#3f5a24" stroke-width="1.5" fill="none" opacity="0.56" stroke-linecap="round"></path><path d="M213.7 63.3 q0.1 -4.4 0.2 -8.8" stroke="#3f5a24" stroke-width="1.5" fill="none" opacity="0.46" stroke-linecap="round"></path><path d="M192.5 131.4 q-0.5 -4.7 -1.1 -9.4" stroke="#3f5a24" stroke-width="1.5" fill="none" opacity="0.55" stroke-linecap="round"></path><path d="M507.9 479.1 q0.4 -5.6 0.9 -11.1" stroke="#82a352" stroke-width="1.5" fill="none" opacity="0.54" stroke-linecap="round"></path><path d="M306.5 253.2 q-0.3 -3.6 -0.6 -7.2" stroke="#3f5a24" stroke-width="1.5" fill="none" opacity="0.57" stroke-linecap="round"></path><path d="M271.0 136.4 q-1.1 -5.4 -2.2 -10.9" stroke="#6b8f42" stroke-width="1.5" fill="none" opacity="0.80" stroke-linecap="round"></path><path d="M60.1 299.2 q-0.3 -7.8 -0.5 -15.6" stroke="#365220" stroke-width="1.5" fill="none" opacity="0.47" stroke-linecap="round"></path><path d="M356.5 400.5 q-1.1 -7.4 -2.3 -14.7" stroke="#5c7f3a" stroke-width="1.5" fill="none" opacity="0.64" stroke-linecap="round"></path><path d="M306.8 98.7 q-2.1 -5.7 -4.1 -11.5" stroke="#82a352" stroke-width="1.5" fill="none" opacity="0.55" stroke-linecap="round"></path><path d="M81.7 76.7 q-1.4 -4.6 -2.7 -9.3" stroke="#6b8f42" stroke-width="1.5" fill="none" opacity="0.82" stroke-linecap="round"></path><path d="M363.9 505.0 q-2.4 -5.7 -4.8 -11.4" stroke="#6b8f42" stroke-width="1.5" fill="none" opacity="0.67" stroke-linecap="round"></path><path d="M300.0 18.4 q1.6 -5.6 3.1 -11.3" stroke="#6b8f42" stroke-width="1.5" fill="none" opacity="0.73" stroke-linecap="round"></path><path d="M60.7 323.5 q2.1 -6.1 4.2 -12.1" stroke="#6b8f42" stroke-width="1.5" fill="none" opacity="0.67" stroke-linecap="round"></path><path d="M328.6 54.9 q1.0 -3.7 1.9 -7.3" stroke="#365220" stroke-width="1.5" fill="none" opacity="0.67" stroke-linecap="round"></path><path d="M250.5 407.4 q-0.2 -5.1 -0.5 -10.2" stroke="#5c7f3a" stroke-width="1.5" fill="none" opacity="0.41" stroke-linecap="round"></path><path d="M509.0 15.6 q0.2 -7.1 0.3 -14.1" stroke="#6b8f42" stroke-width="1.5" fill="none" opacity="0.49" stroke-linecap="round"></path><path d="M250.7 74.2 q-1.1 -6.2 -2.2 -12.4" stroke="#3f5a24" stroke-width="1.5" fill="none" opacity="0.63" stroke-linecap="round"></path><path d="M158.3 241.8 q-2.5 -4.2 -4.9 -8.3" stroke="#82a352" stroke-width="1.5" fill="none" opacity="0.50" stroke-linecap="round"></path><path d="M402.6 177.1 q-2.2 -7.6 -4.4 -15.3" stroke="#6b8f42" stroke-width="1.5" fill="none" opacity="0.73" stroke-linecap="round"></path><path d="M130.1 50.7 q1.4 -3.3 2.8 -6.6" stroke="#365220" stroke-width="1.5" fill="none" opacity="0.55" stroke-linecap="round"></path><path d="M23.5 33.5 q-0.1 -7.8 -0.2 -15.6" stroke="#82a352" stroke-width="1.5" fill="none" opacity="0.56" stroke-linecap="round"></path><path d="M253.5 295.9 q0.0 -7.8 0.1 -15.6" stroke="#365220" stroke-width="1.5" fill="none" opacity="0.47" stroke-linecap="round"></path><path d="M478.8 496.7 q-1.5 -5.0 -3.1 -10.0" stroke="#3f5a24" stroke-width="1.5" fill="none" opacity="0.43" stroke-linecap="round"></path><path d="M358.0 294.5 q1.8 -6.0 3.7 -12.0" stroke="#365220" stroke-width="1.5" fill="none" opacity="0.58" stroke-linecap="round"></path><path d="M61.8 372.0 q1.8 -7.5 3.7 -15.1" stroke="#3f5a24" stroke-width="1.5" fill="none" opacity="0.63" stroke-linecap="round"></path><path d="M272.8 387.9 q0.1 -6.3 0.3 -12.5" stroke="#82a352" stroke-width="1.5" fill="none" opacity="0.73" stroke-linecap="round"></path><path d="M137.8 0.8 q-1.6 -3.8 -3.2 -7.6" stroke="#365220" stroke-width="1.5" fill="none" opacity="0.57" stroke-linecap="round"></path><path d="M339.4 405.5 q-1.8 -6.9 -3.5 -13.8" stroke="#6b8f42" stroke-width="1.5" fill="none" opacity="0.75" stroke-linecap="round"></path><path d="M24.2 236.5 q1.4 -7.1 2.8 -14.2" stroke="#6b8f42" stroke-width="1.5" fill="none" opacity="0.54" stroke-linecap="round"></path><path d="M387.0 176.5 q-0.5 -6.2 -1.0 -12.4" stroke="#82a352" stroke-width="1.5" fill="none" opacity="0.51" stroke-linecap="round"></path><path d="M62.3 396.3 q-0.8 -5.8 -1.6 -11.6" stroke="#82a352" stroke-width="1.5" fill="none" opacity="0.84" stroke-linecap="round"></path><path d="M245.0 42.4 q2.2 -7.6 4.4 -15.1" stroke="#5c7f3a" stroke-width="1.5" fill="none" opacity="0.76" stroke-linecap="round"></path><path d="M81.5 309.5 q0.2 -3.2 0.4 -6.3" stroke="#82a352" stroke-width="1.5" fill="none" opacity="0.42" stroke-linecap="round"></path><path d="M254.6 344.4 q-0.2 -4.3 -0.5 -8.6" stroke="#5c7f3a" stroke-width="1.5" fill="none" opacity="0.43" stroke-linecap="round"></path><path d="M423.0 317.6 q-2.4 -7.6 -4.7 -15.2" stroke="#5c7f3a" stroke-width="1.5" fill="none" opacity="0.49" stroke-linecap="round"></path><path d="M245.3 399.9 q0.5 -4.7 0.9 -9.4" stroke="#5c7f3a" stroke-width="1.5" fill="none" opacity="0.74" stroke-linecap="round"></path><path d="M404.2 249.8 q-0.1 -7.4 -0.2 -14.7" stroke="#3f5a24" stroke-width="1.5" fill="none" opacity="0.44" stroke-linecap="round"></path><path d="M46.4 38.2 q-2.4 -7.2 -4.7 -14.4" stroke="#5c7f3a" stroke-width="1.5" fill="none" opacity="0.64" stroke-linecap="round"></path><path d="M366.5 447.6 q0.3 -5.9 0.7 -11.7" stroke="#6b8f42" stroke-width="1.5" fill="none" opacity="0.58" stroke-linecap="round"></path><path d="M511.2 112.6 q-0.4 -5.0 -0.7 -10.1" stroke="#365220" stroke-width="1.5" fill="none" opacity="0.41" stroke-linecap="round"></path><path d="M139.1 228.1 q2.2 -6.4 4.5 -12.8" stroke="#5c7f3a" stroke-width="1.5" fill="none" opacity="0.75" stroke-linecap="round"></path><path d="M445.0 452.6 q-0.2 -6.6 -0.4 -13.2" stroke="#3f5a24" stroke-width="1.5" fill="none" opacity="0.82" stroke-linecap="round"></path><path d="M63.5 444.8 q-1.1 -7.3 -2.1 -14.6" stroke="#6b8f42" stroke-width="1.5" fill="none" opacity="0.80" stroke-linecap="round"></path><path d="M189.2 375.3 q1.4 -5.2 2.8 -10.3" stroke="#6b8f42" stroke-width="1.5" fill="none" opacity="0.82" stroke-linecap="round"></path><path d="M480.8 414.9 q-1.2 -6.9 -2.4 -13.8" stroke="#6b8f42" stroke-width="1.5" fill="none" opacity="0.58" stroke-linecap="round"></path><path d="M85.1 222.2 q-2.2 -4.1 -4.3 -8.2" stroke="#5c7f3a" stroke-width="1.5" fill="none" opacity="0.69" stroke-linecap="round"></path><path d="M196.6 479.9 q0.2 -3.5 0.3 -7.0" stroke="#365220" stroke-width="1.5" fill="none" opacity="0.40" stroke-linecap="round"></path><path d="M474.0 334.6 q2.4 -6.8 4.8 -13.5" stroke="#3f5a24" stroke-width="1.5" fill="none" opacity="0.75" stroke-linecap="round"></path><path d="M64.0 469.0 q1.3 -5.5 2.6 -11.1" stroke="#5c7f3a" stroke-width="1.5" fill="none" opacity="0.55" stroke-linecap="round"></path>

  <rect width="512" height="512" fill="#808080" filter="url(#bump)" opacity="0.42" style="mix-blend-mode:overlay"></rect>
  <rect width="512" height="512" fill="url(#vignette)"></rect>
</svg>