<svg viewBox="0 0 1024 1024" xmlns="http://www.w3.org/2000/svg">
  <defs>
    <filter id="fxSoftBlur" x="-60%" y="-60%" width="220%" height="220%"><feGaussianBlur stdDeviation="14"></feGaussianBlur></filter>
    
    <filter id="grMottle" x="0" y="0" width="100%" height="100%">
      <feTurbulence type="fractalNoise" baseFrequency="0.010" numOctaves="4" seed="11" stitchTiles="stitch" x="0" y="0" width="1024" height="1024" result="n"></feTurbulence>
      <feColorMatrix in="n" type="matrix" values="0 0 0 0 0  0 0 0 0 0  0 0 0 0 0  0.55 0.55 0.55 0 -0.35" result="mask"></feColorMatrix>
    </filter>
    <filter id="grMottle2" x="0" y="0" width="100%" height="100%">
      <feTurbulence type="fractalNoise" baseFrequency="0.028" numOctaves="3" seed="111" stitchTiles="stitch" x="0" y="0" width="1024" height="1024" result="n"></feTurbulence>
      <feColorMatrix in="n" type="matrix" values="0 0 0 0 0  0 0 0 0 0  0 0 0 0 0  0.5 0.5 0.5 0 -0.4"></feColorMatrix>
    </filter>
    <filter id="grBump" x="0" y="0" width="100%" height="100%">
      <feTurbulence type="fractalNoise" baseFrequency="0.05" numOctaves="5" seed="12" stitchTiles="stitch" x="0" y="0" width="1024" height="1024" result="n"></feTurbulence>
      <feDiffuseLighting in="n" lighting-color="#ffffff" surfaceScale="3.4" diffuseConstant="1.15" result="lit">
        <feDistantLight azimuth="235" elevation="46"></feDistantLight>
      </feDiffuseLighting>
    </filter>
    <filter id="grBumpFine" x="0" y="0" width="100%" height="100%">
      <feTurbulence type="fractalNoise" baseFrequency="0.160" numOctaves="3" seed="19" stitchTiles="stitch" x="0" y="0" width="1024" height="1024" result="n"></feTurbulence>
      <feDiffuseLighting in="n" lighting-color="#ffffff" surfaceScale="1.6" diffuseConstant="1.0" result="lit">
        <feDistantLight azimuth="235" elevation="55"></feDistantLight>
      </feDiffuseLighting>
    </filter>
    <filter id="grGrain" x="0" y="0" width="100%" height="100%">
      <feTurbulence type="fractalNoise" baseFrequency="0.9" numOctaves="2" seed="13" stitchTiles="stitch" x="0" y="0" width="1024" height="1024" result="n"></feTurbulence>
      <feColorMatrix in="n" type="matrix" values="0 0 0 0 0  0 0 0 0 0  0 0 0 0 0  0.85 0 0 0 0"></feColorMatrix>
    </filter>
  </defs>
  <rect width="1024" height="1024" fill="#465f34"></rect>
  <rect width="1024" height="1024" fill="#8a9a6a" filter="url(#grMottle)" style="mix-blend-mode:soft-light"></rect>
  <rect width="1024" height="1024" fill="#374a28" filter="url(#grMottle2)" style="mix-blend-mode:overlay" opacity="0.5"></rect>
  <ellipse cx="138.9" cy="783.2" rx="75.3" ry="67.7" fill="#5a4526" opacity="0.32" filter="url(#fxSoftBlur)" transform="rotate(-10.9 138.9 783.2)"></ellipse><ellipse cx="79.5" cy="395.0" rx="81.4" ry="26.4" fill="#5a4526" opacity="0.40" filter="url(#fxSoftBlur)" transform="rotate(-3.3 79.5 395.0)"></ellipse><ellipse cx="1103.5" cy="395.0" rx="59.3" ry="63.2" fill="#5a4526" opacity="0.40" filter="url(#fxSoftBlur)" transform="rotate(-9.2 1103.5 395.0)"></ellipse><ellipse cx="58.0" cy="662.7" rx="36.1" ry="28.9" fill="#5a4526" opacity="0.27" filter="url(#fxSoftBlur)" transform="rotate(9.8 58.0 662.7)"></ellipse><ellipse cx="942.6" cy="642.4" rx="39.5" ry="24.9" fill="#6b5230" opacity="0.28" filter="url(#fxSoftBlur)" transform="rotate(-15.1 942.6 642.4)"></ellipse><ellipse cx="177.7" cy="41.9" rx="107.5" ry="74.2" fill="#5a4526" opacity="0.28" filter="url(#fxSoftBlur)" transform="rotate(-11.4 177.7 41.9)"></ellipse><ellipse cx="177.7" cy="1065.9" rx="91.1" ry="56.9" fill="#5a4526" opacity="0.28" filter="url(#fxSoftBlur)" transform="rotate(-8.9 177.7 1065.9)"></ellipse><ellipse cx="619.2" cy="972.6" rx="47.2" ry="53.6" fill="#5a4526" opacity="0.38" filter="url(#fxSoftBlur)" transform="rotate(3.0 619.2 972.6)"></ellipse><ellipse cx="619.2" cy="-51.4" rx="59.4" ry="44.8" fill="#5a4526" opacity="0.38" filter="url(#fxSoftBlur)" transform="rotate(-11.2 619.2 -51.4)"></ellipse><ellipse cx="163.7" cy="344.7" rx="56.5" ry="41.1" fill="#5a4526" opacity="0.27" filter="url(#fxSoftBlur)" transform="rotate(9.1 163.7 344.7)"></ellipse><ellipse cx="674.1" cy="607.4" rx="55.9" ry="30.7" fill="#5a4526" opacity="0.37" filter="url(#fxSoftBlur)" transform="rotate(15.4 674.1 607.4)"></ellipse><ellipse cx="853.5" cy="645.3" rx="65.7" ry="36.2" fill="#5a4526" opacity="0.29" filter="url(#fxSoftBlur)" transform="rotate(1.8 853.5 645.3)"></ellipse><ellipse cx="983.3" cy="833.4" rx="74.8" ry="40.3" fill="#6b5230" opacity="0.29" filter="url(#fxSoftBlur)" transform="rotate(-4.6 983.3 833.4)"></ellipse><ellipse cx="-40.7" cy="833.4" rx="73.7" ry="31.3" fill="#6b5230" opacity="0.29" filter="url(#fxSoftBlur)" transform="rotate(14.3 -40.7 833.4)"></ellipse><ellipse cx="103.7" cy="919.1" rx="66.3" ry="41.7" fill="#3f5228" opacity="0.33" filter="url(#fxSoftBlur)" transform="rotate(0.8 103.7 919.1)"></ellipse><ellipse cx="85.3" cy="442.3" rx="79.9" ry="46.0" fill="#5a4526" opacity="0.35" filter="url(#fxSoftBlur)" transform="rotate(-9.2 85.3 442.3)"></ellipse><ellipse cx="1109.3" cy="442.3" rx="76.2" ry="30.7" fill="#5a4526" opacity="0.35" filter="url(#fxSoftBlur)" transform="rotate(13.8 1109.3 442.3)"></ellipse><ellipse cx="921.1" cy="875.1" rx="68.5" ry="41.6" fill="#6b5230" opacity="0.31" filter="url(#fxSoftBlur)" transform="rotate(-8.2 921.1 875.1)"></ellipse><ellipse cx="1004.2" cy="996.9" rx="90.6" ry="80.4" fill="#5a4526" opacity="0.39" filter="url(#fxSoftBlur)" transform="rotate(6.1 1004.2 996.9)"></ellipse><ellipse cx="-19.8" cy="996.9" rx="77.6" ry="67.7" fill="#5a4526" opacity="0.39" filter="url(#fxSoftBlur)" transform="rotate(15.4 -19.8 996.9)"></ellipse><ellipse cx="1004.2" cy="-27.1" rx="82.8" ry="43.9" fill="#5a4526" opacity="0.39" filter="url(#fxSoftBlur)" transform="rotate(8.6 1004.2 -27.1)"></ellipse><ellipse cx="-19.8" cy="-27.1" rx="58.9" ry="43.1" fill="#5a4526" opacity="0.39" filter="url(#fxSoftBlur)" transform="rotate(-1.1 -19.8 -27.1)"></ellipse>
  
  
  
  <path d="M84.6 569.6 L88.8 549.6 M90.6 569.6 L91.4 546.6 M96.5 569.6 L93.5 552.6" stroke="#2f4222" stroke-width="1.4" fill="none" opacity="0.29" stroke-linecap="round"></path><path d="M16.8 391.0 L19.6 366.1 M20.8 391.0 L21.4 362.4 M24.8 391.0 L22.8 369.8" stroke="#2f4222" stroke-width="1.4" fill="none" opacity="0.22" stroke-linecap="round"></path><path d="M1040.8 391.0 L1043.6 366.1 M1044.8 391.0 L1045.4 362.4 M1048.8 391.0 L1046.8 369.8" stroke="#2f4222" stroke-width="1.4" fill="none" opacity="0.20" stroke-linecap="round"></path><path d="M275.4 909.4 L278.7 888.5 M280.1 909.4 L280.8 885.3 M284.8 909.4 L282.5 891.6" stroke="#2f4222" stroke-width="1.4" fill="none" opacity="0.30" stroke-linecap="round"></path><path d="M520.4 926.9 L523.7 913.7 M525.1 926.9 L525.8 911.7 M529.8 926.9 L527.5 915.7" stroke="#2f4222" stroke-width="1.4" fill="none" opacity="0.31" stroke-linecap="round"></path><path d="M739.6 370.6 L742.1 346.0 M743.2 370.6 L743.7 342.3 M746.7 370.6 L744.9 349.7" stroke="#2f4222" stroke-width="1.4" fill="none" opacity="0.30" stroke-linecap="round"></path><path d="M228.2 59.5 L232.6 37.5 M234.5 59.5 L235.5 34.2 M240.9 59.5 L237.7 40.8" stroke="#2f4222" stroke-width="1.4" fill="none" opacity="0.26" stroke-linecap="round"></path><path d="M308.3 604.4 L312.1 580.8 M313.7 604.4 L314.5 577.3 M319.0 604.4 L316.3 584.4" stroke="#2f4222" stroke-width="1.4" fill="none" opacity="0.30" stroke-linecap="round"></path><path d="M802.9 75.6 L806.5 50.8 M808.1 75.6 L808.9 47.1 M813.3 75.6 L810.7 54.6" stroke="#2f4222" stroke-width="1.4" fill="none" opacity="0.32" stroke-linecap="round"></path><path d="M689.3 659.4 L692.4 646.4 M693.7 659.4 L694.4 644.5 M698.1 659.4 L695.9 648.4" stroke="#2f4222" stroke-width="1.4" fill="none" opacity="0.23" stroke-linecap="round"></path><path d="M130.3 430.6 L132.8 410.6 M133.9 430.6 L134.4 407.6 M137.5 430.6 L135.7 413.6" stroke="#2f4222" stroke-width="1.4" fill="none" opacity="0.30" stroke-linecap="round"></path><path d="M572.0 1001.4 L574.2 979.5 M575.2 1001.4 L575.6 976.2 M578.3 1001.4 L576.7 982.8" stroke="#2f4222" stroke-width="1.4" fill="none" opacity="0.24" stroke-linecap="round"></path><path d="M572.0 -22.6 L574.2 -44.5 M575.2 -22.6 L575.6 -47.8 M578.3 -22.6 L576.7 -41.2" stroke="#2f4222" stroke-width="1.4" fill="none" opacity="0.21" stroke-linecap="round"></path><path d="M298.2 989.1 L300.8 969.6 M301.9 989.1 L302.4 966.6 M305.5 989.1 L303.7 972.5" stroke="#2f4222" stroke-width="1.4" fill="none" opacity="0.22" stroke-linecap="round"></path><path d="M348.4 380.0 L351.6 369.0 M352.9 380.0 L353.6 367.3 M357.5 380.0 L355.2 370.6" stroke="#2f4222" stroke-width="1.4" fill="none" opacity="0.32" stroke-linecap="round"></path><path d="M353.9 769.9 L356.8 751.9 M358.0 769.9 L358.6 749.3 M362.1 769.9 L360.0 754.6" stroke="#2f4222" stroke-width="1.4" fill="none" opacity="0.23" stroke-linecap="round"></path><path d="M586.9 252.1 L589.3 229.1 M590.3 252.1 L590.9 225.7 M593.8 252.1 L592.1 232.6" stroke="#2f4222" stroke-width="1.4" fill="none" opacity="0.24" stroke-linecap="round"></path><path d="M490.1 623.8 L492.8 607.4 M494.0 623.8 L494.5 604.9 M497.9 623.8 L495.9 609.9" stroke="#2f4222" stroke-width="1.4" fill="none" opacity="0.19" stroke-linecap="round"></path><path d="M666.2 595.8 L670.4 572.9 M672.2 595.8 L673.1 569.5 M678.2 595.8 L675.2 576.4" stroke="#2f4222" stroke-width="1.4" fill="none" opacity="0.31" stroke-linecap="round"></path><path d="M837.3 112.3 L841.4 92.7 M843.2 112.3 L844.1 89.8 M849.1 112.3 L846.2 95.7" stroke="#2f4222" stroke-width="1.4" fill="none" opacity="0.30" stroke-linecap="round"></path><path d="M103.1 876.5 L107.2 852.5 M109.0 876.5 L109.9 848.9 M114.9 876.5 L112.0 856.1" stroke="#2f4222" stroke-width="1.4" fill="none" opacity="0.24" stroke-linecap="round"></path><path d="M960.2 128.5 L964.1 106.7 M965.7 128.5 L966.5 103.5 M971.2 128.5 L968.5 110.0" stroke="#2f4222" stroke-width="1.4" fill="none" opacity="0.21" stroke-linecap="round"></path><path d="M604.1 296.5 L607.1 279.0 M608.4 296.5 L609.0 276.3 M612.6 296.5 L610.5 281.6" stroke="#2f4222" stroke-width="1.4" fill="none" opacity="0.20" stroke-linecap="round"></path><path d="M305.1 1014.0 L307.8 993.5 M308.9 1014.0 L309.5 990.4 M312.6 1014.0 L310.8 996.6" stroke="#2f4222" stroke-width="1.4" fill="none" opacity="0.19" stroke-linecap="round"></path><path d="M305.1 -10.0 L307.8 -30.5 M308.9 -10.0 L309.5 -33.6 M312.6 -10.0 L310.8 -27.4" stroke="#2f4222" stroke-width="1.4" fill="none" opacity="0.22" stroke-linecap="round"></path><path d="M508.2 351.2 L512.3 332.1 M514.0 351.2 L514.9 329.2 M519.9 351.2 L517.0 335.0" stroke="#2f4222" stroke-width="1.4" fill="none" opacity="0.33" stroke-linecap="round"></path><path d="M358.9 889.6 L363.3 878.1 M365.2 889.6 L366.1 876.4 M371.5 889.6 L368.3 879.8" stroke="#2f4222" stroke-width="1.4" fill="none" opacity="0.25" stroke-linecap="round"></path><path d="M457.4 186.6 L460.4 176.2 M461.7 186.6 L462.3 174.7 M466.0 186.6 L463.8 177.8" stroke="#2f4222" stroke-width="1.4" fill="none" opacity="0.23" stroke-linecap="round"></path><path d="M32.1 313.8 L34.6 293.2 M35.7 313.8 L36.3 290.1 M39.3 313.8 L37.5 296.3" stroke="#2f4222" stroke-width="1.4" fill="none" opacity="0.30" stroke-linecap="round"></path><path d="M377.5 416.5 L379.7 397.4 M380.6 416.5 L381.1 394.6 M383.7 416.5 L382.1 400.3" stroke="#2f4222" stroke-width="1.4" fill="none" opacity="0.24" stroke-linecap="round"></path><path d="M493.8 513.8 L496.6 489.6 M497.8 513.8 L498.4 486.0 M501.8 513.8 L499.8 493.2" stroke="#2f4222" stroke-width="1.4" fill="none" opacity="0.19" stroke-linecap="round"></path><path d="M162.3 399.6 L165.7 381.5 M167.1 399.6 L167.8 378.8 M171.9 399.6 L169.5 384.2" stroke="#2f4222" stroke-width="1.4" fill="none" opacity="0.34" stroke-linecap="round"></path><path d="M75.5 679.6 L78.0 654.9 M79.0 679.6 L79.5 651.2 M82.5 679.6 L80.7 658.6" stroke="#2f4222" stroke-width="1.4" fill="none" opacity="0.23" stroke-linecap="round"></path><path d="M537.2 454.6 L541.3 429.1 M543.1 454.6 L543.9 425.3 M548.9 454.6 L546.0 432.9" stroke="#2f4222" stroke-width="1.4" fill="none" opacity="0.24" stroke-linecap="round"></path><path d="M191.4 412.2 L193.6 388.4 M194.6 412.2 L195.0 384.8 M197.8 412.2 L196.2 392.0" stroke="#2f4222" stroke-width="1.4" fill="none" opacity="0.33" stroke-linecap="round"></path><path d="M661.2 51.6 L665.1 29.7 M666.8 51.6 L667.6 26.4 M672.4 51.6 L669.6 33.0" stroke="#2f4222" stroke-width="1.4" fill="none" opacity="0.30" stroke-linecap="round"></path><path d="M532.6 684.4 L536.3 668.1 M537.9 684.4 L538.7 665.7 M543.2 684.4 L540.5 670.6" stroke="#2f4222" stroke-width="1.4" fill="none" opacity="0.19" stroke-linecap="round"></path><path d="M693.0 605.1 L697.3 589.6 M699.2 605.1 L700.1 587.2 M705.4 605.1 L702.3 591.9" stroke="#2f4222" stroke-width="1.4" fill="none" opacity="0.20" stroke-linecap="round"></path><path d="M185.4 273.8 L189.3 248.3 M190.9 273.8 L191.8 244.5 M196.5 273.8 L193.7 252.2" stroke="#2f4222" stroke-width="1.4" fill="none" opacity="0.19" stroke-linecap="round"></path><path d="M501.1 597.0 L503.7 575.8 M504.8 597.0 L505.3 572.7 M508.5 597.0 L506.6 579.0" stroke="#2f4222" stroke-width="1.4" fill="none" opacity="0.25" stroke-linecap="round"></path><path d="M523.4 630.9 L527.2 609.1 M528.8 630.9 L529.6 605.8 M534.2 630.9 L531.5 612.3" stroke="#2f4222" stroke-width="1.4" fill="none" opacity="0.32" stroke-linecap="round"></path><path d="M1016.2 877.4 L1019.1 863.7 M1020.4 877.4 L1021.0 861.7 M1024.5 877.4 L1022.4 865.8" stroke="#2f4222" stroke-width="1.4" fill="none" opacity="0.18" stroke-linecap="round"></path><path d="M-7.8 877.4 L-4.9 863.7 M-3.6 877.4 L-3.0 861.7 M0.5 877.4 L-1.6 865.8" stroke="#2f4222" stroke-width="1.4" fill="none" opacity="0.25" stroke-linecap="round"></path><path d="M442.5 620.6 L445.5 599.3 M446.8 620.6 L447.4 596.1 M451.0 620.6 L448.9 602.5" stroke="#2f4222" stroke-width="1.4" fill="none" opacity="0.31" stroke-linecap="round"></path><path d="M928.4 205.3 L932.4 185.7 M934.1 205.3 L934.9 182.7 M939.8 205.3 L936.9 188.6" stroke="#2f4222" stroke-width="1.4" fill="none" opacity="0.31" stroke-linecap="round"></path><path d="M504.4 467.9 L506.6 446.0 M507.6 467.9 L508.1 442.7 M510.7 467.9 L509.2 449.3" stroke="#2f4222" stroke-width="1.4" fill="none" opacity="0.26" stroke-linecap="round"></path><path d="M547.2 680.4 L550.7 665.9 M552.1 680.4 L552.9 663.7 M557.0 680.4 L554.6 668.1" stroke="#2f4222" stroke-width="1.4" fill="none" opacity="0.27" stroke-linecap="round"></path><path d="M50.7 190.6 L55.2 166.0 M57.2 190.6 L58.1 162.3 M63.6 190.6 L60.4 169.7" stroke="#2f4222" stroke-width="1.4" fill="none" opacity="0.30" stroke-linecap="round"></path><path d="M1001.5 909.5 L1004.8 887.7 M1006.2 909.5 L1006.9 884.4 M1010.9 909.5 L1008.5 891.0" stroke="#2f4222" stroke-width="1.4" fill="none" opacity="0.30" stroke-linecap="round"></path><path d="M-22.5 909.5 L-19.2 887.7 M-17.8 909.5 L-17.1 884.4 M-13.1 909.5 L-15.5 891.0" stroke="#2f4222" stroke-width="1.4" fill="none" opacity="0.32" stroke-linecap="round"></path><path d="M404.9 871.2 L408.9 850.3 M410.7 871.2 L411.6 847.2 M416.5 871.2 L413.6 853.4" stroke="#2f4222" stroke-width="1.4" fill="none" opacity="0.32" stroke-linecap="round"></path><path d="M348.4 175.6 L352.2 164.3 M353.8 175.6 L354.5 162.6 M359.1 175.6 L356.4 166.0" stroke="#2f4222" stroke-width="1.4" fill="none" opacity="0.29" stroke-linecap="round"></path><path d="M12.7 573.7 L15.6 554.0 M16.9 573.7 L17.5 551.1 M21.1 573.7 L19.0 557.0" stroke="#2f4222" stroke-width="1.4" fill="none" opacity="0.20" stroke-linecap="round"></path><path d="M1036.7 573.7 L1039.6 554.0 M1040.9 573.7 L1041.5 551.1 M1045.1 573.7 L1043.0 557.0" stroke="#2f4222" stroke-width="1.4" fill="none" opacity="0.24" stroke-linecap="round"></path><path d="M30.6 246.0 L33.1 228.8 M34.2 246.0 L34.7 226.2 M37.8 246.0 L36.0 231.3" stroke="#2f4222" stroke-width="1.4" fill="none" opacity="0.33" stroke-linecap="round"></path><path d="M620.8 277.1 L624.7 259.3 M626.3 277.1 L627.2 256.6 M631.8 277.1 L629.1 261.9" stroke="#2f4222" stroke-width="1.4" fill="none" opacity="0.18" stroke-linecap="round"></path><path d="M823.3 176.7 L826.8 156.4 M828.3 176.7 L829.0 153.4 M833.3 176.7 L830.8 159.5" stroke="#2f4222" stroke-width="1.4" fill="none" opacity="0.20" stroke-linecap="round"></path><path d="M608.5 956.2 L612.7 942.9 M614.5 956.2 L615.4 940.9 M620.4 956.2 L617.4 944.9" stroke="#2f4222" stroke-width="1.4" fill="none" opacity="0.31" stroke-linecap="round"></path>
  <g transform="rotate(132.2 45.9 836.6)"><ellipse cx="45.9" cy="838.5" rx="6.3" ry="2.7" fill="#1a1712" opacity="0.35" filter="url(#fxSoftBlur)"></ellipse><ellipse cx="45.9" cy="836.6" rx="6.0" ry="4.7" fill="#7a7166"></ellipse><ellipse cx="44.3" cy="834.9" rx="2.4" ry="1.6" fill="#c8c0ae" opacity="0.5"></ellipse></g><g transform="rotate(28.0 290.4 249.8)"><ellipse cx="290.4" cy="251.9" rx="6.7" ry="2.9" fill="#1a1712" opacity="0.35" filter="url(#fxSoftBlur)"></ellipse><ellipse cx="290.4" cy="249.8" rx="6.4" ry="5.0" fill="#8a8176"></ellipse><ellipse cx="288.6" cy="248.1" rx="2.5" ry="1.7" fill="#c8c0ae" opacity="0.5"></ellipse></g><g transform="rotate(243.5 276.7 397.1)"><ellipse cx="276.7" cy="398.2" rx="3.6" ry="1.5" fill="#1a1712" opacity="0.35" filter="url(#fxSoftBlur)"></ellipse><ellipse cx="276.7" cy="397.1" rx="3.4" ry="2.6" fill="#7a7166"></ellipse><ellipse cx="275.8" cy="396.1" rx="1.4" ry="0.9" fill="#c8c0ae" opacity="0.5"></ellipse></g><g transform="rotate(205.3 465.3 545.7)"><ellipse cx="465.3" cy="546.9" rx="4.0" ry="1.7" fill="#1a1712" opacity="0.35" filter="url(#fxSoftBlur)"></ellipse><ellipse cx="465.3" cy="545.7" rx="3.8" ry="3.0" fill="#8a8176"></ellipse><ellipse cx="464.2" cy="544.6" rx="1.5" ry="1.0" fill="#c8c0ae" opacity="0.5"></ellipse></g><g transform="rotate(320.1 832.7 396.0)"><ellipse cx="832.7" cy="397.9" rx="6.2" ry="2.6" fill="#1a1712" opacity="0.35" filter="url(#fxSoftBlur)"></ellipse><ellipse cx="832.7" cy="396.0" rx="5.9" ry="4.6" fill="#8a8176"></ellipse><ellipse cx="831.0" cy="394.4" rx="2.3" ry="1.5" fill="#c8c0ae" opacity="0.5"></ellipse></g><g transform="rotate(265.4 636.5 4.7)"><ellipse cx="636.5" cy="7.2" rx="8.3" ry="3.5" fill="#1a1712" opacity="0.35" filter="url(#fxSoftBlur)"></ellipse><ellipse cx="636.5" cy="4.7" rx="7.9" ry="6.1" fill="#8a8176"></ellipse><ellipse cx="634.3" cy="2.5" rx="3.1" ry="2.0" fill="#c8c0ae" opacity="0.5"></ellipse></g><g transform="rotate(265.4 636.5 1028.7)"><ellipse cx="636.5" cy="1031.2" rx="8.3" ry="3.5" fill="#1a1712" opacity="0.35" filter="url(#fxSoftBlur)"></ellipse><ellipse cx="636.5" cy="1028.7" rx="7.9" ry="6.1" fill="#8a8176"></ellipse><ellipse cx="634.3" cy="1026.5" rx="3.1" ry="2.0" fill="#c8c0ae" opacity="0.5"></ellipse></g><g transform="rotate(217.7 922.0 547.2)"><ellipse cx="922.0" cy="549.1" rx="6.3" ry="2.7" fill="#1a1712" opacity="0.35" filter="url(#fxSoftBlur)"></ellipse><ellipse cx="922.0" cy="547.2" rx="6.0" ry="4.7" fill="#7a7166"></ellipse><ellipse cx="920.3" cy="545.6" rx="2.4" ry="1.6" fill="#c8c0ae" opacity="0.5"></ellipse></g><g transform="rotate(217.0 905.8 593.5)"><ellipse cx="905.8" cy="594.7" rx="3.7" ry="1.6" fill="#1a1712" opacity="0.35" filter="url(#fxSoftBlur)"></ellipse><ellipse cx="905.8" cy="593.5" rx="3.5" ry="2.8" fill="#8a8176"></ellipse><ellipse cx="904.8" cy="592.5" rx="1.4" ry="0.9" fill="#c8c0ae" opacity="0.5"></ellipse></g><g transform="rotate(321.4 53.1 475.0)"><ellipse cx="53.1" cy="476.4" rx="4.5" ry="1.9" fill="#1a1712" opacity="0.35" filter="url(#fxSoftBlur)"></ellipse><ellipse cx="53.1" cy="475.0" rx="4.3" ry="3.4" fill="#7a7166"></ellipse><ellipse cx="51.9" cy="473.8" rx="1.7" ry="1.1" fill="#c8c0ae" opacity="0.5"></ellipse></g><g transform="rotate(22.2 939.1 442.5)"><ellipse cx="939.1" cy="444.4" rx="6.1" ry="2.6" fill="#1a1712" opacity="0.35" filter="url(#fxSoftBlur)"></ellipse><ellipse cx="939.1" cy="442.5" rx="5.8" ry="4.5" fill="#8a8176"></ellipse><ellipse cx="937.5" cy="440.9" rx="2.3" ry="1.5" fill="#c8c0ae" opacity="0.5"></ellipse></g><g transform="rotate(194.2 637.7 953.8)"><ellipse cx="637.7" cy="955.7" rx="6.5" ry="2.8" fill="#1a1712" opacity="0.35" filter="url(#fxSoftBlur)"></ellipse><ellipse cx="637.7" cy="953.8" rx="6.2" ry="4.8" fill="#7a7166"></ellipse><ellipse cx="636.0" cy="952.0" rx="2.5" ry="1.6" fill="#c8c0ae" opacity="0.5"></ellipse></g><g transform="rotate(121.2 164.5 263.9)"><ellipse cx="164.5" cy="265.5" rx="5.1" ry="2.2" fill="#1a1712" opacity="0.35" filter="url(#fxSoftBlur)"></ellipse><ellipse cx="164.5" cy="263.9" rx="4.8" ry="3.8" fill="#8a8176"></ellipse><ellipse cx="163.1" cy="262.6" rx="1.9" ry="1.3" fill="#c8c0ae" opacity="0.5"></ellipse></g><g transform="rotate(107.5 198.7 417.0)"><ellipse cx="198.7" cy="418.5" rx="4.7" ry="2.0" fill="#1a1712" opacity="0.35" filter="url(#fxSoftBlur)"></ellipse><ellipse cx="198.7" cy="417.0" rx="4.5" ry="3.5" fill="#8a8176"></ellipse><ellipse cx="197.5" cy="415.8" rx="1.8" ry="1.2" fill="#c8c0ae" opacity="0.5"></ellipse></g><g transform="rotate(0.4 566.8 168.7)"><ellipse cx="566.8" cy="170.7" rx="6.6" ry="2.8" fill="#1a1712" opacity="0.35" filter="url(#fxSoftBlur)"></ellipse><ellipse cx="566.8" cy="168.7" rx="6.3" ry="4.9" fill="#8a8176"></ellipse><ellipse cx="565.0" cy="166.9" rx="2.5" ry="1.6" fill="#c8c0ae" opacity="0.5"></ellipse></g><g transform="rotate(321.8 291.0 482.8)"><ellipse cx="291.0" cy="484.3" rx="4.9" ry="2.1" fill="#1a1712" opacity="0.35" filter="url(#fxSoftBlur)"></ellipse><ellipse cx="291.0" cy="482.8" rx="4.7" ry="3.7" fill="#7a7166"></ellipse><ellipse cx="289.7" cy="481.5" rx="1.9" ry="1.2" fill="#c8c0ae" opacity="0.5"></ellipse></g><g transform="rotate(217.7 479.9 715.3)"><ellipse cx="479.9" cy="716.5" rx="3.8" ry="1.6" fill="#1a1712" opacity="0.35" filter="url(#fxSoftBlur)"></ellipse><ellipse cx="479.9" cy="715.3" rx="3.6" ry="2.8" fill="#7a7166"></ellipse><ellipse cx="478.9" cy="714.3" rx="1.4" ry="0.9" fill="#c8c0ae" opacity="0.5"></ellipse></g>
  <ellipse cx="455.0" cy="703.7" rx="5.8" ry="4.1" fill="#2f4222" opacity="0.58"></ellipse><ellipse cx="355.9" cy="279.2" rx="3.0" ry="2.1" fill="#5a5a52" opacity="0.51"></ellipse><ellipse cx="417.4" cy="207.4" rx="5.8" ry="4.1" fill="#5a5a52" opacity="0.39"></ellipse><ellipse cx="290.3" cy="941.1" rx="2.9" ry="2.1" fill="#5a5a52" opacity="0.44"></ellipse><ellipse cx="51.6" cy="271.0" rx="4.2" ry="3.0" fill="#8a9a6a" opacity="0.47"></ellipse><ellipse cx="706.8" cy="286.7" rx="5.0" ry="3.5" fill="#8a9a6a" opacity="0.35"></ellipse><ellipse cx="883.6" cy="20.8" rx="3.8" ry="2.6" fill="#2f4222" opacity="0.52"></ellipse><ellipse cx="972.6" cy="693.9" rx="5.7" ry="4.0" fill="#5a5a52" opacity="0.46"></ellipse><ellipse cx="479.1" cy="567.6" rx="2.4" ry="1.7" fill="#2f4222" opacity="0.36"></ellipse><ellipse cx="1016.9" cy="621.5" rx="6.2" ry="4.3" fill="#2f4222" opacity="0.55"></ellipse><ellipse cx="-7.1" cy="621.5" rx="6.2" ry="4.3" fill="#2f4222" opacity="0.55"></ellipse><ellipse cx="972.5" cy="844.6" rx="3.6" ry="2.5" fill="#3a352e" opacity="0.48"></ellipse><ellipse cx="150.8" cy="224.0" rx="4.0" ry="2.8" fill="#2f4222" opacity="0.53"></ellipse><ellipse cx="340.5" cy="489.0" rx="4.8" ry="3.3" fill="#2f4222" opacity="0.35"></ellipse><ellipse cx="699.7" cy="548.7" rx="4.9" ry="3.4" fill="#8a9a6a" opacity="0.37"></ellipse><ellipse cx="450.7" cy="98.9" rx="2.6" ry="1.8" fill="#2f4222" opacity="0.63"></ellipse><ellipse cx="553.1" cy="211.9" rx="4.4" ry="3.1" fill="#8a9a6a" opacity="0.38"></ellipse><ellipse cx="131.8" cy="380.7" rx="3.6" ry="2.5" fill="#8a9a6a" opacity="0.48"></ellipse><ellipse cx="555.2" cy="362.5" rx="2.2" ry="1.5" fill="#3a352e" opacity="0.30"></ellipse><ellipse cx="82.0" cy="374.3" rx="3.3" ry="2.3" fill="#8a9a6a" opacity="0.55"></ellipse><ellipse cx="173.7" cy="417.1" rx="5.9" ry="4.1" fill="#5a5a52" opacity="0.47"></ellipse><ellipse cx="749.2" cy="682.5" rx="4.4" ry="3.1" fill="#2f4222" opacity="0.51"></ellipse><ellipse cx="80.1" cy="320.5" rx="3.4" ry="2.4" fill="#3a352e" opacity="0.36"></ellipse><ellipse cx="618.9" cy="709.7" rx="5.1" ry="3.6" fill="#5a5a52" opacity="0.53"></ellipse><ellipse cx="268.8" cy="376.5" rx="2.7" ry="1.9" fill="#5a5a52" opacity="0.59"></ellipse><ellipse cx="132.7" cy="237.0" rx="3.1" ry="2.2" fill="#3a352e" opacity="0.52"></ellipse><ellipse cx="996.9" cy="894.2" rx="4.8" ry="3.3" fill="#5a5a52" opacity="0.33"></ellipse><ellipse cx="136.5" cy="211.1" rx="6.4" ry="4.5" fill="#5a5a52" opacity="0.53"></ellipse><ellipse cx="230.6" cy="865.9" rx="3.4" ry="2.4" fill="#8a9a6a" opacity="0.31"></ellipse><ellipse cx="852.8" cy="461.1" rx="4.1" ry="2.9" fill="#3a352e" opacity="0.42"></ellipse><ellipse cx="39.1" cy="870.4" rx="2.1" ry="1.5" fill="#8a9a6a" opacity="0.60"></ellipse><ellipse cx="38.4" cy="358.3" rx="2.5" ry="1.7" fill="#5a5a52" opacity="0.58"></ellipse><ellipse cx="936.7" cy="740.1" rx="4.7" ry="3.3" fill="#2f4222" opacity="0.58"></ellipse><ellipse cx="400.6" cy="121.3" rx="6.1" ry="4.3" fill="#8a9a6a" opacity="0.34"></ellipse><ellipse cx="455.5" cy="494.3" rx="4.6" ry="3.2" fill="#3a352e" opacity="0.31"></ellipse><ellipse cx="739.6" cy="342.4" rx="2.1" ry="1.4" fill="#8a9a6a" opacity="0.54"></ellipse><ellipse cx="815.5" cy="484.6" rx="3.2" ry="2.2" fill="#3a352e" opacity="0.65"></ellipse><ellipse cx="319.0" cy="599.2" rx="3.2" ry="2.2" fill="#2f4222" opacity="0.55"></ellipse><ellipse cx="90.6" cy="378.0" rx="6.9" ry="4.8" fill="#5a5a52" opacity="0.63"></ellipse><ellipse cx="24.7" cy="656.9" rx="5.7" ry="4.0" fill="#5a5a52" opacity="0.48"></ellipse><ellipse cx="381.4" cy="419.4" rx="3.0" ry="2.1" fill="#8a9a6a" opacity="0.56"></ellipse><ellipse cx="936.2" cy="176.4" rx="4.6" ry="3.2" fill="#2f4222" opacity="0.49"></ellipse><ellipse cx="324.3" cy="859.8" rx="2.7" ry="1.9" fill="#3a352e" opacity="0.40"></ellipse><ellipse cx="453.3" cy="911.8" rx="2.3" ry="1.6" fill="#8a9a6a" opacity="0.59"></ellipse><ellipse cx="631.0" cy="44.2" rx="2.9" ry="2.0" fill="#8a9a6a" opacity="0.31"></ellipse><ellipse cx="321.8" cy="658.7" rx="3.5" ry="2.4" fill="#3a352e" opacity="0.32"></ellipse><ellipse cx="233.2" cy="292.3" rx="2.1" ry="1.5" fill="#8a9a6a" opacity="0.55"></ellipse>
  <ellipse cx="63.7" cy="481.5" rx="2.0" ry="1.4" fill="#8a9a6a" opacity="0.26"></ellipse><ellipse cx="35.7" cy="935.3" rx="2.2" ry="1.5" fill="#5a5a52" opacity="0.35"></ellipse><ellipse cx="917.7" cy="493.2" rx="2.1" ry="1.5" fill="#2f4222" opacity="0.21"></ellipse><ellipse cx="329.8" cy="1017.6" rx="1.4" ry="0.9" fill="#3a352e" opacity="0.24"></ellipse><ellipse cx="65.1" cy="207.7" rx="1.2" ry="0.8" fill="#5a5a52" opacity="0.38"></ellipse><ellipse cx="11.2" cy="686.8" rx="2.3" ry="1.6" fill="#3a352e" opacity="0.32"></ellipse><ellipse cx="207.1" cy="988.2" rx="1.4" ry="1.0" fill="#5a5a52" opacity="0.33"></ellipse><ellipse cx="860.2" cy="262.2" rx="1.8" ry="1.3" fill="#2f4222" opacity="0.26"></ellipse><ellipse cx="720.5" cy="517.7" rx="1.9" ry="1.3" fill="#8a9a6a" opacity="0.32"></ellipse><ellipse cx="512.7" cy="28.7" rx="1.5" ry="1.1" fill="#5a5a52" opacity="0.23"></ellipse><ellipse cx="188.0" cy="186.5" rx="2.0" ry="1.4" fill="#2f4222" opacity="0.22"></ellipse><ellipse cx="86.1" cy="366.5" rx="2.0" ry="1.4" fill="#3a352e" opacity="0.22"></ellipse><ellipse cx="729.4" cy="34.5" rx="2.2" ry="1.5" fill="#8a9a6a" opacity="0.22"></ellipse><ellipse cx="92.1" cy="964.3" rx="1.6" ry="1.1" fill="#5a5a52" opacity="0.26"></ellipse><ellipse cx="43.2" cy="878.4" rx="1.3" ry="0.9" fill="#5a5a52" opacity="0.24"></ellipse><ellipse cx="383.2" cy="528.0" rx="2.0" ry="1.4" fill="#8a9a6a" opacity="0.23"></ellipse><ellipse cx="829.1" cy="835.9" rx="1.7" ry="1.2" fill="#5a5a52" opacity="0.20"></ellipse><ellipse cx="655.2" cy="933.7" rx="1.5" ry="1.1" fill="#2f4222" opacity="0.34"></ellipse><ellipse cx="335.5" cy="851.4" rx="2.2" ry="1.6" fill="#8a9a6a" opacity="0.39"></ellipse><ellipse cx="538.8" cy="268.1" rx="1.0" ry="0.7" fill="#3a352e" opacity="0.35"></ellipse><ellipse cx="117.0" cy="569.6" rx="2.4" ry="1.7" fill="#5a5a52" opacity="0.26"></ellipse><ellipse cx="979.7" cy="713.2" rx="2.2" ry="1.6" fill="#5a5a52" opacity="0.33"></ellipse><ellipse cx="779.8" cy="778.2" rx="1.3" ry="0.9" fill="#5a5a52" opacity="0.27"></ellipse><ellipse cx="945.2" cy="927.7" rx="1.7" ry="1.2" fill="#5a5a52" opacity="0.24"></ellipse><ellipse cx="320.6" cy="502.7" rx="2.0" ry="1.4" fill="#3a352e" opacity="0.20"></ellipse><ellipse cx="607.6" cy="391.6" rx="1.9" ry="1.3" fill="#3a352e" opacity="0.30"></ellipse><ellipse cx="827.4" cy="883.6" rx="2.1" ry="1.5" fill="#3a352e" opacity="0.34"></ellipse><ellipse cx="254.8" cy="295.9" rx="1.8" ry="1.2" fill="#3a352e" opacity="0.28"></ellipse><ellipse cx="302.4" cy="706.5" rx="1.4" ry="1.0" fill="#2f4222" opacity="0.35"></ellipse><ellipse cx="247.0" cy="376.2" rx="1.5" ry="1.1" fill="#5a5a52" opacity="0.38"></ellipse><ellipse cx="987.3" cy="401.8" rx="1.6" ry="1.1" fill="#8a9a6a" opacity="0.38"></ellipse><ellipse cx="797.2" cy="524.3" rx="1.7" ry="1.2" fill="#8a9a6a" opacity="0.31"></ellipse><ellipse cx="566.6" cy="209.5" rx="2.5" ry="1.7" fill="#2f4222" opacity="0.21"></ellipse><ellipse cx="797.1" cy="987.0" rx="1.8" ry="1.3" fill="#8a9a6a" opacity="0.39"></ellipse><ellipse cx="584.6" cy="499.0" rx="1.2" ry="0.8" fill="#2f4222" opacity="0.28"></ellipse><ellipse cx="0.7" cy="255.9" rx="1.7" ry="1.2" fill="#5a5a52" opacity="0.29"></ellipse><ellipse cx="1024.7" cy="255.9" rx="1.7" ry="1.2" fill="#5a5a52" opacity="0.29"></ellipse><ellipse cx="568.1" cy="966.6" rx="1.6" ry="1.1" fill="#5a5a52" opacity="0.24"></ellipse><ellipse cx="433.8" cy="815.8" rx="1.2" ry="0.8" fill="#5a5a52" opacity="0.29"></ellipse><ellipse cx="591.5" cy="974.4" rx="2.1" ry="1.5" fill="#8a9a6a" opacity="0.37"></ellipse><ellipse cx="728.2" cy="46.9" rx="2.0" ry="1.4" fill="#5a5a52" opacity="0.27"></ellipse><ellipse cx="179.7" cy="310.5" rx="2.1" ry="1.5" fill="#5a5a52" opacity="0.23"></ellipse><ellipse cx="699.8" cy="805.7" rx="1.7" ry="1.2" fill="#5a5a52" opacity="0.37"></ellipse><ellipse cx="98.6" cy="439.7" rx="1.1" ry="0.8" fill="#2f4222" opacity="0.23"></ellipse><ellipse cx="829.5" cy="208.1" rx="2.0" ry="1.4" fill="#8a9a6a" opacity="0.25"></ellipse><ellipse cx="388.3" cy="988.0" rx="1.3" ry="0.9" fill="#8a9a6a" opacity="0.24"></ellipse><ellipse cx="889.0" cy="996.7" rx="1.2" ry="0.8" fill="#8a9a6a" opacity="0.22"></ellipse><ellipse cx="131.1" cy="479.4" rx="1.9" ry="1.3" fill="#3a352e" opacity="0.36"></ellipse><ellipse cx="80.5" cy="802.8" rx="1.8" ry="1.2" fill="#3a352e" opacity="0.39"></ellipse><ellipse cx="671.9" cy="801.6" rx="2.1" ry="1.5" fill="#2f4222" opacity="0.32"></ellipse><ellipse cx="64.5" cy="700.9" rx="2.0" ry="1.4" fill="#2f4222" opacity="0.21"></ellipse><ellipse cx="407.5" cy="991.6" rx="1.4" ry="1.0" fill="#3a352e" opacity="0.26"></ellipse><ellipse cx="483.8" cy="1023.9" rx="1.9" ry="1.3" fill="#3a352e" opacity="0.36"></ellipse><ellipse cx="483.8" cy="-0.1" rx="1.9" ry="1.3" fill="#3a352e" opacity="0.36"></ellipse><ellipse cx="746.7" cy="921.1" rx="1.7" ry="1.2" fill="#5a5a52" opacity="0.31"></ellipse><ellipse cx="20.8" cy="149.2" rx="1.4" ry="1.0" fill="#2f4222" opacity="0.30"></ellipse><ellipse cx="577.3" cy="97.5" rx="2.5" ry="1.7" fill="#8a9a6a" opacity="0.38"></ellipse><ellipse cx="743.6" cy="1008.7" rx="1.1" ry="0.8" fill="#2f4222" opacity="0.22"></ellipse><ellipse cx="694.1" cy="787.2" rx="2.0" ry="1.4" fill="#5a5a52" opacity="0.33"></ellipse><ellipse cx="990.0" cy="716.1" rx="1.3" ry="0.9" fill="#5a5a52" opacity="0.28"></ellipse><ellipse cx="986.2" cy="785.3" rx="1.5" ry="1.1" fill="#8a9a6a" opacity="0.24"></ellipse><ellipse cx="274.5" cy="835.6" rx="2.4" ry="1.7" fill="#5a5a52" opacity="0.34"></ellipse>
  <rect width="1024" height="1024" fill="#808080" filter="url(#grBump)" opacity="0.20" style="mix-blend-mode:overlay"></rect>
  <rect width="1024" height="1024" fill="#808080" filter="url(#grBumpFine)" opacity="0.14" style="mix-blend-mode:overlay"></rect>
  <rect width="1024" height="1024" filter="url(#grGrain)" opacity="0.08" style="mix-blend-mode:overlay" pointer-events="none"></rect>
</svg>