<svg viewBox="0 0 512 512" xmlns="http://www.w3.org/2000/svg">
  <defs><filter id="fxBlur2" x="-60%" y="-60%" width="220%" height="220%"><feGaussianBlur stdDeviation="6"></feGaussianBlur></filter><filter id="fxOutline" x="-40%" y="-40%" width="180%" height="180%"><feTurbulence type="fractalNoise" baseFrequency="0.85" numOctaves="2" seed="7" result="fxn"></feTurbulence><feDisplacementMap in="SourceGraphic" in2="fxn" scale="1.2" xChannelSelector="R" yChannelSelector="G" result="fxrough"></feDisplacementMap><feDropShadow in="fxrough" dx="0" dy="0" stdDeviation="1.3" flood-color="#1c1712" flood-opacity="0.85"></feDropShadow></filter><filter id="fxBlur" x="-60%" y="-60%" width="220%" height="220%"><feGaussianBlur stdDeviation="1.6"></feGaussianBlur></filter>
    <linearGradient id="baseRock" x1="0%" y1="0%" x2="60%" y2="100%">
      <stop offset="0%" stop-color="#6b6259"></stop>
      <stop offset="50%" stop-color="#5a534a"></stop>
      <stop offset="100%" stop-color="#433c34"></stop>
    </linearGradient>
    <filter id="bumpR" x="-20%" y="-20%" width="140%" height="140%">
      <feTurbulence type="fractalNoise" baseFrequency="0.042" numOctaves="4" seed="21" result="n"></feTurbulence>
      <feDiffuseLighting in="n" lighting-color="#ffffff" surfaceScale="3.4" diffuseConstant="1.12">
        <feDistantLight azimuth="235" elevation="43"></feDistantLight>
      </feDiffuseLighting>
    </filter>
    <radialGradient id="vignette2" cx="50%" cy="39%" r="78%">
      <stop offset="0%" stop-color="#ffffff" stop-opacity="0.055"></stop>
      <stop offset="60%" stop-color="#000000" stop-opacity="0"></stop>
      <stop offset="100%" stop-color="#000000" stop-opacity="0.34"></stop>
    </radialGradient>
  <filter id="fxGrain" x="0" y="0" width="100%" height="100%"><feTurbulence type="fractalNoise" baseFrequency="0.9" numOctaves="2" seed="3" result="n"></feTurbulence><feColorMatrix in="n" type="matrix" values="0 0 0 0 0  0 0 0 0 0  0 0 0 0 0  0.9 0 0 0 0"></feColorMatrix></filter></defs><g filter="url(#fxOutline)">

  <rect width="512" height="512" fill="url(#baseRock)"></rect>

  
  <path d="M60 130 L140 100 L175 160 L150 210 L80 200 L40 165 Z" fill="#3a352e" opacity="0.6" filter="url(#fxBlur2)"></path>
  <path d="M330 300 L410 280 L455 340 L430 400 L360 410 L310 360 Z" fill="#3a352e" opacity="0.55" filter="url(#fxBlur2)"></path>
  <path d="M260 60 L310 50 L330 95 L300 120 L265 105 Z" fill="#3a352e" opacity="0.45" filter="url(#fxBlur2)"></path>
  <path d="M120 380 L190 370 L215 415 L175 445 L120 430 Z" fill="#3a352e" opacity="0.5" filter="url(#fxBlur2)"></path>
  <path d="M60 130 L140 100 L120 130 L70 150 Z" fill="#8a8176" opacity="0.35" filter="url(#fxBlur2)"></path>
  <path d="M330 300 L410 280 L380 305 L340 325 Z" fill="#8a8176" opacity="0.3" filter="url(#fxBlur2)"></path>

  
  <path d="M0 270 Q150 230 260 280 T512 260" stroke="#1c1712" stroke-width="5.4" fill="none" opacity="0.25" stroke-linecap="round"></path>
  <path d="M60 0 Q80 120 60 260" stroke="#1c1712" stroke-width="3.6" fill="none" opacity="0.18" stroke-linecap="round"></path>
  <path d="M420 512 Q440 380 400 240" stroke="#1c1712" stroke-width="3.6" fill="none" opacity="0.18" stroke-linecap="round"></path>
  <path d="M207.0 350.4 L210.9 372.2 L213.5 370.7 L199.2 349.4 L202.0 337.2" stroke="#241f1a" stroke-width="1.2" fill="none" opacity="0.16" stroke-linecap="round"></path><path d="M197.3 46.8 L224.0 32.9 L249.1 26.3 L247.4 45.2 L225.7 22.3 L253.3 28.6 L260.6 44.8" stroke="#241f1a" stroke-width="0.8" fill="none" opacity="0.18" stroke-linecap="round"></path><path d="M337.8 188.1 L310.6 187.8 L307.9 178.8 L278.5 182.5 L307.5 172.1 L314.1 164.0 L335.9 135.0" stroke="#241f1a" stroke-width="1.7" fill="none" opacity="0.14" stroke-linecap="round"></path><path d="M102.0 18.1 L106.4 -2.4 L134.2 1.1 L146.1 3.9 L150.1 -22.1" stroke="#241f1a" stroke-width="1.1" fill="none" opacity="0.14" stroke-linecap="round"></path><path d="M350.1 21.1 L378.0 38.2 L402.8 27.8 L377.7 9.2 L358.9 0.1" stroke="#241f1a" stroke-width="1.3" fill="none" opacity="0.24" stroke-linecap="round"></path><path d="M0.7 250.0 L-1.8 240.5 L23.4 218.5 L26.7 244.8" stroke="#241f1a" stroke-width="1.1" fill="none" opacity="0.20" stroke-linecap="round"></path>

  
  <ellipse cx="339.9" cy="472.2" rx="2.8" ry="2.0" fill="#2a2521" opacity="0.62"></ellipse><ellipse cx="244.7" cy="275.2" rx="4.9" ry="3.4" fill="#2a2521" opacity="0.74"></ellipse><ellipse cx="471.7" cy="484.2" rx="3.3" ry="2.3" fill="#4d473f" opacity="0.84"></ellipse><ellipse cx="339.9" cy="266.4" rx="5.5" ry="3.8" fill="#2a2521" opacity="0.71"></ellipse><ellipse cx="343.9" cy="249.2" rx="4.6" ry="3.2" fill="#2a2521" opacity="0.76"></ellipse><ellipse cx="333.5" cy="358.2" rx="4.4" ry="3.1" fill="#7a7166" opacity="0.70"></ellipse><ellipse cx="82.8" cy="45.2" rx="3.7" ry="2.6" fill="#2a2521" opacity="0.55"></ellipse><ellipse cx="200.1" cy="392.6" rx="3.3" ry="2.3" fill="#2a2521" opacity="0.68"></ellipse><ellipse cx="307.9" cy="415.9" rx="6.4" ry="4.5" fill="#7a7166" opacity="0.47"></ellipse><ellipse cx="123.1" cy="363.3" rx="2.9" ry="2.0" fill="#4d473f" opacity="0.59"></ellipse>

  <rect width="512" height="512" fill="#808080" filter="url(#bumpR)" opacity="0.14" style="mix-blend-mode:overlay"></rect>
  <rect width="512" height="512" fill="url(#vignette2)"></rect>
<rect x="0" y="0" width="512" height="512" filter="url(#fxGrain)" opacity="0.1" style="mix-blend-mode:overlay" pointer-events="none"></rect></g></svg>