<svg viewBox="0 0 1024 1024" xmlns="http://www.w3.org/2000/svg">
  <defs>
    <filter id="fxSoftBlur" x="-60%" y="-60%" width="220%" height="220%"><feGaussianBlur stdDeviation="14"></feGaussianBlur></filter>
    
    <filter id="rkMottle" x="0" y="0" width="100%" height="100%">
      <feTurbulence type="fractalNoise" baseFrequency="0.010" numOctaves="4" seed="21" stitchTiles="stitch" x="0" y="0" width="1024" height="1024" result="n"></feTurbulence>
      <feColorMatrix in="n" type="matrix" values="0 0 0 0 0  0 0 0 0 0  0 0 0 0 0  0.55 0.55 0.55 0 -0.35" result="mask"></feColorMatrix>
    </filter>
    <filter id="rkMottle2" x="0" y="0" width="100%" height="100%">
      <feTurbulence type="fractalNoise" baseFrequency="0.028" numOctaves="3" seed="311" stitchTiles="stitch" x="0" y="0" width="1024" height="1024" result="n"></feTurbulence>
      <feColorMatrix in="n" type="matrix" values="0 0 0 0 0  0 0 0 0 0  0 0 0 0 0  0.5 0.5 0.5 0 -0.4"></feColorMatrix>
    </filter>
    <filter id="rkBump" x="0" y="0" width="100%" height="100%">
      <feTurbulence type="fractalNoise" baseFrequency="0.05" numOctaves="5" seed="22" stitchTiles="stitch" x="0" y="0" width="1024" height="1024" result="n"></feTurbulence>
      <feDiffuseLighting in="n" lighting-color="#ffffff" surfaceScale="3.4" diffuseConstant="1.15" result="lit">
        <feDistantLight azimuth="235" elevation="46"></feDistantLight>
      </feDiffuseLighting>
    </filter>
    <filter id="rkBumpFine" x="0" y="0" width="100%" height="100%">
      <feTurbulence type="fractalNoise" baseFrequency="0.160" numOctaves="3" seed="29" stitchTiles="stitch" x="0" y="0" width="1024" height="1024" result="n"></feTurbulence>
      <feDiffuseLighting in="n" lighting-color="#ffffff" surfaceScale="1.6" diffuseConstant="1.0" result="lit">
        <feDistantLight azimuth="235" elevation="55"></feDistantLight>
      </feDiffuseLighting>
    </filter>
    <filter id="rkGrain" x="0" y="0" width="100%" height="100%">
      <feTurbulence type="fractalNoise" baseFrequency="0.9" numOctaves="2" seed="23" stitchTiles="stitch" x="0" y="0" width="1024" height="1024" result="n"></feTurbulence>
      <feColorMatrix in="n" type="matrix" values="0 0 0 0 0  0 0 0 0 0  0 0 0 0 0  0.85 0 0 0 0"></feColorMatrix>
    </filter>
  </defs>
  <rect width="1024" height="1024" fill="#5a534a"></rect>
  <rect width="1024" height="1024" fill="#8a8176" filter="url(#rkMottle)" style="mix-blend-mode:soft-light"></rect>
  <rect width="1024" height="1024" fill="#433c34" filter="url(#rkMottle2)" style="mix-blend-mode:overlay" opacity="0.5"></rect>
  <ellipse cx="505.6" cy="273.5" rx="110.2" ry="71.8" fill="#6b6259" opacity="0.41" filter="url(#fxSoftBlur)" transform="rotate(-8.9 505.6 273.5)"></ellipse><ellipse cx="146.7" cy="353.0" rx="62.4" ry="57.6" fill="#3a352e" opacity="0.30" filter="url(#fxSoftBlur)" transform="rotate(11.8 146.7 353.0)"></ellipse><ellipse cx="162.0" cy="116.1" rx="64.3" ry="45.5" fill="#6b6259" opacity="0.34" filter="url(#fxSoftBlur)" transform="rotate(10.7 162.0 116.1)"></ellipse><ellipse cx="413.2" cy="77.2" rx="61.4" ry="40.3" fill="#6b6259" opacity="0.39" filter="url(#fxSoftBlur)" transform="rotate(-7.7 413.2 77.2)"></ellipse><ellipse cx="419.0" cy="932.1" rx="85.5" ry="59.4" fill="#3a352e" opacity="0.37" filter="url(#fxSoftBlur)" transform="rotate(-5.7 419.0 932.1)"></ellipse><ellipse cx="419.0" cy="-91.9" rx="68.1" ry="63.2" fill="#3a352e" opacity="0.37" filter="url(#fxSoftBlur)" transform="rotate(-8.4 419.0 -91.9)"></ellipse><ellipse cx="140.3" cy="559.2" rx="59.7" ry="23.2" fill="#2e2a24" opacity="0.47" filter="url(#fxSoftBlur)" transform="rotate(-10.8 140.3 559.2)"></ellipse><ellipse cx="828.3" cy="159.8" rx="69.8" ry="71.4" fill="#6b6259" opacity="0.36" filter="url(#fxSoftBlur)" transform="rotate(-16.8 828.3 159.8)"></ellipse><ellipse cx="375.2" cy="314.8" rx="54.8" ry="26.6" fill="#2e2a24" opacity="0.33" filter="url(#fxSoftBlur)" transform="rotate(1.0 375.2 314.8)"></ellipse><ellipse cx="621.9" cy="79.7" rx="61.5" ry="37.3" fill="#3a352e" opacity="0.38" filter="url(#fxSoftBlur)" transform="rotate(-13.7 621.9 79.7)"></ellipse><ellipse cx="660.7" cy="363.7" rx="70.4" ry="43.8" fill="#2e2a24" opacity="0.35" filter="url(#fxSoftBlur)" transform="rotate(5.5 660.7 363.7)"></ellipse><ellipse cx="131.5" cy="763.3" rx="80.6" ry="24.2" fill="#3a352e" opacity="0.35" filter="url(#fxSoftBlur)" transform="rotate(13.1 131.5 763.3)"></ellipse><ellipse cx="277.3" cy="528.9" rx="81.3" ry="73.1" fill="#6b6259" opacity="0.37" filter="url(#fxSoftBlur)" transform="rotate(-2.3 277.3 528.9)"></ellipse><ellipse cx="714.2" cy="495.2" rx="77.3" ry="63.1" fill="#6b6259" opacity="0.42" filter="url(#fxSoftBlur)" transform="rotate(7.2 714.2 495.2)"></ellipse><ellipse cx="169.7" cy="66.5" rx="50.8" ry="46.5" fill="#6b6259" opacity="0.38" filter="url(#fxSoftBlur)" transform="rotate(17.3 169.7 66.5)"></ellipse><ellipse cx="169.7" cy="1090.5" rx="50.3" ry="42.8" fill="#6b6259" opacity="0.38" filter="url(#fxSoftBlur)" transform="rotate(-13.0 169.7 1090.5)"></ellipse><ellipse cx="327.4" cy="649.8" rx="58.7" ry="48.7" fill="#6b6259" opacity="0.32" filter="url(#fxSoftBlur)" transform="rotate(-11.7 327.4 649.8)"></ellipse>
  
  
  <path d="M868.2 973.0 L881.0 946.7 L898.5 937.7 L889.9 948.2 L868.5 962.9" stroke="#1c1712" stroke-width="1.0" fill="none" opacity="0.25" stroke-linecap="round"></path><path d="M868.2 -51.0 L881.0 -77.3 L898.5 -86.3 L889.9 -75.8 L868.5 -61.1" stroke="#1c1712" stroke-width="1.0" fill="none" opacity="0.25" stroke-linecap="round"></path><path d="M631.0 839.0 L622.8 827.4 L651.5 844.2 L634.4 816.9 L619.2 801.2 L607.9 821.7" stroke="#1c1712" stroke-width="1.9" fill="none" opacity="0.20" stroke-linecap="round"></path><path d="M107.6 809.7 L119.0 832.9 L150.5 807.4 L141.2 793.3 L110.1 823.6" stroke="#1c1712" stroke-width="1.2" fill="none" opacity="0.18" stroke-linecap="round"></path><path d="M680.4 594.1 L707.7 582.6 L717.1 554.2 L743.8 562.6" stroke="#1c1712" stroke-width="1.9" fill="none" opacity="0.14" stroke-linecap="round"></path><path d="M424.4 529.9 L432.3 518.5 L418.4 498.1 L430.7 502.5 L424.4 526.3 L408.1 501.5" stroke="#1c1712" stroke-width="1.1" fill="none" opacity="0.22" stroke-linecap="round"></path><path d="M857.4 400.7 L832.2 422.5 L858.0 412.4 L883.5 406.8" stroke="#1c1712" stroke-width="1.1" fill="none" opacity="0.25" stroke-linecap="round"></path><path d="M744.0 117.3 L731.8 112.6 L761.8 106.7 L739.5 132.9 L727.9 111.1" stroke="#1c1712" stroke-width="1.5" fill="none" opacity="0.16" stroke-linecap="round"></path><path d="M562.1 697.7 L547.8 692.8 L532.3 723.5 L511.2 715.5 L500.3 691.4 L521.1 706.1" stroke="#1c1712" stroke-width="1.1" fill="none" opacity="0.24" stroke-linecap="round"></path><path d="M488.7 356.5 L482.9 349.9 L495.4 367.7 L500.8 341.8 L512.0 319.7 L501.2 296.7" stroke="#1c1712" stroke-width="0.9" fill="none" opacity="0.25" stroke-linecap="round"></path><path d="M491.2 71.9 L473.8 78.6 L452.2 46.8 L463.5 66.2 L487.4 75.7" stroke="#1c1712" stroke-width="1.3" fill="none" opacity="0.14" stroke-linecap="round"></path><path d="M248.8 330.1 L259.4 351.1 L240.4 344.9 L253.4 313.6" stroke="#1c1712" stroke-width="1.1" fill="none" opacity="0.19" stroke-linecap="round"></path><path d="M582.7 98.4 L589.1 84.6 L593.4 53.7 L624.0 61.0 L643.8 43.1" stroke="#1c1712" stroke-width="1.8" fill="none" opacity="0.15" stroke-linecap="round"></path><path d="M668.5 856.5 L684.3 830.7 L715.6 816.7 L703.0 830.1" stroke="#1c1712" stroke-width="1.9" fill="none" opacity="0.16" stroke-linecap="round"></path><path d="M31.8 222.1 L37.2 202.2 L41.4 171.0 L25.2 179.2 L7.0 193.9 L-5.9 168.4" stroke="#1c1712" stroke-width="1.7" fill="none" opacity="0.20" stroke-linecap="round"></path><path d="M1055.8 222.1 L1061.2 202.2 L1065.4 171.0 L1049.2 179.2 L1031.0 193.9 L1018.1 168.4" stroke="#1c1712" stroke-width="1.7" fill="none" opacity="0.20" stroke-linecap="round"></path>
  
  <g transform="rotate(0.2 331.8 70.1)"><ellipse cx="331.8" cy="72.4" rx="7.4" ry="3.2" fill="#0f0d0a" opacity="0.35" filter="url(#fxSoftBlur)"></ellipse><ellipse cx="331.8" cy="70.1" rx="7.0" ry="5.5" fill="#7a7166"></ellipse><ellipse cx="329.8" cy="68.1" rx="2.8" ry="1.8" fill="#b0a898" opacity="0.5"></ellipse></g><g transform="rotate(299.8 780.2 993.4)"><ellipse cx="780.2" cy="995.2" rx="6.0" ry="2.6" fill="#0f0d0a" opacity="0.35" filter="url(#fxSoftBlur)"></ellipse><ellipse cx="780.2" cy="993.4" rx="5.7" ry="4.5" fill="#3a352e"></ellipse><ellipse cx="778.6" cy="991.8" rx="2.3" ry="1.5" fill="#b0a898" opacity="0.5"></ellipse></g><g transform="rotate(133.3 152.9 87.0)"><ellipse cx="152.9" cy="89.1" rx="6.7" ry="2.9" fill="#0f0d0a" opacity="0.35" filter="url(#fxSoftBlur)"></ellipse><ellipse cx="152.9" cy="87.0" rx="6.4" ry="5.0" fill="#7a7166"></ellipse><ellipse cx="151.1" cy="85.3" rx="2.6" ry="1.7" fill="#b0a898" opacity="0.5"></ellipse></g><g transform="rotate(321.9 573.2 824.9)"><ellipse cx="573.2" cy="828.7" rx="12.6" ry="5.4" fill="#0f0d0a" opacity="0.35" filter="url(#fxSoftBlur)"></ellipse><ellipse cx="573.2" cy="824.9" rx="12.0" ry="9.3" fill="#3a352e"></ellipse><ellipse cx="569.9" cy="821.5" rx="4.8" ry="3.1" fill="#b0a898" opacity="0.5"></ellipse></g><g transform="rotate(135.7 572.4 152.3)"><ellipse cx="572.4" cy="154.6" rx="7.7" ry="3.3" fill="#0f0d0a" opacity="0.35" filter="url(#fxSoftBlur)"></ellipse><ellipse cx="572.4" cy="152.3" rx="7.4" ry="5.7" fill="#7a7166"></ellipse><ellipse cx="570.3" cy="150.2" rx="2.9" ry="1.9" fill="#b0a898" opacity="0.5"></ellipse></g><g transform="rotate(68.8 793.2 271.0)"><ellipse cx="793.2" cy="274.1" rx="10.2" ry="4.4" fill="#0f0d0a" opacity="0.35" filter="url(#fxSoftBlur)"></ellipse><ellipse cx="793.2" cy="271.0" rx="9.7" ry="7.5" fill="#7a7166"></ellipse><ellipse cx="790.5" cy="268.3" rx="3.9" ry="2.5" fill="#b0a898" opacity="0.5"></ellipse></g><g transform="rotate(335.2 341.4 56.8)"><ellipse cx="341.4" cy="59.6" rx="9.1" ry="3.9" fill="#0f0d0a" opacity="0.35" filter="url(#fxSoftBlur)"></ellipse><ellipse cx="341.4" cy="56.8" rx="8.6" ry="6.7" fill="#3a352e"></ellipse><ellipse cx="339.0" cy="54.4" rx="3.4" ry="2.2" fill="#b0a898" opacity="0.5"></ellipse></g><g transform="rotate(171.7 298.0 21.2)"><ellipse cx="298.0" cy="24.7" rx="11.7" ry="5.0" fill="#0f0d0a" opacity="0.35" filter="url(#fxSoftBlur)"></ellipse><ellipse cx="298.0" cy="21.2" rx="11.1" ry="8.7" fill="#3a352e"></ellipse><ellipse cx="294.9" cy="18.1" rx="4.5" ry="2.9" fill="#b0a898" opacity="0.5"></ellipse></g><g transform="rotate(327.9 973.6 999.8)"><ellipse cx="973.6" cy="1001.6" rx="6.0" ry="2.6" fill="#0f0d0a" opacity="0.35" filter="url(#fxSoftBlur)"></ellipse><ellipse cx="973.6" cy="999.8" rx="5.7" ry="4.4" fill="#7a7166"></ellipse><ellipse cx="972.0" cy="998.2" rx="2.3" ry="1.5" fill="#b0a898" opacity="0.5"></ellipse></g><g transform="rotate(81.3 183.1 99.3)"><ellipse cx="183.1" cy="102.0" rx="9.0" ry="3.9" fill="#0f0d0a" opacity="0.35" filter="url(#fxSoftBlur)"></ellipse><ellipse cx="183.1" cy="99.3" rx="8.6" ry="6.7" fill="#4d473f"></ellipse><ellipse cx="180.7" cy="96.9" rx="3.4" ry="2.2" fill="#b0a898" opacity="0.5"></ellipse></g><g transform="rotate(24.0 294.2 2.7)"><ellipse cx="294.2" cy="4.4" rx="5.4" ry="2.3" fill="#0f0d0a" opacity="0.35" filter="url(#fxSoftBlur)"></ellipse><ellipse cx="294.2" cy="2.7" rx="5.1" ry="4.0" fill="#4d473f"></ellipse><ellipse cx="292.7" cy="1.3" rx="2.1" ry="1.3" fill="#b0a898" opacity="0.5"></ellipse></g><g transform="rotate(24.0 294.2 1026.7)"><ellipse cx="294.2" cy="1028.4" rx="5.4" ry="2.3" fill="#0f0d0a" opacity="0.35" filter="url(#fxSoftBlur)"></ellipse><ellipse cx="294.2" cy="1026.7" rx="5.1" ry="4.0" fill="#4d473f"></ellipse><ellipse cx="292.7" cy="1025.3" rx="2.1" ry="1.3" fill="#b0a898" opacity="0.5"></ellipse></g><g transform="rotate(314.4 647.1 411.0)"><ellipse cx="647.1" cy="413.0" rx="6.8" ry="2.9" fill="#0f0d0a" opacity="0.35" filter="url(#fxSoftBlur)"></ellipse><ellipse cx="647.1" cy="411.0" rx="6.5" ry="5.1" fill="#3a352e"></ellipse><ellipse cx="645.2" cy="409.1" rx="2.6" ry="1.7" fill="#b0a898" opacity="0.5"></ellipse></g><g transform="rotate(184.0 939.5 301.7)"><ellipse cx="939.5" cy="303.8" rx="6.9" ry="3.0" fill="#0f0d0a" opacity="0.35" filter="url(#fxSoftBlur)"></ellipse><ellipse cx="939.5" cy="301.7" rx="6.6" ry="5.2" fill="#4d473f"></ellipse><ellipse cx="937.7" cy="299.8" rx="2.6" ry="1.7" fill="#b0a898" opacity="0.5"></ellipse></g><g transform="rotate(31.4 994.0 39.1)"><ellipse cx="994.0" cy="42.7" rx="11.8" ry="5.1" fill="#0f0d0a" opacity="0.35" filter="url(#fxSoftBlur)"></ellipse><ellipse cx="994.0" cy="39.1" rx="11.2" ry="8.8" fill="#4d473f"></ellipse><ellipse cx="990.9" cy="35.9" rx="4.5" ry="2.9" fill="#b0a898" opacity="0.5"></ellipse></g><g transform="rotate(18.6 232.4 309.8)"><ellipse cx="232.4" cy="312.6" rx="9.3" ry="4.0" fill="#0f0d0a" opacity="0.35" filter="url(#fxSoftBlur)"></ellipse><ellipse cx="232.4" cy="309.8" rx="8.9" ry="6.9" fill="#4d473f"></ellipse><ellipse cx="229.9" cy="307.3" rx="3.6" ry="2.3" fill="#b0a898" opacity="0.5"></ellipse></g><g transform="rotate(335.9 142.1 340.3)"><ellipse cx="142.1" cy="342.7" rx="7.6" ry="3.3" fill="#0f0d0a" opacity="0.35" filter="url(#fxSoftBlur)"></ellipse><ellipse cx="142.1" cy="340.3" rx="7.2" ry="5.6" fill="#4d473f"></ellipse><ellipse cx="140.1" cy="338.3" rx="2.9" ry="1.9" fill="#b0a898" opacity="0.5"></ellipse></g><g transform="rotate(150.8 338.9 690.6)"><ellipse cx="338.9" cy="692.0" rx="4.6" ry="2.0" fill="#0f0d0a" opacity="0.35" filter="url(#fxSoftBlur)"></ellipse><ellipse cx="338.9" cy="690.6" rx="4.4" ry="3.5" fill="#7a7166"></ellipse><ellipse cx="337.6" cy="689.3" rx="1.8" ry="1.2" fill="#b0a898" opacity="0.5"></ellipse></g><g transform="rotate(244.3 1001.1 95.3)"><ellipse cx="1001.1" cy="98.1" rx="9.2" ry="4.0" fill="#0f0d0a" opacity="0.35" filter="url(#fxSoftBlur)"></ellipse><ellipse cx="1001.1" cy="95.3" rx="8.8" ry="6.9" fill="#3a352e"></ellipse><ellipse cx="998.7" cy="92.9" rx="3.5" ry="2.3" fill="#b0a898" opacity="0.5"></ellipse></g><g transform="rotate(302.5 176.5 461.9)"><ellipse cx="176.5" cy="463.9" rx="6.6" ry="2.8" fill="#0f0d0a" opacity="0.35" filter="url(#fxSoftBlur)"></ellipse><ellipse cx="176.5" cy="461.9" rx="6.3" ry="4.9" fill="#4d473f"></ellipse><ellipse cx="174.8" cy="460.1" rx="2.5" ry="1.6" fill="#b0a898" opacity="0.5"></ellipse></g><g transform="rotate(297.4 5.0 558.8)"><ellipse cx="5.0" cy="562.2" rx="10.9" ry="4.7" fill="#0f0d0a" opacity="0.35" filter="url(#fxSoftBlur)"></ellipse><ellipse cx="5.0" cy="558.8" rx="10.4" ry="8.1" fill="#7a7166"></ellipse><ellipse cx="2.1" cy="555.9" rx="4.2" ry="2.7" fill="#b0a898" opacity="0.5"></ellipse></g><g transform="rotate(297.4 1029.0 558.8)"><ellipse cx="1029.0" cy="562.2" rx="10.9" ry="4.7" fill="#0f0d0a" opacity="0.35" filter="url(#fxSoftBlur)"></ellipse><ellipse cx="1029.0" cy="558.8" rx="10.4" ry="8.1" fill="#7a7166"></ellipse><ellipse cx="1026.1" cy="555.9" rx="4.2" ry="2.7" fill="#b0a898" opacity="0.5"></ellipse></g><g transform="rotate(109.0 99.4 774.9)"><ellipse cx="99.4" cy="777.9" rx="10.1" ry="4.3" fill="#0f0d0a" opacity="0.35" filter="url(#fxSoftBlur)"></ellipse><ellipse cx="99.4" cy="774.9" rx="9.6" ry="7.5" fill="#4d473f"></ellipse><ellipse cx="96.7" cy="772.2" rx="3.8" ry="2.5" fill="#b0a898" opacity="0.5"></ellipse></g><g transform="rotate(355.6 663.2 263.4)"><ellipse cx="663.2" cy="265.8" rx="7.8" ry="3.4" fill="#0f0d0a" opacity="0.35" filter="url(#fxSoftBlur)"></ellipse><ellipse cx="663.2" cy="263.4" rx="7.5" ry="5.8" fill="#4d473f"></ellipse><ellipse cx="661.1" cy="261.3" rx="3.0" ry="1.9" fill="#b0a898" opacity="0.5"></ellipse></g><g transform="rotate(358.3 585.6 421.3)"><ellipse cx="585.6" cy="423.6" rx="7.5" ry="3.2" fill="#0f0d0a" opacity="0.35" filter="url(#fxSoftBlur)"></ellipse><ellipse cx="585.6" cy="421.3" rx="7.2" ry="5.6" fill="#7a7166"></ellipse><ellipse cx="583.5" cy="419.3" rx="2.9" ry="1.9" fill="#b0a898" opacity="0.5"></ellipse></g><g transform="rotate(153.3 394.1 787.4)"><ellipse cx="394.1" cy="788.9" rx="4.8" ry="2.1" fill="#0f0d0a" opacity="0.35" filter="url(#fxSoftBlur)"></ellipse><ellipse cx="394.1" cy="787.4" rx="4.6" ry="3.6" fill="#4d473f"></ellipse><ellipse cx="392.8" cy="786.2" rx="1.8" ry="1.2" fill="#b0a898" opacity="0.5"></ellipse></g><g transform="rotate(57.8 731.7 1004.0)"><ellipse cx="731.7" cy="1007.4" rx="11.3" ry="4.8" fill="#0f0d0a" opacity="0.35" filter="url(#fxSoftBlur)"></ellipse><ellipse cx="731.7" cy="1004.0" rx="10.8" ry="8.4" fill="#4d473f"></ellipse><ellipse cx="728.7" cy="1001.0" rx="4.3" ry="2.8" fill="#b0a898" opacity="0.5"></ellipse></g><g transform="rotate(55.1 686.7 999.4)"><ellipse cx="686.7" cy="1002.2" rx="9.1" ry="3.9" fill="#0f0d0a" opacity="0.35" filter="url(#fxSoftBlur)"></ellipse><ellipse cx="686.7" cy="999.4" rx="8.6" ry="6.7" fill="#7a7166"></ellipse><ellipse cx="684.2" cy="997.0" rx="3.5" ry="2.2" fill="#b0a898" opacity="0.5"></ellipse></g><g transform="rotate(228.9 988.0 330.7)"><ellipse cx="988.0" cy="333.3" rx="8.8" ry="3.8" fill="#0f0d0a" opacity="0.35" filter="url(#fxSoftBlur)"></ellipse><ellipse cx="988.0" cy="330.7" rx="8.4" ry="6.5" fill="#3a352e"></ellipse><ellipse cx="985.6" cy="328.3" rx="3.4" ry="2.2" fill="#b0a898" opacity="0.5"></ellipse></g><g transform="rotate(100.0 758.0 441.2)"><ellipse cx="758.0" cy="443.9" rx="8.8" ry="3.8" fill="#0f0d0a" opacity="0.35" filter="url(#fxSoftBlur)"></ellipse><ellipse cx="758.0" cy="441.2" rx="8.4" ry="6.5" fill="#7a7166"></ellipse><ellipse cx="755.6" cy="438.9" rx="3.3" ry="2.2" fill="#b0a898" opacity="0.5"></ellipse></g>
  <ellipse cx="566.8" cy="89.8" rx="5.7" ry="4.0" fill="#2a2521" opacity="0.56"></ellipse><ellipse cx="578.3" cy="882.4" rx="4.5" ry="3.2" fill="#2a2521" opacity="0.39"></ellipse><ellipse cx="814.0" cy="388.0" rx="4.8" ry="3.3" fill="#4d473f" opacity="0.48"></ellipse><ellipse cx="331.7" cy="607.7" rx="5.3" ry="3.7" fill="#7a7166" opacity="0.63"></ellipse><ellipse cx="864.4" cy="367.6" rx="5.5" ry="3.9" fill="#2a2521" opacity="0.47"></ellipse><ellipse cx="235.8" cy="516.0" rx="4.5" ry="3.1" fill="#2a2521" opacity="0.53"></ellipse><ellipse cx="365.5" cy="69.9" rx="6.8" ry="4.7" fill="#2a2521" opacity="0.33"></ellipse><ellipse cx="519.4" cy="532.2" rx="4.2" ry="3.0" fill="#7a7166" opacity="0.35"></ellipse><ellipse cx="513.0" cy="639.0" rx="3.6" ry="2.5" fill="#7a7166" opacity="0.64"></ellipse><ellipse cx="428.8" cy="547.1" rx="6.5" ry="4.5" fill="#4d473f" opacity="0.42"></ellipse><ellipse cx="890.9" cy="487.6" rx="6.0" ry="4.2" fill="#4d473f" opacity="0.55"></ellipse><ellipse cx="855.6" cy="636.9" rx="2.5" ry="1.8" fill="#4d473f" opacity="0.36"></ellipse><ellipse cx="952.1" cy="102.2" rx="6.6" ry="4.6" fill="#2a2521" opacity="0.64"></ellipse><ellipse cx="872.2" cy="861.2" rx="5.2" ry="3.7" fill="#7a7166" opacity="0.51"></ellipse><ellipse cx="956.9" cy="989.0" rx="3.8" ry="2.7" fill="#4d473f" opacity="0.49"></ellipse><ellipse cx="819.8" cy="35.9" rx="6.3" ry="4.4" fill="#7a7166" opacity="0.42"></ellipse><ellipse cx="919.3" cy="288.6" rx="6.1" ry="4.3" fill="#4d473f" opacity="0.45"></ellipse><ellipse cx="219.6" cy="432.0" rx="2.8" ry="1.9" fill="#7a7166" opacity="0.56"></ellipse><ellipse cx="876.7" cy="531.8" rx="2.1" ry="1.5" fill="#2a2521" opacity="0.32"></ellipse><ellipse cx="794.9" cy="620.7" rx="5.8" ry="4.1" fill="#7a7166" opacity="0.37"></ellipse><ellipse cx="181.5" cy="321.8" rx="2.6" ry="1.8" fill="#7a7166" opacity="0.61"></ellipse><ellipse cx="361.9" cy="582.2" rx="6.6" ry="4.6" fill="#4d473f" opacity="0.41"></ellipse><ellipse cx="771.0" cy="259.8" rx="5.4" ry="3.8" fill="#2a2521" opacity="0.45"></ellipse><ellipse cx="151.5" cy="676.4" rx="6.6" ry="4.6" fill="#7a7166" opacity="0.38"></ellipse><ellipse cx="89.5" cy="993.4" rx="6.0" ry="4.2" fill="#4d473f" opacity="0.62"></ellipse><ellipse cx="76.6" cy="190.7" rx="5.3" ry="3.7" fill="#2a2521" opacity="0.56"></ellipse><ellipse cx="776.5" cy="51.3" rx="2.8" ry="1.9" fill="#2a2521" opacity="0.40"></ellipse><ellipse cx="223.1" cy="825.6" rx="6.4" ry="4.5" fill="#4d473f" opacity="0.36"></ellipse><ellipse cx="399.8" cy="1006.9" rx="6.8" ry="4.8" fill="#7a7166" opacity="0.49"></ellipse><ellipse cx="643.5" cy="180.7" rx="4.0" ry="2.8" fill="#4d473f" opacity="0.54"></ellipse><ellipse cx="112.5" cy="882.0" rx="6.7" ry="4.7" fill="#2a2521" opacity="0.58"></ellipse><ellipse cx="155.3" cy="361.7" rx="5.8" ry="4.1" fill="#2a2521" opacity="0.35"></ellipse><ellipse cx="237.9" cy="638.4" rx="2.4" ry="1.7" fill="#2a2521" opacity="0.31"></ellipse><ellipse cx="179.1" cy="16.5" rx="6.4" ry="4.5" fill="#4d473f" opacity="0.36"></ellipse><ellipse cx="632.4" cy="636.0" rx="4.4" ry="3.1" fill="#4d473f" opacity="0.59"></ellipse><ellipse cx="72.0" cy="382.9" rx="4.1" ry="2.9" fill="#2a2521" opacity="0.64"></ellipse><ellipse cx="1001.2" cy="1011.5" rx="3.9" ry="2.7" fill="#7a7166" opacity="0.40"></ellipse><ellipse cx="968.3" cy="154.3" rx="5.6" ry="3.9" fill="#4d473f" opacity="0.58"></ellipse><ellipse cx="966.3" cy="393.3" rx="4.9" ry="3.4" fill="#2a2521" opacity="0.40"></ellipse><ellipse cx="526.4" cy="919.2" rx="3.0" ry="2.1" fill="#4d473f" opacity="0.46"></ellipse><ellipse cx="892.1" cy="353.6" rx="6.8" ry="4.7" fill="#7a7166" opacity="0.37"></ellipse><ellipse cx="529.6" cy="531.0" rx="4.6" ry="3.2" fill="#2a2521" opacity="0.51"></ellipse><ellipse cx="164.3" cy="518.2" rx="6.5" ry="4.5" fill="#4d473f" opacity="0.45"></ellipse><ellipse cx="502.0" cy="177.7" rx="3.7" ry="2.6" fill="#2a2521" opacity="0.58"></ellipse><ellipse cx="200.7" cy="435.6" rx="4.3" ry="3.0" fill="#2a2521" opacity="0.49"></ellipse><ellipse cx="540.4" cy="648.3" rx="3.1" ry="2.2" fill="#2a2521" opacity="0.44"></ellipse>
  <ellipse cx="241.3" cy="564.3" rx="1.3" ry="0.9" fill="#4d473f" opacity="0.38"></ellipse><ellipse cx="590.3" cy="904.6" rx="1.4" ry="1.0" fill="#7a7166" opacity="0.31"></ellipse><ellipse cx="331.9" cy="793.1" rx="1.9" ry="1.4" fill="#7a7166" opacity="0.27"></ellipse><ellipse cx="300.8" cy="993.8" rx="2.2" ry="1.5" fill="#4d473f" opacity="0.31"></ellipse><ellipse cx="315.4" cy="360.4" rx="1.5" ry="1.1" fill="#7a7166" opacity="0.36"></ellipse><ellipse cx="708.0" cy="878.1" rx="2.0" ry="1.4" fill="#2a2521" opacity="0.39"></ellipse><ellipse cx="700.3" cy="315.4" rx="1.5" ry="1.0" fill="#2a2521" opacity="0.35"></ellipse><ellipse cx="333.8" cy="912.0" rx="2.2" ry="1.6" fill="#7a7166" opacity="0.32"></ellipse><ellipse cx="364.0" cy="1023.0" rx="1.8" ry="1.3" fill="#4d473f" opacity="0.21"></ellipse><ellipse cx="364.0" cy="-1.0" rx="1.8" ry="1.3" fill="#4d473f" opacity="0.21"></ellipse><ellipse cx="478.7" cy="126.9" rx="2.3" ry="1.6" fill="#2a2521" opacity="0.24"></ellipse><ellipse cx="900.1" cy="97.9" rx="1.4" ry="1.0" fill="#2a2521" opacity="0.36"></ellipse><ellipse cx="282.5" cy="822.9" rx="2.3" ry="1.6" fill="#4d473f" opacity="0.29"></ellipse><ellipse cx="976.8" cy="361.2" rx="1.6" ry="1.1" fill="#4d473f" opacity="0.30"></ellipse><ellipse cx="800.7" cy="858.2" rx="1.9" ry="1.4" fill="#2a2521" opacity="0.34"></ellipse><ellipse cx="16.2" cy="141.1" rx="2.0" ry="1.4" fill="#2a2521" opacity="0.37"></ellipse><ellipse cx="992.0" cy="377.1" rx="1.8" ry="1.3" fill="#7a7166" opacity="0.31"></ellipse><ellipse cx="670.7" cy="50.7" rx="1.7" ry="1.2" fill="#4d473f" opacity="0.27"></ellipse><ellipse cx="406.2" cy="223.3" rx="1.9" ry="1.3" fill="#7a7166" opacity="0.29"></ellipse><ellipse cx="905.4" cy="806.5" rx="2.0" ry="1.4" fill="#7a7166" opacity="0.25"></ellipse><ellipse cx="438.2" cy="17.5" rx="1.9" ry="1.4" fill="#4d473f" opacity="0.26"></ellipse><ellipse cx="744.8" cy="113.5" rx="1.6" ry="1.1" fill="#4d473f" opacity="0.29"></ellipse><ellipse cx="532.3" cy="381.1" rx="1.9" ry="1.4" fill="#2a2521" opacity="0.28"></ellipse><ellipse cx="625.9" cy="382.9" rx="1.8" ry="1.2" fill="#7a7166" opacity="0.25"></ellipse><ellipse cx="781.1" cy="245.6" rx="1.2" ry="0.9" fill="#7a7166" opacity="0.33"></ellipse><ellipse cx="230.1" cy="250.0" rx="1.0" ry="0.7" fill="#4d473f" opacity="0.25"></ellipse><ellipse cx="647.9" cy="312.5" rx="1.2" ry="0.9" fill="#7a7166" opacity="0.28"></ellipse><ellipse cx="576.4" cy="854.9" rx="1.5" ry="1.0" fill="#7a7166" opacity="0.22"></ellipse><ellipse cx="167.1" cy="677.7" rx="2.4" ry="1.7" fill="#4d473f" opacity="0.20"></ellipse><ellipse cx="468.7" cy="941.9" rx="1.1" ry="0.8" fill="#2a2521" opacity="0.26"></ellipse><ellipse cx="332.8" cy="855.8" rx="2.3" ry="1.6" fill="#4d473f" opacity="0.32"></ellipse><ellipse cx="1003.2" cy="237.6" rx="1.6" ry="1.1" fill="#2a2521" opacity="0.38"></ellipse><ellipse cx="5.5" cy="472.7" rx="1.7" ry="1.2" fill="#2a2521" opacity="0.26"></ellipse><ellipse cx="649.1" cy="439.8" rx="1.0" ry="0.7" fill="#7a7166" opacity="0.22"></ellipse><ellipse cx="102.0" cy="394.7" rx="2.5" ry="1.7" fill="#7a7166" opacity="0.39"></ellipse><ellipse cx="136.4" cy="747.5" rx="1.5" ry="1.1" fill="#2a2521" opacity="0.25"></ellipse><ellipse cx="218.2" cy="754.9" rx="1.6" ry="1.1" fill="#7a7166" opacity="0.30"></ellipse><ellipse cx="489.3" cy="802.1" rx="1.1" ry="0.7" fill="#4d473f" opacity="0.33"></ellipse><ellipse cx="525.4" cy="771.5" rx="1.3" ry="0.9" fill="#4d473f" opacity="0.31"></ellipse><ellipse cx="156.9" cy="616.7" rx="2.4" ry="1.7" fill="#4d473f" opacity="0.40"></ellipse><ellipse cx="789.7" cy="745.5" rx="2.5" ry="1.7" fill="#7a7166" opacity="0.33"></ellipse><ellipse cx="156.1" cy="93.6" rx="1.5" ry="1.0" fill="#4d473f" opacity="0.30"></ellipse><ellipse cx="378.4" cy="562.5" rx="1.9" ry="1.3" fill="#4d473f" opacity="0.24"></ellipse><ellipse cx="971.0" cy="557.6" rx="1.2" ry="0.9" fill="#7a7166" opacity="0.24"></ellipse><ellipse cx="432.7" cy="831.7" rx="1.4" ry="0.9" fill="#7a7166" opacity="0.24"></ellipse><ellipse cx="560.7" cy="704.7" rx="1.6" ry="1.1" fill="#7a7166" opacity="0.21"></ellipse><ellipse cx="315.2" cy="615.8" rx="1.1" ry="0.7" fill="#4d473f" opacity="0.27"></ellipse><ellipse cx="304.7" cy="991.8" rx="1.4" ry="1.0" fill="#2a2521" opacity="0.24"></ellipse><ellipse cx="991.9" cy="272.4" rx="1.2" ry="0.8" fill="#7a7166" opacity="0.21"></ellipse><ellipse cx="660.1" cy="12.2" rx="2.1" ry="1.5" fill="#7a7166" opacity="0.27"></ellipse><ellipse cx="702.4" cy="1004.1" rx="1.6" ry="1.1" fill="#2a2521" opacity="0.28"></ellipse><ellipse cx="677.4" cy="30.8" rx="1.5" ry="1.0" fill="#2a2521" opacity="0.26"></ellipse><ellipse cx="963.1" cy="128.1" rx="1.7" ry="1.2" fill="#7a7166" opacity="0.25"></ellipse><ellipse cx="974.0" cy="837.3" rx="1.5" ry="1.0" fill="#7a7166" opacity="0.39"></ellipse><ellipse cx="373.4" cy="762.0" rx="1.9" ry="1.4" fill="#4d473f" opacity="0.24"></ellipse><ellipse cx="515.5" cy="868.4" rx="1.8" ry="1.3" fill="#7a7166" opacity="0.22"></ellipse><ellipse cx="388.7" cy="118.6" rx="1.5" ry="1.1" fill="#4d473f" opacity="0.33"></ellipse><ellipse cx="621.2" cy="405.4" rx="1.4" ry="1.0" fill="#2a2521" opacity="0.29"></ellipse><ellipse cx="236.0" cy="445.9" rx="1.7" ry="1.2" fill="#2a2521" opacity="0.32"></ellipse><ellipse cx="3.4" cy="56.7" rx="2.3" ry="1.6" fill="#7a7166" opacity="0.31"></ellipse><ellipse cx="1027.4" cy="56.7" rx="2.3" ry="1.6" fill="#7a7166" opacity="0.31"></ellipse><ellipse cx="765.0" cy="548.5" rx="1.7" ry="1.2" fill="#2a2521" opacity="0.27"></ellipse>
  <rect width="1024" height="1024" fill="#808080" filter="url(#rkBump)" opacity="0.20" style="mix-blend-mode:overlay"></rect>
  <rect width="1024" height="1024" fill="#808080" filter="url(#rkBumpFine)" opacity="0.14" style="mix-blend-mode:overlay"></rect>
  <rect width="1024" height="1024" filter="url(#rkGrain)" opacity="0.08" style="mix-blend-mode:overlay" pointer-events="none"></rect>
</svg>