<svg viewBox="0 0 512 512" xmlns="http://www.w3.org/2000/svg">
  <defs><filter id="fxBlur2" x="-60%" y="-60%" width="220%" height="220%"><feGaussianBlur stdDeviation="6"></feGaussianBlur></filter><filter id="fxBlur" x="-60%" y="-60%" width="220%" height="220%"><feGaussianBlur stdDeviation="1.6"></feGaussianBlur></filter>
    <linearGradient id="baseRock" x1="0%" y1="0%" x2="60%" y2="100%">
      <stop offset="0%" stop-color="#6b6259"></stop>
      <stop offset="50%" stop-color="#5a534a"></stop>
      <stop offset="100%" stop-color="#433c34"></stop>
    </linearGradient>
    <filter id="bumpR" x="-20%" y="-20%" width="140%" height="140%">
      <feTurbulence type="fractalNoise" baseFrequency="0.042" numOctaves="4" seed="21" result="n"></feTurbulence>
      <feDiffuseLighting in="n" lighting-color="#ffffff" surfaceScale="3.4" diffuseConstant="1.12">
        <feDistantLight azimuth="235" elevation="43"></feDistantLight>
      </feDiffuseLighting>
    </filter>
    <radialGradient id="vignette2" cx="50%" cy="39%" r="78%">
      <stop offset="0%" stop-color="#ffffff" stop-opacity="0.055"></stop>
      <stop offset="60%" stop-color="#000000" stop-opacity="0"></stop>
      <stop offset="100%" stop-color="#000000" stop-opacity="0.34"></stop>
    </radialGradient>
  </defs>

  <rect width="512" height="512" fill="url(#baseRock)"></rect>

  
  <path d="M60 130 L140 100 L175 160 L150 210 L80 200 L40 165 Z" fill="#3a352e" opacity="0.6" filter="url(#fxBlur2)"></path>
  <path d="M330 300 L410 280 L455 340 L430 400 L360 410 L310 360 Z" fill="#3a352e" opacity="0.55" filter="url(#fxBlur2)"></path>
  <path d="M260 60 L310 50 L330 95 L300 120 L265 105 Z" fill="#3a352e" opacity="0.45" filter="url(#fxBlur2)"></path>
  <path d="M120 380 L190 370 L215 415 L175 445 L120 430 Z" fill="#3a352e" opacity="0.5" filter="url(#fxBlur2)"></path>
  <path d="M60 130 L140 100 L120 130 L70 150 Z" fill="#8a8176" opacity="0.35" filter="url(#fxBlur2)"></path>
  <path d="M330 300 L410 280 L380 305 L340 325 Z" fill="#8a8176" opacity="0.3" filter="url(#fxBlur2)"></path>

  <ellipse cx="339.9" cy="472.2" rx="2.8" ry="2.0" fill="#2a2521" opacity="0.62"></ellipse><ellipse cx="244.7" cy="275.2" rx="4.9" ry="3.4" fill="#2a2521" opacity="0.74"></ellipse><ellipse cx="471.7" cy="484.2" rx="3.3" ry="2.3" fill="#4d473f" opacity="0.84"></ellipse><ellipse cx="339.9" cy="266.4" rx="5.5" ry="3.8" fill="#2a2521" opacity="0.71"></ellipse><ellipse cx="343.9" cy="249.2" rx="4.6" ry="3.2" fill="#2a2521" opacity="0.76"></ellipse><ellipse cx="333.5" cy="358.2" rx="4.4" ry="3.1" fill="#7a7166" opacity="0.70"></ellipse><ellipse cx="82.8" cy="45.2" rx="3.7" ry="2.6" fill="#2a2521" opacity="0.55"></ellipse><ellipse cx="200.1" cy="392.6" rx="3.3" ry="2.3" fill="#2a2521" opacity="0.68"></ellipse><ellipse cx="307.9" cy="415.9" rx="6.4" ry="4.5" fill="#7a7166" opacity="0.47"></ellipse><ellipse cx="123.1" cy="363.3" rx="2.9" ry="2.0" fill="#4d473f" opacity="0.59"></ellipse>

  <rect width="512" height="512" fill="#808080" filter="url(#bumpR)" opacity="0.14" style="mix-blend-mode:overlay"></rect>
  <rect width="512" height="512" fill="url(#vignette2)"></rect>
</svg>