<svg viewBox="0 0 512 512" xmlns="http://www.w3.org/2000/svg">
  <defs>
    <linearGradient id="baseRock" x1="0%" y1="0%" x2="60%" y2="100%">
      <stop offset="0%" stop-color="#6b6259"></stop>
      <stop offset="50%" stop-color="#5a534a"></stop>
      <stop offset="100%" stop-color="#433c34"></stop>
    </linearGradient>
    <filter id="bumpR" x="-20%" y="-20%" width="140%" height="140%">
      <feTurbulence type="fractalNoise" baseFrequency="0.035" numOctaves="5" seed="21" result="n"></feTurbulence>
      <feDiffuseLighting in="n" lighting-color="#ffffff" surfaceScale="4" diffuseConstant="1.15">
        <feDistantLight azimuth="235" elevation="42"></feDistantLight>
      </feDiffuseLighting>
    </filter>
    <radialGradient id="vignette2" cx="50%" cy="38%" r="78%">
      <stop offset="0%" stop-color="#ffffff" stop-opacity="0.05"></stop>
      <stop offset="60%" stop-color="#000000" stop-opacity="0"></stop>
      <stop offset="100%" stop-color="#000000" stop-opacity="0.36"></stop>
    </radialGradient>
  </defs>

  <rect width="512" height="512" fill="url(#baseRock)"></rect>

  
  <path d="M60 130 L140 100 L175 160 L150 210 L80 200 L40 165 Z" fill="#3a352e" opacity="0.6"></path>
  <path d="M330 300 L410 280 L455 340 L430 400 L360 410 L310 360 Z" fill="#3a352e" opacity="0.55"></path>
  <path d="M260 60 L310 50 L330 95 L300 120 L265 105 Z" fill="#3a352e" opacity="0.45"></path>
  <path d="M120 380 L190 370 L215 415 L175 445 L120 430 Z" fill="#3a352e" opacity="0.5"></path>
  <path d="M60 130 L140 100 L120 130 L70 150 Z" fill="#8a8176" opacity="0.35"></path>
  <path d="M330 300 L410 280 L380 305 L340 325 Z" fill="#8a8176" opacity="0.3"></path>

  
  <path d="M0 270 Q150 230 260 280 T512 260" stroke="#1c1712" stroke-width="9" fill="none" opacity="0.55"></path>
  <path d="M60 0 Q80 120 60 260" stroke="#1c1712" stroke-width="6" fill="none" opacity="0.4"></path>
  <path d="M420 512 Q440 380 400 240" stroke="#1c1712" stroke-width="6" fill="none" opacity="0.4"></path>
  <path d="M207.0 350.4 L210.9 372.2 L213.5 370.7 L199.2 349.4 L202.0 337.2" stroke="#241f1a" stroke-width="2.0" fill="none" opacity="0.35"></path><path d="M197.3 46.8 L224.0 32.9 L249.1 26.3 L247.4 45.2 L225.7 22.3 L253.3 28.6 L260.6 44.8" stroke="#241f1a" stroke-width="1.4" fill="none" opacity="0.40"></path><path d="M337.8 188.1 L310.6 187.8 L307.9 178.8 L278.5 182.5 L307.5 172.1 L314.1 164.0 L335.9 135.0" stroke="#241f1a" stroke-width="2.8" fill="none" opacity="0.31"></path><path d="M102.0 18.1 L106.4 -2.4 L134.2 1.1 L146.1 3.9 L150.1 -22.1" stroke="#241f1a" stroke-width="1.9" fill="none" opacity="0.30"></path><path d="M350.1 21.1 L378.0 38.2 L402.8 27.8 L377.7 9.2 L358.9 0.1" stroke="#241f1a" stroke-width="2.2" fill="none" opacity="0.54"></path><path d="M0.7 250.0 L-1.8 240.5 L23.4 218.5 L26.7 244.8" stroke="#241f1a" stroke-width="1.9" fill="none" opacity="0.44"></path>

  
  <ellipse cx="339.9" cy="472.2" rx="2.8" ry="2.0" fill="#2a2521" opacity="0.62"></ellipse><ellipse cx="244.7" cy="275.2" rx="4.9" ry="3.4" fill="#2a2521" opacity="0.74"></ellipse><ellipse cx="471.7" cy="484.2" rx="3.3" ry="2.3" fill="#4d473f" opacity="0.84"></ellipse><ellipse cx="339.9" cy="266.4" rx="5.5" ry="3.8" fill="#2a2521" opacity="0.71"></ellipse><ellipse cx="343.9" cy="249.2" rx="4.6" ry="3.2" fill="#2a2521" opacity="0.76"></ellipse><ellipse cx="333.5" cy="358.2" rx="4.4" ry="3.1" fill="#7a7166" opacity="0.70"></ellipse><ellipse cx="82.8" cy="45.2" rx="3.7" ry="2.6" fill="#2a2521" opacity="0.55"></ellipse><ellipse cx="200.1" cy="392.6" rx="3.3" ry="2.3" fill="#2a2521" opacity="0.68"></ellipse><ellipse cx="307.9" cy="415.9" rx="6.4" ry="4.5" fill="#7a7166" opacity="0.47"></ellipse><ellipse cx="123.1" cy="363.3" rx="2.9" ry="2.0" fill="#4d473f" opacity="0.59"></ellipse><ellipse cx="368.1" cy="236.2" rx="6.4" ry="4.5" fill="#4d473f" opacity="0.53"></ellipse><ellipse cx="437.5" cy="188.0" rx="4.6" ry="3.2" fill="#7a7166" opacity="0.59"></ellipse><ellipse cx="503.6" cy="239.2" rx="3.5" ry="2.4" fill="#4d473f" opacity="0.84"></ellipse><ellipse cx="378.4" cy="334.6" rx="4.4" ry="3.1" fill="#4d473f" opacity="0.74"></ellipse><ellipse cx="253.0" cy="229.1" rx="4.5" ry="3.1" fill="#2a2521" opacity="0.69"></ellipse><ellipse cx="242.9" cy="227.8" rx="5.9" ry="4.1" fill="#4d473f" opacity="0.55"></ellipse><ellipse cx="273.7" cy="218.5" rx="2.6" ry="1.8" fill="#2a2521" opacity="0.56"></ellipse><ellipse cx="309.1" cy="70.0" rx="6.4" ry="4.5" fill="#4d473f" opacity="0.79"></ellipse><ellipse cx="407.7" cy="371.7" rx="5.4" ry="3.8" fill="#2a2521" opacity="0.55"></ellipse><ellipse cx="96.8" cy="442.5" rx="6.5" ry="4.6" fill="#7a7166" opacity="0.81"></ellipse><ellipse cx="136.5" cy="265.1" rx="5.9" ry="4.1" fill="#7a7166" opacity="0.54"></ellipse><ellipse cx="16.6" cy="201.4" rx="2.7" ry="1.9" fill="#4d473f" opacity="0.46"></ellipse><ellipse cx="402.2" cy="25.4" rx="6.6" ry="4.6" fill="#7a7166" opacity="0.72"></ellipse><ellipse cx="289.9" cy="345.4" rx="3.2" ry="2.2" fill="#2a2521" opacity="0.76"></ellipse><ellipse cx="136.3" cy="271.8" rx="2.9" ry="2.0" fill="#2a2521" opacity="0.74"></ellipse><ellipse cx="208.6" cy="33.7" rx="3.1" ry="2.2" fill="#4d473f" opacity="0.73"></ellipse><ellipse cx="299.8" cy="353.3" rx="3.9" ry="2.7" fill="#2a2521" opacity="0.70"></ellipse><ellipse cx="297.5" cy="113.4" rx="6.6" ry="4.6" fill="#7a7166" opacity="0.60"></ellipse><ellipse cx="70.8" cy="510.2" rx="6.6" ry="4.6" fill="#7a7166" opacity="0.48"></ellipse><ellipse cx="208.9" cy="331.6" rx="3.3" ry="2.3" fill="#2a2521" opacity="0.78"></ellipse><ellipse cx="30.9" cy="280.9" rx="4.2" ry="2.9" fill="#4d473f" opacity="0.48"></ellipse><ellipse cx="31.3" cy="473.5" rx="2.4" ry="1.7" fill="#4d473f" opacity="0.79"></ellipse><ellipse cx="60.0" cy="323.0" rx="1.8" ry="1.3" fill="#7a7166" opacity="0.63"></ellipse><ellipse cx="403.1" cy="305.1" rx="6.1" ry="4.3" fill="#7a7166" opacity="0.82"></ellipse><ellipse cx="132.9" cy="478.2" rx="6.0" ry="4.2" fill="#2a2521" opacity="0.50"></ellipse><ellipse cx="407.7" cy="370.0" rx="4.9" ry="3.5" fill="#2a2521" opacity="0.70"></ellipse><ellipse cx="432.7" cy="228.4" rx="2.7" ry="1.9" fill="#2a2521" opacity="0.84"></ellipse><ellipse cx="418.1" cy="55.2" rx="2.8" ry="2.0" fill="#4d473f" opacity="0.84"></ellipse><ellipse cx="270.7" cy="3.4" rx="3.0" ry="2.1" fill="#7a7166" opacity="0.61"></ellipse><ellipse cx="162.6" cy="93.8" rx="4.4" ry="3.1" fill="#7a7166" opacity="0.59"></ellipse><ellipse cx="417.8" cy="270.9" rx="3.2" ry="2.2" fill="#4d473f" opacity="0.65"></ellipse><ellipse cx="203.5" cy="289.9" rx="6.6" ry="4.6" fill="#2a2521" opacity="0.79"></ellipse><ellipse cx="147.2" cy="455.7" rx="6.7" ry="4.7" fill="#4d473f" opacity="0.49"></ellipse><ellipse cx="174.5" cy="144.1" rx="2.6" ry="1.8" fill="#7a7166" opacity="0.76"></ellipse><ellipse cx="249.0" cy="248.0" rx="5.9" ry="4.1" fill="#7a7166" opacity="0.49"></ellipse><ellipse cx="429.3" cy="332.8" rx="4.9" ry="3.4" fill="#2a2521" opacity="0.57"></ellipse><ellipse cx="242.8" cy="229.5" rx="6.4" ry="4.5" fill="#2a2521" opacity="0.80"></ellipse><ellipse cx="449.7" cy="432.6" rx="6.5" ry="4.5" fill="#7a7166" opacity="0.53"></ellipse><ellipse cx="27.5" cy="279.9" rx="4.5" ry="3.1" fill="#7a7166" opacity="0.48"></ellipse><ellipse cx="153.6" cy="57.7" rx="5.1" ry="3.5" fill="#4d473f" opacity="0.81"></ellipse><ellipse cx="336.4" cy="374.1" rx="3.7" ry="2.6" fill="#7a7166" opacity="0.54"></ellipse><ellipse cx="8.6" cy="339.6" rx="5.9" ry="4.1" fill="#2a2521" opacity="0.65"></ellipse><ellipse cx="461.4" cy="183.3" rx="4.0" ry="2.8" fill="#4d473f" opacity="0.81"></ellipse><ellipse cx="463.6" cy="115.4" rx="3.0" ry="2.1" fill="#2a2521" opacity="0.57"></ellipse><ellipse cx="415.2" cy="42.6" rx="4.5" ry="3.2" fill="#2a2521" opacity="0.70"></ellipse><ellipse cx="184.9" cy="137.1" rx="3.6" ry="2.5" fill="#2a2521" opacity="0.85"></ellipse><ellipse cx="362.1" cy="211.0" rx="4.8" ry="3.4" fill="#2a2521" opacity="0.64"></ellipse><ellipse cx="265.9" cy="455.4" rx="5.7" ry="4.0" fill="#2a2521" opacity="0.67"></ellipse><ellipse cx="390.7" cy="473.8" rx="4.3" ry="3.0" fill="#4d473f" opacity="0.55"></ellipse><ellipse cx="74.5" cy="191.7" rx="4.5" ry="3.2" fill="#4d473f" opacity="0.79"></ellipse>

  <rect width="512" height="512" fill="#808080" filter="url(#bumpR)" opacity="0.45" style="mix-blend-mode:overlay"></rect>
  <rect width="512" height="512" fill="url(#vignette2)"></rect>
</svg>