<svg viewBox="0 0 1024 1024" xmlns="http://www.w3.org/2000/svg">
  <defs>
    <filter id="fxSoftBlur" x="-60%" y="-60%" width="220%" height="220%"><feGaussianBlur stdDeviation="14"></feGaussianBlur></filter>
    
    <filter id="sdMottle" x="0" y="0" width="100%" height="100%">
      <feTurbulence type="fractalNoise" baseFrequency="0.010" numOctaves="4" seed="31" stitchTiles="stitch" x="0" y="0" width="1024" height="1024" result="n"></feTurbulence>
      <feColorMatrix in="n" type="matrix" values="0 0 0 0 0  0 0 0 0 0  0 0 0 0 0  0.55 0.55 0.55 0 -0.35" result="mask"></feColorMatrix>
    </filter>
    <filter id="sdMottle2" x="0" y="0" width="100%" height="100%">
      <feTurbulence type="fractalNoise" baseFrequency="0.028" numOctaves="3" seed="211" stitchTiles="stitch" x="0" y="0" width="1024" height="1024" result="n"></feTurbulence>
      <feColorMatrix in="n" type="matrix" values="0 0 0 0 0  0 0 0 0 0  0 0 0 0 0  0.5 0.5 0.5 0 -0.4"></feColorMatrix>
    </filter>
    <filter id="sdBump" x="0" y="0" width="100%" height="100%">
      <feTurbulence type="fractalNoise" baseFrequency="0.045" numOctaves="5" seed="32" stitchTiles="stitch" x="0" y="0" width="1024" height="1024" result="n"></feTurbulence>
      <feDiffuseLighting in="n" lighting-color="#ffffff" surfaceScale="3.4" diffuseConstant="1.15" result="lit">
        <feDistantLight azimuth="235" elevation="46"></feDistantLight>
      </feDiffuseLighting>
    </filter>
    <filter id="sdBumpFine" x="0" y="0" width="100%" height="100%">
      <feTurbulence type="fractalNoise" baseFrequency="0.144" numOctaves="3" seed="39" stitchTiles="stitch" x="0" y="0" width="1024" height="1024" result="n"></feTurbulence>
      <feDiffuseLighting in="n" lighting-color="#ffffff" surfaceScale="1.6" diffuseConstant="1.0" result="lit">
        <feDistantLight azimuth="235" elevation="55"></feDistantLight>
      </feDiffuseLighting>
    </filter>
    <filter id="sdGrain" x="0" y="0" width="100%" height="100%">
      <feTurbulence type="fractalNoise" baseFrequency="0.9" numOctaves="2" seed="33" stitchTiles="stitch" x="0" y="0" width="1024" height="1024" result="n"></feTurbulence>
      <feColorMatrix in="n" type="matrix" values="0 0 0 0 0  0 0 0 0 0  0 0 0 0 0  0.85 0 0 0 0"></feColorMatrix>
    </filter>
  </defs>
  <rect width="1024" height="1024" fill="#8f7a4d"></rect>
  <rect width="1024" height="1024" fill="#c0aa78" filter="url(#sdMottle)" style="mix-blend-mode:soft-light"></rect>
  <rect width="1024" height="1024" fill="#6e5c39" filter="url(#sdMottle2)" style="mix-blend-mode:overlay" opacity="0.5"></rect>
  <ellipse cx="449.3" cy="442.7" rx="55.4" ry="42.3" fill="#e0d0a0" opacity="0.19" filter="url(#fxSoftBlur)" transform="rotate(0.1 449.3 442.7)"></ellipse><ellipse cx="908.7" cy="933.9" rx="75.8" ry="38.0" fill="#e0d0a0" opacity="0.21" filter="url(#fxSoftBlur)" transform="rotate(-1.1 908.7 933.9)"></ellipse><ellipse cx="908.7" cy="-90.1" rx="107.8" ry="81.1" fill="#e0d0a0" opacity="0.21" filter="url(#fxSoftBlur)" transform="rotate(-12.7 908.7 -90.1)"></ellipse><ellipse cx="878.2" cy="58.1" rx="95.6" ry="78.0" fill="#4a3d25" opacity="0.20" filter="url(#fxSoftBlur)" transform="rotate(-4.2 878.2 58.1)"></ellipse><ellipse cx="878.2" cy="1082.1" rx="77.3" ry="35.2" fill="#4a3d25" opacity="0.20" filter="url(#fxSoftBlur)" transform="rotate(11.0 878.2 1082.1)"></ellipse><ellipse cx="304.3" cy="303.4" rx="47.9" ry="42.5" fill="#4a3d25" opacity="0.21" filter="url(#fxSoftBlur)" transform="rotate(7.9 304.3 303.4)"></ellipse><ellipse cx="919.0" cy="714.9" rx="95.3" ry="76.9" fill="#5c4c2e" opacity="0.27" filter="url(#fxSoftBlur)" transform="rotate(-15.6 919.0 714.9)"></ellipse><ellipse cx="-105.0" cy="714.9" rx="113.5" ry="73.0" fill="#5c4c2e" opacity="0.27" filter="url(#fxSoftBlur)" transform="rotate(5.7 -105.0 714.9)"></ellipse><ellipse cx="515.9" cy="239.1" rx="118.7" ry="33.7" fill="#5c4c2e" opacity="0.24" filter="url(#fxSoftBlur)" transform="rotate(-14.8 515.9 239.1)"></ellipse><ellipse cx="674.1" cy="186.2" rx="77.1" ry="51.3" fill="#5c4c2e" opacity="0.22" filter="url(#fxSoftBlur)" transform="rotate(-2.7 674.1 186.2)"></ellipse><ellipse cx="987.7" cy="813.7" rx="65.5" ry="61.5" fill="#e0d0a0" opacity="0.31" filter="url(#fxSoftBlur)" transform="rotate(-7.9 987.7 813.7)"></ellipse><ellipse cx="-36.3" cy="813.7" rx="51.1" ry="23.5" fill="#e0d0a0" opacity="0.31" filter="url(#fxSoftBlur)" transform="rotate(2.4 -36.3 813.7)"></ellipse><ellipse cx="31.2" cy="253.4" rx="134.8" ry="71.4" fill="#e0d0a0" opacity="0.25" filter="url(#fxSoftBlur)" transform="rotate(12.3 31.2 253.4)"></ellipse><ellipse cx="1055.2" cy="253.4" rx="96.8" ry="87.3" fill="#e0d0a0" opacity="0.25" filter="url(#fxSoftBlur)" transform="rotate(17.8 1055.2 253.4)"></ellipse><ellipse cx="386.3" cy="639.4" rx="93.6" ry="91.3" fill="#5c4c2e" opacity="0.28" filter="url(#fxSoftBlur)" transform="rotate(-14.9 386.3 639.4)"></ellipse><ellipse cx="888.9" cy="77.2" rx="52.5" ry="34.3" fill="#e0d0a0" opacity="0.26" filter="url(#fxSoftBlur)" transform="rotate(18.6 888.9 77.2)"></ellipse><ellipse cx="1023.7" cy="325.8" rx="108.4" ry="49.0" fill="#e0d0a0" opacity="0.24" filter="url(#fxSoftBlur)" transform="rotate(-12.1 1023.7 325.8)"></ellipse><ellipse cx="-0.3" cy="325.8" rx="62.9" ry="44.0" fill="#e0d0a0" opacity="0.24" filter="url(#fxSoftBlur)" transform="rotate(-4.7 -0.3 325.8)"></ellipse>
  <path d="M106.6 986.5 Q131.8 973.9 157.1 986.5" stroke="#d8c896" stroke-width="1.6" fill="none" opacity="0.3" stroke-linecap="round"></path>
        <path d="M111.6 992.5 Q131.8 978.9 152.0 992.5" stroke="#4a3d25" stroke-width="1.2" fill="none" opacity="0.22" stroke-linecap="round"></path><path d="M479.6 372.7 Q506.7 359.1 533.8 372.7" stroke="#d8c896" stroke-width="1.6" fill="none" opacity="0.3" stroke-linecap="round"></path>
        <path d="M485.1 378.7 Q506.7 364.5 528.4 378.7" stroke="#4a3d25" stroke-width="1.2" fill="none" opacity="0.22" stroke-linecap="round"></path><path d="M472.5 370.0 Q499.0 356.7 525.6 370.0" stroke="#d8c896" stroke-width="1.6" fill="none" opacity="0.3" stroke-linecap="round"></path>
        <path d="M477.8 376.0 Q499.0 362.0 520.3 376.0" stroke="#4a3d25" stroke-width="1.2" fill="none" opacity="0.22" stroke-linecap="round"></path><path d="M74.5 203.8 Q110.5 185.8 146.6 203.8" stroke="#d8c896" stroke-width="1.6" fill="none" opacity="0.3" stroke-linecap="round"></path>
        <path d="M81.7 209.8 Q110.5 193.0 139.4 209.8" stroke="#4a3d25" stroke-width="1.2" fill="none" opacity="0.22" stroke-linecap="round"></path><path d="M606.1 706.8 Q632.6 693.6 659.0 706.8" stroke="#d8c896" stroke-width="1.6" fill="none" opacity="0.3" stroke-linecap="round"></path>
        <path d="M611.4 712.8 Q632.6 698.9 653.7 712.8" stroke="#4a3d25" stroke-width="1.2" fill="none" opacity="0.22" stroke-linecap="round"></path><path d="M473.8 120.1 Q516.4 98.8 559.0 120.1" stroke="#d8c896" stroke-width="1.6" fill="none" opacity="0.3" stroke-linecap="round"></path>
        <path d="M482.3 126.1 Q516.4 107.4 550.5 126.1" stroke="#4a3d25" stroke-width="1.2" fill="none" opacity="0.22" stroke-linecap="round"></path><path d="M316.2 194.7 Q354.7 175.5 393.2 194.7" stroke="#d8c896" stroke-width="1.6" fill="none" opacity="0.3" stroke-linecap="round"></path>
        <path d="M323.9 200.7 Q354.7 183.2 385.5 200.7" stroke="#4a3d25" stroke-width="1.2" fill="none" opacity="0.22" stroke-linecap="round"></path><path d="M71.5 489.4 Q102.3 474.0 133.2 489.4" stroke="#d8c896" stroke-width="1.6" fill="none" opacity="0.3" stroke-linecap="round"></path>
        <path d="M77.6 495.4 Q102.3 480.2 127.0 495.4" stroke="#4a3d25" stroke-width="1.2" fill="none" opacity="0.22" stroke-linecap="round"></path><path d="M695.1 102.0 Q736.3 81.3 777.5 102.0" stroke="#d8c896" stroke-width="1.6" fill="none" opacity="0.3" stroke-linecap="round"></path>
        <path d="M703.3 108.0 Q736.3 89.6 769.3 108.0" stroke="#4a3d25" stroke-width="1.2" fill="none" opacity="0.22" stroke-linecap="round"></path>
  
  
  
  <g transform="rotate(357.4 504.2 473.9)"><ellipse cx="504.2" cy="475.8" rx="6.2" ry="2.7" fill="#2e2515" opacity="0.35" filter="url(#fxSoftBlur)"></ellipse><ellipse cx="504.2" cy="473.9" rx="5.9" ry="4.6" fill="#6e5c39"></ellipse><ellipse cx="502.6" cy="472.2" rx="2.4" ry="1.5" fill="#f0e2c0" opacity="0.5"></ellipse></g><g transform="rotate(226.1 315.9 946.2)"><ellipse cx="315.9" cy="947.3" rx="3.4" ry="1.5" fill="#2e2515" opacity="0.35" filter="url(#fxSoftBlur)"></ellipse><ellipse cx="315.9" cy="946.2" rx="3.2" ry="2.5" fill="#c0aa78"></ellipse><ellipse cx="315.0" cy="945.3" rx="1.3" ry="0.8" fill="#f0e2c0" opacity="0.5"></ellipse></g><g transform="rotate(17.5 587.3 186.8)"><ellipse cx="587.3" cy="188.2" rx="4.5" ry="1.9" fill="#2e2515" opacity="0.35" filter="url(#fxSoftBlur)"></ellipse><ellipse cx="587.3" cy="186.8" rx="4.3" ry="3.4" fill="#c0aa78"></ellipse><ellipse cx="586.1" cy="185.6" rx="1.7" ry="1.1" fill="#f0e2c0" opacity="0.5"></ellipse></g><g transform="rotate(358.9 919.6 137.7)"><ellipse cx="919.6" cy="139.0" rx="4.3" ry="1.9" fill="#2e2515" opacity="0.35" filter="url(#fxSoftBlur)"></ellipse><ellipse cx="919.6" cy="137.7" rx="4.1" ry="3.2" fill="#6e5c39"></ellipse><ellipse cx="918.5" cy="136.6" rx="1.6" ry="1.1" fill="#f0e2c0" opacity="0.5"></ellipse></g><g transform="rotate(248.9 956.6 613.9)"><ellipse cx="956.6" cy="615.7" rx="5.8" ry="2.5" fill="#2e2515" opacity="0.35" filter="url(#fxSoftBlur)"></ellipse><ellipse cx="956.6" cy="613.9" rx="5.5" ry="4.3" fill="#c0aa78"></ellipse><ellipse cx="955.0" cy="612.4" rx="2.2" ry="1.4" fill="#f0e2c0" opacity="0.5"></ellipse></g><g transform="rotate(272.5 370.8 836.1)"><ellipse cx="370.8" cy="837.3" rx="3.9" ry="1.7" fill="#2e2515" opacity="0.35" filter="url(#fxSoftBlur)"></ellipse><ellipse cx="370.8" cy="836.1" rx="3.7" ry="2.9" fill="#6e5c39"></ellipse><ellipse cx="369.8" cy="835.1" rx="1.5" ry="1.0" fill="#f0e2c0" opacity="0.5"></ellipse></g><g transform="rotate(260.3 411.2 946.9)"><ellipse cx="411.2" cy="947.7" rx="2.6" ry="1.1" fill="#2e2515" opacity="0.35" filter="url(#fxSoftBlur)"></ellipse><ellipse cx="411.2" cy="946.9" rx="2.5" ry="2.0" fill="#c0aa78"></ellipse><ellipse cx="410.5" cy="946.2" rx="1.0" ry="0.7" fill="#f0e2c0" opacity="0.5"></ellipse></g><g transform="rotate(155.4 725.3 942.9)"><ellipse cx="725.3" cy="943.9" rx="3.2" ry="1.4" fill="#2e2515" opacity="0.35" filter="url(#fxSoftBlur)"></ellipse><ellipse cx="725.3" cy="942.9" rx="3.0" ry="2.4" fill="#c0aa78"></ellipse><ellipse cx="724.4" cy="942.1" rx="1.2" ry="0.8" fill="#f0e2c0" opacity="0.5"></ellipse></g><g transform="rotate(76.4 223.8 905.0)"><ellipse cx="223.8" cy="906.5" rx="4.8" ry="2.1" fill="#2e2515" opacity="0.35" filter="url(#fxSoftBlur)"></ellipse><ellipse cx="223.8" cy="905.0" rx="4.6" ry="3.6" fill="#c0aa78"></ellipse><ellipse cx="222.5" cy="903.7" rx="1.8" ry="1.2" fill="#f0e2c0" opacity="0.5"></ellipse></g><g transform="rotate(292.4 901.2 941.0)"><ellipse cx="901.2" cy="942.3" rx="4.0" ry="1.7" fill="#2e2515" opacity="0.35" filter="url(#fxSoftBlur)"></ellipse><ellipse cx="901.2" cy="941.0" rx="3.8" ry="2.9" fill="#6e5c39"></ellipse><ellipse cx="900.1" cy="940.0" rx="1.5" ry="1.0" fill="#f0e2c0" opacity="0.5"></ellipse></g><g transform="rotate(268.5 647.4 727.2)"><ellipse cx="647.4" cy="728.5" rx="4.2" ry="1.8" fill="#2e2515" opacity="0.35" filter="url(#fxSoftBlur)"></ellipse><ellipse cx="647.4" cy="727.2" rx="4.0" ry="3.1" fill="#c0aa78"></ellipse><ellipse cx="646.2" cy="726.1" rx="1.6" ry="1.0" fill="#f0e2c0" opacity="0.5"></ellipse></g><g transform="rotate(291.5 666.0 90.3)"><ellipse cx="666.0" cy="91.9" rx="5.1" ry="2.2" fill="#2e2515" opacity="0.35" filter="url(#fxSoftBlur)"></ellipse><ellipse cx="666.0" cy="90.3" rx="4.9" ry="3.8" fill="#c0aa78"></ellipse><ellipse cx="664.6" cy="89.0" rx="1.9" ry="1.3" fill="#f0e2c0" opacity="0.5"></ellipse></g><g transform="rotate(57.8 702.6 969.3)"><ellipse cx="702.6" cy="970.4" rx="3.8" ry="1.6" fill="#2e2515" opacity="0.35" filter="url(#fxSoftBlur)"></ellipse><ellipse cx="702.6" cy="969.3" rx="3.6" ry="2.8" fill="#6e5c39"></ellipse><ellipse cx="701.6" cy="968.3" rx="1.4" ry="0.9" fill="#f0e2c0" opacity="0.5"></ellipse></g><g transform="rotate(101.1 475.4 94.3)"><ellipse cx="475.4" cy="95.1" rx="2.7" ry="1.1" fill="#2e2515" opacity="0.35" filter="url(#fxSoftBlur)"></ellipse><ellipse cx="475.4" cy="94.3" rx="2.5" ry="2.0" fill="#c0aa78"></ellipse><ellipse cx="474.7" cy="93.6" rx="1.0" ry="0.7" fill="#f0e2c0" opacity="0.5"></ellipse></g><g transform="rotate(355.2 63.2 758.7)"><ellipse cx="63.2" cy="759.6" rx="2.9" ry="1.3" fill="#2e2515" opacity="0.35" filter="url(#fxSoftBlur)"></ellipse><ellipse cx="63.2" cy="758.7" rx="2.8" ry="2.2" fill="#6e5c39"></ellipse><ellipse cx="62.4" cy="757.9" rx="1.1" ry="0.7" fill="#f0e2c0" opacity="0.5"></ellipse></g><g transform="rotate(134.8 93.8 499.8)"><ellipse cx="93.8" cy="500.6" rx="2.6" ry="1.1" fill="#2e2515" opacity="0.35" filter="url(#fxSoftBlur)"></ellipse><ellipse cx="93.8" cy="499.8" rx="2.5" ry="2.0" fill="#6e5c39"></ellipse><ellipse cx="93.1" cy="499.1" rx="1.0" ry="0.7" fill="#f0e2c0" opacity="0.5"></ellipse></g><g transform="rotate(71.2 446.9 894.5)"><ellipse cx="446.9" cy="895.4" rx="3.0" ry="1.3" fill="#2e2515" opacity="0.35" filter="url(#fxSoftBlur)"></ellipse><ellipse cx="446.9" cy="894.5" rx="2.8" ry="2.2" fill="#6e5c39"></ellipse><ellipse cx="446.2" cy="893.7" rx="1.1" ry="0.7" fill="#f0e2c0" opacity="0.5"></ellipse></g><g transform="rotate(67.7 87.6 787.5)"><ellipse cx="87.6" cy="788.9" rx="4.7" ry="2.0" fill="#2e2515" opacity="0.35" filter="url(#fxSoftBlur)"></ellipse><ellipse cx="87.6" cy="787.5" rx="4.4" ry="3.5" fill="#c0aa78"></ellipse><ellipse cx="86.3" cy="786.3" rx="1.8" ry="1.2" fill="#f0e2c0" opacity="0.5"></ellipse></g><g transform="rotate(152.7 465.3 481.7)"><ellipse cx="465.3" cy="483.1" rx="4.7" ry="2.0" fill="#2e2515" opacity="0.35" filter="url(#fxSoftBlur)"></ellipse><ellipse cx="465.3" cy="481.7" rx="4.5" ry="3.5" fill="#c0aa78"></ellipse><ellipse cx="464.0" cy="480.5" rx="1.8" ry="1.2" fill="#f0e2c0" opacity="0.5"></ellipse></g><g transform="rotate(260.1 110.3 509.3)"><ellipse cx="110.3" cy="510.5" rx="3.8" ry="1.6" fill="#2e2515" opacity="0.35" filter="url(#fxSoftBlur)"></ellipse><ellipse cx="110.3" cy="509.3" rx="3.6" ry="2.8" fill="#6e5c39"></ellipse><ellipse cx="109.2" cy="508.3" rx="1.4" ry="0.9" fill="#f0e2c0" opacity="0.5"></ellipse></g>
  <ellipse cx="734.2" cy="293.8" rx="6.9" ry="4.9" fill="#4a3d25" opacity="0.41"></ellipse><ellipse cx="602.8" cy="649.4" rx="5.5" ry="3.8" fill="#c0aa78" opacity="0.40"></ellipse><ellipse cx="859.6" cy="194.8" rx="5.2" ry="3.6" fill="#3a2f1c" opacity="0.55"></ellipse><ellipse cx="286.7" cy="294.7" rx="4.5" ry="3.1" fill="#4a3d25" opacity="0.31"></ellipse><ellipse cx="642.0" cy="112.4" rx="6.6" ry="4.6" fill="#c0aa78" opacity="0.56"></ellipse><ellipse cx="273.7" cy="232.9" rx="5.7" ry="4.0" fill="#3a2f1c" opacity="0.41"></ellipse><ellipse cx="371.0" cy="331.6" rx="6.0" ry="4.2" fill="#3a2f1c" opacity="0.56"></ellipse><ellipse cx="369.9" cy="697.2" rx="2.1" ry="1.5" fill="#3a2f1c" opacity="0.43"></ellipse><ellipse cx="141.7" cy="951.5" rx="6.2" ry="4.3" fill="#c0aa78" opacity="0.38"></ellipse><ellipse cx="399.1" cy="924.3" rx="6.1" ry="4.2" fill="#4a3d25" opacity="0.60"></ellipse><ellipse cx="957.7" cy="6.3" rx="4.2" ry="2.9" fill="#3a2f1c" opacity="0.38"></ellipse><ellipse cx="957.7" cy="1030.3" rx="4.2" ry="2.9" fill="#3a2f1c" opacity="0.38"></ellipse><ellipse cx="745.6" cy="203.6" rx="4.0" ry="2.8" fill="#c0aa78" opacity="0.41"></ellipse><ellipse cx="43.3" cy="551.0" rx="2.8" ry="1.9" fill="#4a3d25" opacity="0.36"></ellipse><ellipse cx="616.8" cy="635.2" rx="3.1" ry="2.2" fill="#c0aa78" opacity="0.54"></ellipse><ellipse cx="542.5" cy="663.9" rx="2.4" ry="1.7" fill="#c0aa78" opacity="0.45"></ellipse><ellipse cx="147.6" cy="380.8" rx="2.8" ry="1.9" fill="#3a2f1c" opacity="0.43"></ellipse><ellipse cx="785.5" cy="27.3" rx="3.0" ry="2.1" fill="#3a2f1c" opacity="0.44"></ellipse><ellipse cx="423.9" cy="806.1" rx="5.3" ry="3.7" fill="#c0aa78" opacity="0.36"></ellipse><ellipse cx="682.8" cy="73.1" rx="4.3" ry="3.0" fill="#4a3d25" opacity="0.63"></ellipse><ellipse cx="394.9" cy="575.6" rx="4.8" ry="3.4" fill="#3a2f1c" opacity="0.61"></ellipse><ellipse cx="405.5" cy="701.3" rx="6.7" ry="4.7" fill="#3a2f1c" opacity="0.34"></ellipse><ellipse cx="332.4" cy="242.0" rx="5.5" ry="3.9" fill="#c0aa78" opacity="0.52"></ellipse><ellipse cx="378.2" cy="691.8" rx="6.5" ry="4.6" fill="#3a2f1c" opacity="0.54"></ellipse><ellipse cx="1.8" cy="589.8" rx="6.6" ry="4.6" fill="#4a3d25" opacity="0.32"></ellipse><ellipse cx="1025.8" cy="589.8" rx="6.6" ry="4.6" fill="#4a3d25" opacity="0.32"></ellipse><ellipse cx="971.9" cy="37.4" rx="3.3" ry="2.3" fill="#c0aa78" opacity="0.37"></ellipse><ellipse cx="108.3" cy="557.4" rx="5.7" ry="4.0" fill="#c0aa78" opacity="0.58"></ellipse><ellipse cx="751.3" cy="53.6" rx="6.2" ry="4.4" fill="#c0aa78" opacity="0.59"></ellipse><ellipse cx="633.0" cy="932.8" rx="6.2" ry="4.4" fill="#4a3d25" opacity="0.48"></ellipse><ellipse cx="861.5" cy="879.0" rx="3.2" ry="2.3" fill="#c0aa78" opacity="0.60"></ellipse><ellipse cx="804.2" cy="531.7" rx="3.8" ry="2.6" fill="#3a2f1c" opacity="0.50"></ellipse><ellipse cx="571.0" cy="695.8" rx="5.5" ry="3.8" fill="#c0aa78" opacity="0.43"></ellipse><ellipse cx="879.7" cy="434.0" rx="5.5" ry="3.9" fill="#4a3d25" opacity="0.45"></ellipse><ellipse cx="624.9" cy="674.2" rx="5.4" ry="3.8" fill="#c0aa78" opacity="0.50"></ellipse><ellipse cx="581.7" cy="23.1" rx="5.0" ry="3.5" fill="#3a2f1c" opacity="0.36"></ellipse><ellipse cx="751.4" cy="242.1" rx="5.3" ry="3.7" fill="#4a3d25" opacity="0.64"></ellipse><ellipse cx="777.2" cy="389.2" rx="5.8" ry="4.1" fill="#4a3d25" opacity="0.37"></ellipse><ellipse cx="272.2" cy="314.6" rx="5.5" ry="3.8" fill="#c0aa78" opacity="0.59"></ellipse><ellipse cx="778.4" cy="37.0" rx="6.3" ry="4.4" fill="#4a3d25" opacity="0.60"></ellipse><ellipse cx="231.7" cy="528.9" rx="4.5" ry="3.1" fill="#4a3d25" opacity="0.52"></ellipse><ellipse cx="677.7" cy="485.8" rx="5.8" ry="4.1" fill="#3a2f1c" opacity="0.51"></ellipse><ellipse cx="565.4" cy="716.6" rx="4.1" ry="2.9" fill="#4a3d25" opacity="0.31"></ellipse><ellipse cx="203.3" cy="907.9" rx="4.6" ry="3.2" fill="#4a3d25" opacity="0.35"></ellipse><ellipse cx="552.4" cy="293.1" rx="5.5" ry="3.8" fill="#3a2f1c" opacity="0.52"></ellipse><ellipse cx="373.6" cy="472.1" rx="3.3" ry="2.3" fill="#4a3d25" opacity="0.49"></ellipse><ellipse cx="748.7" cy="77.3" rx="5.6" ry="3.9" fill="#3a2f1c" opacity="0.63"></ellipse><ellipse cx="321.1" cy="998.9" rx="3.1" ry="2.1" fill="#4a3d25" opacity="0.65"></ellipse>
  <ellipse cx="728.9" cy="392.6" rx="1.9" ry="1.4" fill="#4a3d25" opacity="0.22"></ellipse><ellipse cx="144.2" cy="81.7" rx="1.7" ry="1.2" fill="#4a3d25" opacity="0.21"></ellipse><ellipse cx="442.0" cy="462.9" rx="1.9" ry="1.3" fill="#c0aa78" opacity="0.24"></ellipse><ellipse cx="444.9" cy="777.2" rx="2.1" ry="1.5" fill="#3a2f1c" opacity="0.37"></ellipse><ellipse cx="725.1" cy="661.7" rx="1.1" ry="0.8" fill="#3a2f1c" opacity="0.26"></ellipse><ellipse cx="439.9" cy="926.6" rx="1.7" ry="1.2" fill="#3a2f1c" opacity="0.20"></ellipse><ellipse cx="815.2" cy="983.7" rx="2.5" ry="1.7" fill="#3a2f1c" opacity="0.29"></ellipse><ellipse cx="392.8" cy="663.8" rx="1.2" ry="0.8" fill="#4a3d25" opacity="0.26"></ellipse><ellipse cx="146.3" cy="203.6" rx="2.4" ry="1.7" fill="#4a3d25" opacity="0.38"></ellipse><ellipse cx="925.6" cy="692.1" rx="1.6" ry="1.1" fill="#4a3d25" opacity="0.27"></ellipse><ellipse cx="618.1" cy="756.4" rx="1.3" ry="0.9" fill="#c0aa78" opacity="0.32"></ellipse><ellipse cx="425.9" cy="1006.9" rx="1.7" ry="1.2" fill="#3a2f1c" opacity="0.30"></ellipse><ellipse cx="742.0" cy="489.2" rx="1.9" ry="1.4" fill="#3a2f1c" opacity="0.25"></ellipse><ellipse cx="499.0" cy="356.0" rx="2.0" ry="1.4" fill="#4a3d25" opacity="0.21"></ellipse><ellipse cx="964.0" cy="760.5" rx="2.0" ry="1.4" fill="#3a2f1c" opacity="0.29"></ellipse><ellipse cx="307.1" cy="553.5" rx="1.9" ry="1.3" fill="#4a3d25" opacity="0.39"></ellipse><ellipse cx="988.2" cy="597.0" rx="1.5" ry="1.0" fill="#3a2f1c" opacity="0.21"></ellipse><ellipse cx="921.0" cy="788.8" rx="1.9" ry="1.3" fill="#4a3d25" opacity="0.34"></ellipse><ellipse cx="725.1" cy="458.6" rx="1.5" ry="1.0" fill="#c0aa78" opacity="0.26"></ellipse><ellipse cx="813.0" cy="558.6" rx="1.4" ry="1.0" fill="#c0aa78" opacity="0.30"></ellipse><ellipse cx="109.5" cy="857.8" rx="2.2" ry="1.5" fill="#c0aa78" opacity="0.33"></ellipse><ellipse cx="151.0" cy="945.7" rx="1.6" ry="1.1" fill="#c0aa78" opacity="0.28"></ellipse><ellipse cx="712.7" cy="100.4" rx="1.6" ry="1.1" fill="#3a2f1c" opacity="0.23"></ellipse><ellipse cx="447.8" cy="84.5" rx="1.7" ry="1.2" fill="#3a2f1c" opacity="0.30"></ellipse><ellipse cx="54.8" cy="561.0" rx="1.4" ry="1.0" fill="#3a2f1c" opacity="0.39"></ellipse><ellipse cx="953.1" cy="257.9" rx="1.6" ry="1.1" fill="#4a3d25" opacity="0.29"></ellipse><ellipse cx="157.1" cy="13.3" rx="1.5" ry="1.0" fill="#4a3d25" opacity="0.33"></ellipse><ellipse cx="990.1" cy="444.7" rx="2.0" ry="1.4" fill="#4a3d25" opacity="0.39"></ellipse><ellipse cx="999.9" cy="990.4" rx="2.4" ry="1.6" fill="#c0aa78" opacity="0.25"></ellipse><ellipse cx="257.2" cy="177.1" rx="1.7" ry="1.2" fill="#3a2f1c" opacity="0.36"></ellipse><ellipse cx="674.1" cy="365.8" rx="1.6" ry="1.1" fill="#3a2f1c" opacity="0.28"></ellipse><ellipse cx="465.9" cy="602.8" rx="1.5" ry="1.1" fill="#4a3d25" opacity="0.38"></ellipse><ellipse cx="555.8" cy="459.2" rx="1.3" ry="0.9" fill="#4a3d25" opacity="0.36"></ellipse><ellipse cx="67.8" cy="564.1" rx="1.2" ry="0.9" fill="#3a2f1c" opacity="0.23"></ellipse><ellipse cx="109.4" cy="993.4" rx="2.3" ry="1.6" fill="#c0aa78" opacity="0.36"></ellipse><ellipse cx="12.6" cy="229.1" rx="2.2" ry="1.6" fill="#3a2f1c" opacity="0.24"></ellipse><ellipse cx="315.3" cy="195.8" rx="1.1" ry="0.8" fill="#c0aa78" opacity="0.33"></ellipse><ellipse cx="959.1" cy="619.8" rx="1.6" ry="1.1" fill="#4a3d25" opacity="0.21"></ellipse><ellipse cx="941.0" cy="401.0" rx="2.2" ry="1.5" fill="#3a2f1c" opacity="0.21"></ellipse><ellipse cx="251.0" cy="216.4" rx="1.6" ry="1.1" fill="#3a2f1c" opacity="0.27"></ellipse><ellipse cx="687.6" cy="346.9" rx="2.3" ry="1.6" fill="#3a2f1c" opacity="0.27"></ellipse><ellipse cx="5.0" cy="887.2" rx="2.3" ry="1.6" fill="#4a3d25" opacity="0.20"></ellipse><ellipse cx="126.7" cy="61.3" rx="1.3" ry="0.9" fill="#3a2f1c" opacity="0.28"></ellipse><ellipse cx="255.0" cy="78.9" rx="1.7" ry="1.2" fill="#3a2f1c" opacity="0.32"></ellipse><ellipse cx="263.3" cy="351.2" rx="2.3" ry="1.6" fill="#3a2f1c" opacity="0.34"></ellipse><ellipse cx="953.6" cy="294.9" rx="2.5" ry="1.7" fill="#3a2f1c" opacity="0.29"></ellipse><ellipse cx="823.5" cy="589.9" rx="2.1" ry="1.5" fill="#3a2f1c" opacity="0.21"></ellipse><ellipse cx="483.2" cy="954.3" rx="1.4" ry="1.0" fill="#3a2f1c" opacity="0.32"></ellipse><ellipse cx="345.1" cy="481.7" rx="1.7" ry="1.2" fill="#c0aa78" opacity="0.21"></ellipse><ellipse cx="460.2" cy="224.4" rx="2.2" ry="1.5" fill="#3a2f1c" opacity="0.20"></ellipse><ellipse cx="321.3" cy="50.2" rx="1.3" ry="0.9" fill="#3a2f1c" opacity="0.29"></ellipse><ellipse cx="571.5" cy="302.5" rx="1.5" ry="1.0" fill="#c0aa78" opacity="0.35"></ellipse><ellipse cx="837.6" cy="300.1" rx="1.4" ry="1.0" fill="#3a2f1c" opacity="0.26"></ellipse><ellipse cx="281.5" cy="834.9" rx="1.7" ry="1.2" fill="#c0aa78" opacity="0.38"></ellipse><ellipse cx="333.5" cy="339.7" rx="1.0" ry="0.7" fill="#4a3d25" opacity="0.31"></ellipse><ellipse cx="785.6" cy="570.4" rx="2.4" ry="1.7" fill="#c0aa78" opacity="0.34"></ellipse><ellipse cx="251.2" cy="920.6" rx="2.1" ry="1.5" fill="#c0aa78" opacity="0.28"></ellipse><ellipse cx="806.9" cy="171.3" rx="2.3" ry="1.6" fill="#4a3d25" opacity="0.30"></ellipse><ellipse cx="884.1" cy="313.2" rx="1.9" ry="1.3" fill="#3a2f1c" opacity="0.25"></ellipse><ellipse cx="464.5" cy="884.6" rx="1.5" ry="1.1" fill="#3a2f1c" opacity="0.24"></ellipse>
  <rect width="1024" height="1024" fill="#808080" filter="url(#sdBump)" opacity="0.20" style="mix-blend-mode:overlay"></rect>
  <rect width="1024" height="1024" fill="#808080" filter="url(#sdBumpFine)" opacity="0.14" style="mix-blend-mode:overlay"></rect>
  <rect width="1024" height="1024" filter="url(#sdGrain)" opacity="0.08" style="mix-blend-mode:overlay" pointer-events="none"></rect>
</svg>