<svg viewBox="0 0 512 512" xmlns="http://www.w3.org/2000/svg">
  <defs><filter id="fxBlur2" x="-60%" y="-60%" width="220%" height="220%"><feGaussianBlur stdDeviation="6"></feGaussianBlur></filter><filter id="fxOutline" x="-40%" y="-40%" width="180%" height="180%"><feTurbulence type="fractalNoise" baseFrequency="0.85" numOctaves="2" seed="7" result="fxn"></feTurbulence><feDisplacementMap in="SourceGraphic" in2="fxn" scale="1.2" xChannelSelector="R" yChannelSelector="G" result="fxrough"></feDisplacementMap><feDropShadow in="fxrough" dx="0" dy="0" stdDeviation="1.3" flood-color="#3d5a52" flood-opacity="0.85"></feDropShadow></filter><filter id="fxBlur" x="-60%" y="-60%" width="220%" height="220%"><feGaussianBlur stdDeviation="1.6"></feGaussianBlur></filter>
    <linearGradient id="baseSwamp" x1="0%" y1="0%" x2="60%" y2="100%">
      <stop offset="0%" stop-color="#3a4a2e"></stop>
      <stop offset="50%" stop-color="#2c3b24"></stop>
      <stop offset="100%" stop-color="#1c2a18"></stop>
    </linearGradient>
    <filter id="bumpW" x="-20%" y="-20%" width="140%" height="140%">
      <feTurbulence type="fractalNoise" baseFrequency="0.038" numOctaves="4" seed="52" result="n"></feTurbulence>
      <feDiffuseLighting in="n" lighting-color="#ffffff" surfaceScale="3" diffuseConstant="1.05">
        <feDistantLight azimuth="235" elevation="43"></feDistantLight>
      </feDiffuseLighting>
    </filter>
    <radialGradient id="vignetteW" cx="50%" cy="39%" r="78%">
      <stop offset="0%" stop-color="#ffffff" stop-opacity="0.04"></stop>
      <stop offset="60%" stop-color="#000000" stop-opacity="0"></stop>
      <stop offset="100%" stop-color="#000000" stop-opacity="0.4"></stop>
    </radialGradient>
  <filter id="fxGrain" x="0" y="0" width="100%" height="100%"><feTurbulence type="fractalNoise" baseFrequency="0.9" numOctaves="2" seed="3" result="n"></feTurbulence><feColorMatrix in="n" type="matrix" values="0 0 0 0 0  0 0 0 0 0  0 0 0 0 0  0.9 0 0 0 0"></feColorMatrix></filter></defs><g filter="url(#fxOutline)">

  <rect width="512" height="512" fill="url(#baseSwamp)"></rect>

  
  <ellipse cx="140" cy="150" rx="85" ry="45" fill="#1a2e33" opacity="0.75" filter="url(#fxBlur2)"></ellipse>
  <ellipse cx="390" cy="330" rx="100" ry="55" fill="#1a2e33" opacity="0.72" filter="url(#fxBlur2)"></ellipse>
  <ellipse cx="280" cy="90" rx="55" ry="28" fill="#1a2e33" opacity="0.6" filter="url(#fxBlur2)"></ellipse>
  <ellipse cx="90" cy="410" rx="70" ry="38" fill="#1a2e33" opacity="0.65" filter="url(#fxBlur2)"></ellipse>

  
  <path d="M70 150 Q140 135 210 150" stroke="#3d5a52" stroke-width="1.8" fill="none" opacity="0.23" stroke-linecap="round"></path>
  <path d="M300 330 Q390 315 480 335" stroke="#3d5a52" stroke-width="1.8" fill="none" opacity="0.20" stroke-linecap="round"></path>
  <path d="M40 405 Q90 392 145 408" stroke="#3d5a52" stroke-width="1.5" fill="none" opacity="0.18" stroke-linecap="round"></path>

  
  <path d="M230 200 L226 170 M234 200 L233 165 M238 200 L241 172" stroke="#4a6b3a" stroke-width="1.5" fill="none" opacity="0.27" stroke-linecap="round"></path>
  <path d="M420 200 L416 168 M424 200 L423 162 M428 200 L431 170" stroke="#4a6b3a" stroke-width="1.5" fill="none" opacity="0.25" stroke-linecap="round"></path>
  <path d="M180 300 L176 272 M184 300 L183 266 M188 300 L191 274" stroke="#4a6b3a" stroke-width="1.3" fill="none" opacity="0.25" stroke-linecap="round"></path>
  <path d="M340 430 L336 402 M344 430 L343 396 M348 430 L351 404" stroke="#4a6b3a" stroke-width="1.3" fill="none" opacity="0.23" stroke-linecap="round"></path>
  <path d="M60 250 L56 222 M64 250 L63 216 M68 250 L71 224" stroke="#4a6b3a" stroke-width="1.2" fill="none" opacity="0.23" stroke-linecap="round"></path>

  
  <ellipse cx="122" cy="70" rx="5" ry="3.5" fill="#14201a" opacity="0.5"></ellipse>
  <ellipse cx="232" cy="415" rx="5" ry="3.5" fill="#4a5c38" opacity="0.45"></ellipse>
  <ellipse cx="440" cy="169" rx="4.5" ry="3.1" fill="#14201a" opacity="0.5"></ellipse>
  <ellipse cx="409" cy="111" rx="3" ry="2.1" fill="#4a5c38" opacity="0.5"></ellipse>
  <ellipse cx="289" cy="39" rx="2.3" ry="1.6" fill="#14201a" opacity="0.55"></ellipse>
  <ellipse cx="129" cy="274" rx="1.9" ry="1.3" fill="#4a5c38" opacity="0.55"></ellipse>
  <ellipse cx="459" cy="437" rx="2.9" ry="2" fill="#14201a" opacity="0.45"></ellipse>
  <ellipse cx="196" cy="90" rx="4.1" ry="2.8" fill="#4a5c38" opacity="0.45"></ellipse>
  <ellipse cx="33" cy="392" rx="4" ry="2.8" fill="#14201a" opacity="0.5"></ellipse>

  <rect width="512" height="512" fill="#808080" filter="url(#bumpW)" opacity="0.14" style="mix-blend-mode:overlay"></rect>
  <rect width="512" height="512" fill="url(#vignetteW)"></rect>
<rect x="0" y="0" width="512" height="512" filter="url(#fxGrain)" opacity="0.1" style="mix-blend-mode:overlay" pointer-events="none"></rect></g></svg>