<svg viewBox="0 0 1024 1024" xmlns="http://www.w3.org/2000/svg">
  <defs>
    <filter id="fxSoftBlur" x="-60%" y="-60%" width="220%" height="220%"><feGaussianBlur stdDeviation="14"></feGaussianBlur></filter>
    
    <filter id="swMottle" x="0" y="0" width="100%" height="100%">
      <feTurbulence type="fractalNoise" baseFrequency="0.010" numOctaves="4" seed="51" stitchTiles="stitch" x="0" y="0" width="1024" height="1024" result="n"></feTurbulence>
      <feColorMatrix in="n" type="matrix" values="0 0 0 0 0  0 0 0 0 0  0 0 0 0 0  0.55 0.55 0.55 0 -0.35" result="mask"></feColorMatrix>
    </filter>
    <filter id="swMottle2" x="0" y="0" width="100%" height="100%">
      <feTurbulence type="fractalNoise" baseFrequency="0.028" numOctaves="3" seed="411" stitchTiles="stitch" x="0" y="0" width="1024" height="1024" result="n"></feTurbulence>
      <feColorMatrix in="n" type="matrix" values="0 0 0 0 0  0 0 0 0 0  0 0 0 0 0  0.5 0.5 0.5 0 -0.4"></feColorMatrix>
    </filter>
    <filter id="swBump" x="0" y="0" width="100%" height="100%">
      <feTurbulence type="fractalNoise" baseFrequency="0.045" numOctaves="5" seed="52" stitchTiles="stitch" x="0" y="0" width="1024" height="1024" result="n"></feTurbulence>
      <feDiffuseLighting in="n" lighting-color="#ffffff" surfaceScale="3.4" diffuseConstant="1.15" result="lit">
        <feDistantLight azimuth="235" elevation="46"></feDistantLight>
      </feDiffuseLighting>
    </filter>
    <filter id="swBumpFine" x="0" y="0" width="100%" height="100%">
      <feTurbulence type="fractalNoise" baseFrequency="0.144" numOctaves="3" seed="59" stitchTiles="stitch" x="0" y="0" width="1024" height="1024" result="n"></feTurbulence>
      <feDiffuseLighting in="n" lighting-color="#ffffff" surfaceScale="1.6" diffuseConstant="1.0" result="lit">
        <feDistantLight azimuth="235" elevation="55"></feDistantLight>
      </feDiffuseLighting>
    </filter>
    <filter id="swGrain" x="0" y="0" width="100%" height="100%">
      <feTurbulence type="fractalNoise" baseFrequency="0.9" numOctaves="2" seed="53" stitchTiles="stitch" x="0" y="0" width="1024" height="1024" result="n"></feTurbulence>
      <feColorMatrix in="n" type="matrix" values="0 0 0 0 0  0 0 0 0 0  0 0 0 0 0  0.85 0 0 0 0"></feColorMatrix>
    </filter>
  </defs>
  <rect width="1024" height="1024" fill="#2c3b24"></rect>
  <rect width="1024" height="1024" fill="#4a6b3a" filter="url(#swMottle)" style="mix-blend-mode:soft-light"></rect>
  <rect width="1024" height="1024" fill="#1c2a18" filter="url(#swMottle2)" style="mix-blend-mode:overlay" opacity="0.5"></rect>
  <ellipse cx="352.4" cy="776.7" rx="95.6" ry="68.9" fill="#233a1c" opacity="0.42" filter="url(#fxSoftBlur)" transform="rotate(-16.3 352.4 776.7)"></ellipse><ellipse cx="239.3" cy="907.0" rx="78.7" ry="51.2" fill="#1a2e33" opacity="0.49" filter="url(#fxSoftBlur)" transform="rotate(3.3 239.3 907.0)"></ellipse><ellipse cx="249.7" cy="677.1" rx="89.3" ry="67.6" fill="#1a2e33" opacity="0.46" filter="url(#fxSoftBlur)" transform="rotate(-17.3 249.7 677.1)"></ellipse><ellipse cx="603.8" cy="133.3" rx="125.1" ry="92.7" fill="#1a2e33" opacity="0.55" filter="url(#fxSoftBlur)" transform="rotate(-8.8 603.8 133.3)"></ellipse><ellipse cx="728.2" cy="737.1" rx="97.3" ry="68.7" fill="#233a1c" opacity="0.48" filter="url(#fxSoftBlur)" transform="rotate(12.6 728.2 737.1)"></ellipse><ellipse cx="980.0" cy="929.3" rx="143.2" ry="121.6" fill="#233a1c" opacity="0.46" filter="url(#fxSoftBlur)" transform="rotate(-0.3 980.0 929.3)"></ellipse><ellipse cx="-44.0" cy="929.3" rx="101.0" ry="34.7" fill="#233a1c" opacity="0.46" filter="url(#fxSoftBlur)" transform="rotate(-4.0 -44.0 929.3)"></ellipse><ellipse cx="980.0" cy="-94.7" rx="85.3" ry="54.2" fill="#233a1c" opacity="0.46" filter="url(#fxSoftBlur)" transform="rotate(-8.9 980.0 -94.7)"></ellipse><ellipse cx="-44.0" cy="-94.7" rx="146.0" ry="52.8" fill="#233a1c" opacity="0.46" filter="url(#fxSoftBlur)" transform="rotate(-13.6 -44.0 -94.7)"></ellipse><ellipse cx="506.0" cy="554.9" rx="67.9" ry="49.7" fill="#1a2e33" opacity="0.43" filter="url(#fxSoftBlur)" transform="rotate(-9.6 506.0 554.9)"></ellipse><ellipse cx="437.1" cy="121.4" rx="65.6" ry="72.9" fill="#1a2e33" opacity="0.45" filter="url(#fxSoftBlur)" transform="rotate(16.0 437.1 121.4)"></ellipse><ellipse cx="346.8" cy="677.8" rx="139.7" ry="105.8" fill="#1a2e33" opacity="0.40" filter="url(#fxSoftBlur)" transform="rotate(17.4 346.8 677.8)"></ellipse><ellipse cx="804.9" cy="793.4" rx="100.0" ry="77.1" fill="#233a1c" opacity="0.43" filter="url(#fxSoftBlur)" transform="rotate(12.4 804.9 793.4)"></ellipse>
  
  <ellipse cx="329.7" cy="459.6" rx="24.1" ry="14.5" fill="#0e2226" opacity="0.55" filter="url(#fxSoftBlur)"></ellipse><ellipse cx="329.7" cy="456.0" rx="12.0" ry="4.3" fill="#3d5a52" opacity="0.4"></ellipse><ellipse cx="849.4" cy="323.0" rx="26.3" ry="15.8" fill="#0e2226" opacity="0.55" filter="url(#fxSoftBlur)"></ellipse><ellipse cx="849.4" cy="319.1" rx="13.1" ry="4.7" fill="#3d5a52" opacity="0.4"></ellipse><ellipse cx="357.6" cy="359.4" rx="48.0" ry="28.8" fill="#0e2226" opacity="0.55" filter="url(#fxSoftBlur)"></ellipse><ellipse cx="357.6" cy="352.2" rx="24.0" ry="8.6" fill="#3d5a52" opacity="0.4"></ellipse><ellipse cx="117.2" cy="386.3" rx="41.2" ry="24.7" fill="#0e2226" opacity="0.55" filter="url(#fxSoftBlur)"></ellipse><ellipse cx="117.2" cy="380.1" rx="20.6" ry="7.4" fill="#3d5a52" opacity="0.4"></ellipse><ellipse cx="691.1" cy="325.8" rx="33.3" ry="20.0" fill="#0e2226" opacity="0.55" filter="url(#fxSoftBlur)"></ellipse><ellipse cx="691.1" cy="320.8" rx="16.6" ry="6.0" fill="#3d5a52" opacity="0.4"></ellipse><ellipse cx="286.8" cy="760.7" rx="31.6" ry="18.9" fill="#0e2226" opacity="0.55" filter="url(#fxSoftBlur)"></ellipse><ellipse cx="286.8" cy="755.9" rx="15.8" ry="5.7" fill="#3d5a52" opacity="0.4"></ellipse>
  
  <path d="M811.3 797.7 L815.8 777.5 M817.7 797.7 L818.7 774.5 M824.2 797.7 L821.0 780.5" stroke="#4a6b3a" stroke-width="1.4" fill="none" opacity="0.27" stroke-linecap="round"></path><path d="M303.6 936.4 L305.8 917.7 M306.7 936.4 L307.2 914.9 M309.8 936.4 L308.2 920.5" stroke="#4a6b3a" stroke-width="1.4" fill="none" opacity="0.32" stroke-linecap="round"></path><path d="M819.2 655.3 L821.7 635.5 M822.7 655.3 L823.2 632.6 M826.2 655.3 L824.5 638.5" stroke="#4a6b3a" stroke-width="1.4" fill="none" opacity="0.20" stroke-linecap="round"></path><path d="M198.2 548.4 L201.4 531.6 M202.8 548.4 L203.5 529.1 M207.4 548.4 L205.1 534.1" stroke="#4a6b3a" stroke-width="1.4" fill="none" opacity="0.22" stroke-linecap="round"></path><path d="M920.1 313.8 L923.4 288.5 M924.8 313.8 L925.5 284.7 M929.5 313.8 L927.2 292.3" stroke="#4a6b3a" stroke-width="1.4" fill="none" opacity="0.21" stroke-linecap="round"></path><path d="M150.8 370.7 L154.9 351.4 M156.6 370.7 L157.5 348.5 M162.4 370.7 L159.5 354.3" stroke="#4a6b3a" stroke-width="1.4" fill="none" opacity="0.23" stroke-linecap="round"></path><path d="M809.0 205.5 L812.3 187.4 M813.8 205.5 L814.5 184.6 M818.6 205.5 L816.2 190.1" stroke="#4a6b3a" stroke-width="1.4" fill="none" opacity="0.25" stroke-linecap="round"></path><path d="M135.0 170.8 L139.3 146.3 M141.1 170.8 L142.0 142.6 M147.2 170.8 L144.1 149.9" stroke="#4a6b3a" stroke-width="1.4" fill="none" opacity="0.23" stroke-linecap="round"></path><path d="M577.0 481.6 L580.6 467.6 M582.2 481.6 L582.9 465.5 M587.3 481.6 L584.7 469.7" stroke="#4a6b3a" stroke-width="1.4" fill="none" opacity="0.26" stroke-linecap="round"></path><path d="M904.3 203.3 L908.3 182.5 M910.1 203.3 L911.0 179.3 M915.9 203.3 L913.0 185.6" stroke="#4a6b3a" stroke-width="1.4" fill="none" opacity="0.33" stroke-linecap="round"></path><path d="M66.4 808.4 L68.9 796.3 M69.9 808.4 L70.5 794.5 M73.5 808.4 L71.7 798.1" stroke="#4a6b3a" stroke-width="1.4" fill="none" opacity="0.34" stroke-linecap="round"></path><path d="M362.9 116.5 L366.1 95.2 M367.4 116.5 L368.1 92.0 M372.0 116.5 L369.7 98.4" stroke="#4a6b3a" stroke-width="1.4" fill="none" opacity="0.23" stroke-linecap="round"></path><path d="M658.3 702.9 L662.4 689.1 M664.2 702.9 L665.1 687.0 M670.2 702.9 L667.2 691.1" stroke="#4a6b3a" stroke-width="1.4" fill="none" opacity="0.20" stroke-linecap="round"></path><path d="M943.5 915.4 L947.9 900.6 M949.8 915.4 L950.7 898.4 M956.0 915.4 L952.9 902.8" stroke="#4a6b3a" stroke-width="1.4" fill="none" opacity="0.26" stroke-linecap="round"></path><path d="M329.5 991.9 L333.9 979.7 M335.9 991.9 L336.8 977.9 M342.2 991.9 L339.0 981.5" stroke="#4a6b3a" stroke-width="1.4" fill="none" opacity="0.23" stroke-linecap="round"></path><path d="M323.7 948.9 L326.3 924.7 M327.5 948.9 L328.0 921.0 M331.2 948.9 L329.3 928.3" stroke="#4a6b3a" stroke-width="1.4" fill="none" opacity="0.26" stroke-linecap="round"></path><path d="M433.9 429.5 L436.8 419.5 M438.0 429.5 L438.6 418.0 M442.1 429.5 L440.0 421.0" stroke="#4a6b3a" stroke-width="1.4" fill="none" opacity="0.28" stroke-linecap="round"></path><path d="M966.1 336.7 L969.9 310.8 M971.6 336.7 L972.4 306.9 M977.1 336.7 L974.3 314.7" stroke="#4a6b3a" stroke-width="1.4" fill="none" opacity="0.32" stroke-linecap="round"></path><path d="M20.7 146.7 L23.3 126.4 M24.5 146.7 L25.0 123.4 M28.2 146.7 L26.3 129.5" stroke="#4a6b3a" stroke-width="1.4" fill="none" opacity="0.21" stroke-linecap="round"></path><path d="M537.5 815.5 L541.8 793.2 M543.7 815.5 L544.6 789.8 M549.8 815.5 L546.8 796.5" stroke="#4a6b3a" stroke-width="1.4" fill="none" opacity="0.27" stroke-linecap="round"></path><path d="M694.3 545.8 L697.5 533.9 M698.9 545.8 L699.6 532.1 M703.6 545.8 L701.3 535.7" stroke="#4a6b3a" stroke-width="1.4" fill="none" opacity="0.24" stroke-linecap="round"></path><path d="M992.5 65.8 L995.8 52.8 M997.3 65.8 L998.0 50.9 M1002.1 65.8 L999.7 54.8" stroke="#4a6b3a" stroke-width="1.4" fill="none" opacity="0.19" stroke-linecap="round"></path><path d="M630.8 830.4 L633.5 819.4 M634.6 830.4 L635.1 817.8 M638.3 830.4 L636.5 821.1" stroke="#4a6b3a" stroke-width="1.4" fill="none" opacity="0.31" stroke-linecap="round"></path><path d="M484.8 436.7 L489.0 416.2 M490.8 436.7 L491.6 413.1 M496.7 436.7 L493.7 419.2" stroke="#4a6b3a" stroke-width="1.4" fill="none" opacity="0.30" stroke-linecap="round"></path><path d="M37.8 1016.9 L40.1 991.5 M41.0 1016.9 L41.5 987.7 M44.2 1016.9 L42.6 995.3" stroke="#4a6b3a" stroke-width="1.4" fill="none" opacity="0.21" stroke-linecap="round"></path><path d="M37.8 -7.1 L40.1 -32.5 M41.0 -7.1 L41.5 -36.3 M44.2 -7.1 L42.6 -28.7" stroke="#4a6b3a" stroke-width="1.4" fill="none" opacity="0.31" stroke-linecap="round"></path><path d="M617.6 272.3 L619.7 250.8 M620.6 272.3 L621.1 247.5 M623.6 272.3 L622.1 254.0" stroke="#4a6b3a" stroke-width="1.4" fill="none" opacity="0.24" stroke-linecap="round"></path><path d="M215.2 992.6 L218.3 968.2 M219.6 992.6 L220.3 964.5 M224.0 992.6 L221.8 971.8" stroke="#4a6b3a" stroke-width="1.4" fill="none" opacity="0.20" stroke-linecap="round"></path><path d="M750.5 278.5 L752.8 252.6 M753.8 278.5 L754.3 248.7 M757.2 278.5 L755.5 256.5" stroke="#4a6b3a" stroke-width="1.4" fill="none" opacity="0.30" stroke-linecap="round"></path><path d="M259.6 704.3 L264.0 687.0 M265.9 704.3 L266.8 684.4 M272.1 704.3 L269.0 689.6" stroke="#4a6b3a" stroke-width="1.4" fill="none" opacity="0.20" stroke-linecap="round"></path><path d="M148.5 88.7 L151.9 63.9 M153.3 88.7 L154.1 60.1 M158.2 88.7 L155.8 67.6" stroke="#4a6b3a" stroke-width="1.4" fill="none" opacity="0.32" stroke-linecap="round"></path><path d="M90.2 871.9 L92.3 854.5 M93.2 871.9 L93.7 851.8 M96.3 871.9 L94.8 857.1" stroke="#4a6b3a" stroke-width="1.4" fill="none" opacity="0.29" stroke-linecap="round"></path><path d="M227.3 255.1 L230.0 230.6 M231.1 255.1 L231.7 226.9 M234.9 255.1 L233.0 234.3" stroke="#4a6b3a" stroke-width="1.4" fill="none" opacity="0.25" stroke-linecap="round"></path><path d="M486.7 217.6 L489.4 198.8 M490.6 217.6 L491.2 196.0 M494.6 217.6 L492.6 201.6" stroke="#4a6b3a" stroke-width="1.4" fill="none" opacity="0.32" stroke-linecap="round"></path><path d="M439.2 374.5 L443.7 364.2 M445.6 374.5 L446.6 362.7 M452.1 374.5 L448.8 365.8" stroke="#4a6b3a" stroke-width="1.4" fill="none" opacity="0.18" stroke-linecap="round"></path><path d="M439.0 581.5 L443.3 567.3 M445.2 581.5 L446.1 565.2 M451.4 581.5 L448.3 569.5" stroke="#4a6b3a" stroke-width="1.4" fill="none" opacity="0.29" stroke-linecap="round"></path><path d="M674.5 752.8 L678.2 740.6 M679.8 752.8 L680.6 738.8 M685.2 752.8 L682.5 742.5" stroke="#4a6b3a" stroke-width="1.4" fill="none" opacity="0.27" stroke-linecap="round"></path><path d="M743.9 92.4 L746.9 74.1 M748.1 92.4 L748.8 71.4 M752.3 92.4 L750.2 76.9" stroke="#4a6b3a" stroke-width="1.4" fill="none" opacity="0.26" stroke-linecap="round"></path><path d="M944.9 356.8 L948.3 340.4 M949.8 356.8 L950.6 338.0 M954.8 356.8 L952.3 342.9" stroke="#4a6b3a" stroke-width="1.4" fill="none" opacity="0.34" stroke-linecap="round"></path><path d="M638.2 234.3 L640.4 215.6 M641.4 234.3 L641.9 212.8 M644.6 234.3 L643.0 218.4" stroke="#4a6b3a" stroke-width="1.4" fill="none" opacity="0.23" stroke-linecap="round"></path><path d="M152.8 982.5 L155.5 969.9 M156.7 982.5 L157.3 968.0 M160.7 982.5 L158.7 971.8" stroke="#4a6b3a" stroke-width="1.4" fill="none" opacity="0.22" stroke-linecap="round"></path><path d="M950.1 857.9 L952.5 845.0 M953.6 857.9 L954.1 843.1 M957.0 857.9 L955.3 847.0" stroke="#4a6b3a" stroke-width="1.4" fill="none" opacity="0.31" stroke-linecap="round"></path><path d="M906.5 487.0 L909.8 464.4 M911.3 487.0 L912.0 461.0 M916.0 487.0 L913.6 467.8" stroke="#4a6b3a" stroke-width="1.4" fill="none" opacity="0.26" stroke-linecap="round"></path><path d="M739.5 695.4 L743.8 676.9 M745.6 695.4 L746.5 674.1 M751.7 695.4 L748.6 679.7" stroke="#4a6b3a" stroke-width="1.4" fill="none" opacity="0.21" stroke-linecap="round"></path><path d="M830.7 918.6 L834.9 903.4 M836.7 918.6 L837.6 901.1 M842.8 918.6 L839.8 905.7" stroke="#4a6b3a" stroke-width="1.4" fill="none" opacity="0.25" stroke-linecap="round"></path><path d="M924.2 687.8 L927.4 665.6 M928.8 687.8 L929.5 662.3 M933.3 687.8 L931.1 668.9" stroke="#4a6b3a" stroke-width="1.4" fill="none" opacity="0.20" stroke-linecap="round"></path><path d="M763.2 1008.1 L767.4 991.1 M769.2 1008.1 L770.1 988.6 M775.2 1008.1 L772.2 993.7" stroke="#4a6b3a" stroke-width="1.4" fill="none" opacity="0.21" stroke-linecap="round"></path><path d="M763.2 -15.9 L767.4 -32.9 M769.2 -15.9 L770.1 -35.4 M775.2 -15.9 L772.2 -30.3" stroke="#4a6b3a" stroke-width="1.4" fill="none" opacity="0.31" stroke-linecap="round"></path><path d="M601.8 749.6 L604.6 729.3 M605.8 749.6 L606.4 726.2 M609.9 749.6 L607.9 732.3" stroke="#4a6b3a" stroke-width="1.4" fill="none" opacity="0.19" stroke-linecap="round"></path><path d="M858.2 968.7 L861.8 947.8 M863.3 968.7 L864.1 944.6 M868.4 968.7 L865.9 950.9" stroke="#4a6b3a" stroke-width="1.4" fill="none" opacity="0.24" stroke-linecap="round"></path><path d="M964.7 424.7 L968.0 401.9 M969.5 424.7 L970.2 398.5 M974.2 424.7 L971.8 405.4" stroke="#4a6b3a" stroke-width="1.4" fill="none" opacity="0.20" stroke-linecap="round"></path><path d="M35.5 362.7 L38.7 339.9 M40.1 362.7 L40.8 336.5 M44.8 362.7 L42.5 343.3" stroke="#4a6b3a" stroke-width="1.4" fill="none" opacity="0.26" stroke-linecap="round"></path><path d="M735.5 584.0 L739.1 561.6 M740.7 584.0 L741.4 558.2 M745.8 584.0 L743.2 565.0" stroke="#4a6b3a" stroke-width="1.4" fill="none" opacity="0.27" stroke-linecap="round"></path><path d="M738.1 337.1 L740.9 322.9 M742.1 337.1 L742.7 320.8 M746.1 337.1 L744.1 325.0" stroke="#4a6b3a" stroke-width="1.4" fill="none" opacity="0.25" stroke-linecap="round"></path>
  <g transform="rotate(288.2 279.7 436.2)"><ellipse cx="279.7" cy="438.1" rx="6.4" ry="2.7" fill="#0a1208" opacity="0.35" filter="url(#fxSoftBlur)"></ellipse><ellipse cx="279.7" cy="436.2" rx="6.1" ry="4.7" fill="#3a4a2e"></ellipse><ellipse cx="278.0" cy="434.5" rx="2.4" ry="1.6" fill="#6a8a4e" opacity="0.5"></ellipse></g><g transform="rotate(353.7 451.4 587.6)"><ellipse cx="451.4" cy="588.9" rx="4.1" ry="1.7" fill="#0a1208" opacity="0.35" filter="url(#fxSoftBlur)"></ellipse><ellipse cx="451.4" cy="587.6" rx="3.9" ry="3.0" fill="#3a4a2e"></ellipse><ellipse cx="450.3" cy="586.5" rx="1.5" ry="1.0" fill="#6a8a4e" opacity="0.5"></ellipse></g><g transform="rotate(319.2 669.8 700.1)"><ellipse cx="669.8" cy="701.3" rx="3.8" ry="1.6" fill="#0a1208" opacity="0.35" filter="url(#fxSoftBlur)"></ellipse><ellipse cx="669.8" cy="700.1" rx="3.6" ry="2.8" fill="#3a4a2e"></ellipse><ellipse cx="668.8" cy="699.1" rx="1.5" ry="0.9" fill="#6a8a4e" opacity="0.5"></ellipse></g><g transform="rotate(103.1 940.6 708.7)"><ellipse cx="940.6" cy="709.8" rx="3.8" ry="1.6" fill="#0a1208" opacity="0.35" filter="url(#fxSoftBlur)"></ellipse><ellipse cx="940.6" cy="708.7" rx="3.6" ry="2.8" fill="#2a3a22"></ellipse><ellipse cx="939.6" cy="707.6" rx="1.5" ry="0.9" fill="#6a8a4e" opacity="0.5"></ellipse></g><g transform="rotate(219.1 543.5 183.6)"><ellipse cx="543.5" cy="185.3" rx="5.4" ry="2.3" fill="#0a1208" opacity="0.35" filter="url(#fxSoftBlur)"></ellipse><ellipse cx="543.5" cy="183.6" rx="5.1" ry="4.0" fill="#2a3a22"></ellipse><ellipse cx="542.0" cy="182.2" rx="2.0" ry="1.3" fill="#6a8a4e" opacity="0.5"></ellipse></g><g transform="rotate(159.6 182.4 320.2)"><ellipse cx="182.4" cy="322.1" rx="6.1" ry="2.6" fill="#0a1208" opacity="0.35" filter="url(#fxSoftBlur)"></ellipse><ellipse cx="182.4" cy="320.2" rx="5.8" ry="4.5" fill="#3a4a2e"></ellipse><ellipse cx="180.8" cy="318.6" rx="2.3" ry="1.5" fill="#6a8a4e" opacity="0.5"></ellipse></g><g transform="rotate(37.2 651.8 707.2)"><ellipse cx="651.8" cy="708.6" rx="4.4" ry="1.9" fill="#0a1208" opacity="0.35" filter="url(#fxSoftBlur)"></ellipse><ellipse cx="651.8" cy="707.2" rx="4.2" ry="3.3" fill="#2a3a22"></ellipse><ellipse cx="650.7" cy="706.0" rx="1.7" ry="1.1" fill="#6a8a4e" opacity="0.5"></ellipse></g><g transform="rotate(351.5 189.3 155.8)"><ellipse cx="189.3" cy="157.0" rx="3.8" ry="1.6" fill="#0a1208" opacity="0.35" filter="url(#fxSoftBlur)"></ellipse><ellipse cx="189.3" cy="155.8" rx="3.6" ry="2.8" fill="#2a3a22"></ellipse><ellipse cx="188.3" cy="154.8" rx="1.5" ry="0.9" fill="#6a8a4e" opacity="0.5"></ellipse></g><g transform="rotate(144.9 619.1 1009.7)"><ellipse cx="619.1" cy="1011.5" rx="6.0" ry="2.6" fill="#0a1208" opacity="0.35" filter="url(#fxSoftBlur)"></ellipse><ellipse cx="619.1" cy="1009.7" rx="5.7" ry="4.5" fill="#3a4a2e"></ellipse><ellipse cx="617.5" cy="1008.1" rx="2.3" ry="1.5" fill="#6a8a4e" opacity="0.5"></ellipse></g><g transform="rotate(302.2 928.6 298.3)"><ellipse cx="928.6" cy="300.4" rx="7.1" ry="3.1" fill="#0a1208" opacity="0.35" filter="url(#fxSoftBlur)"></ellipse><ellipse cx="928.6" cy="298.3" rx="6.8" ry="5.3" fill="#2a3a22"></ellipse><ellipse cx="926.7" cy="296.4" rx="2.7" ry="1.8" fill="#6a8a4e" opacity="0.5"></ellipse></g>
  <ellipse cx="920.5" cy="868.3" rx="6.2" ry="4.3" fill="#4a5c38" opacity="0.60"></ellipse><ellipse cx="373.8" cy="645.7" rx="3.2" ry="2.3" fill="#14201a" opacity="0.54"></ellipse><ellipse cx="50.8" cy="846.4" rx="4.4" ry="3.1" fill="#4a5c38" opacity="0.32"></ellipse><ellipse cx="673.8" cy="957.6" rx="6.0" ry="4.2" fill="#4a5c38" opacity="0.54"></ellipse><ellipse cx="951.3" cy="713.1" rx="6.7" ry="4.7" fill="#14201a" opacity="0.43"></ellipse><ellipse cx="603.9" cy="581.5" rx="6.8" ry="4.7" fill="#14201a" opacity="0.40"></ellipse><ellipse cx="540.6" cy="949.6" rx="2.7" ry="1.9" fill="#4a5c38" opacity="0.45"></ellipse><ellipse cx="382.3" cy="490.3" rx="2.2" ry="1.5" fill="#14201a" opacity="0.55"></ellipse><ellipse cx="979.8" cy="301.9" rx="6.6" ry="4.6" fill="#4a5c38" opacity="0.35"></ellipse><ellipse cx="146.6" cy="403.9" rx="6.5" ry="4.5" fill="#14201a" opacity="0.43"></ellipse><ellipse cx="194.6" cy="1008.5" rx="5.9" ry="4.1" fill="#14201a" opacity="0.36"></ellipse><ellipse cx="803.0" cy="756.5" rx="5.3" ry="3.7" fill="#14201a" opacity="0.50"></ellipse><ellipse cx="218.6" cy="237.6" rx="2.5" ry="1.8" fill="#4a5c38" opacity="0.37"></ellipse><ellipse cx="178.0" cy="121.5" rx="6.3" ry="4.4" fill="#14201a" opacity="0.33"></ellipse><ellipse cx="151.2" cy="319.0" rx="4.1" ry="2.9" fill="#4a5c38" opacity="0.36"></ellipse><ellipse cx="475.0" cy="803.5" rx="2.8" ry="1.9" fill="#14201a" opacity="0.62"></ellipse><ellipse cx="446.2" cy="616.7" rx="6.7" ry="4.7" fill="#4a5c38" opacity="0.56"></ellipse><ellipse cx="839.2" cy="298.8" rx="6.9" ry="4.8" fill="#14201a" opacity="0.44"></ellipse><ellipse cx="486.5" cy="608.5" rx="4.2" ry="2.9" fill="#14201a" opacity="0.60"></ellipse><ellipse cx="312.6" cy="613.3" rx="3.7" ry="2.6" fill="#4a5c38" opacity="0.65"></ellipse><ellipse cx="100.9" cy="330.6" rx="2.2" ry="1.6" fill="#4a5c38" opacity="0.39"></ellipse><ellipse cx="81.8" cy="413.2" rx="4.6" ry="3.2" fill="#4a5c38" opacity="0.51"></ellipse><ellipse cx="610.2" cy="964.6" rx="5.8" ry="4.1" fill="#4a5c38" opacity="0.50"></ellipse><ellipse cx="104.2" cy="426.1" rx="5.9" ry="4.1" fill="#4a5c38" opacity="0.60"></ellipse><ellipse cx="734.0" cy="872.9" rx="4.7" ry="3.3" fill="#14201a" opacity="0.60"></ellipse><ellipse cx="108.0" cy="312.3" rx="4.7" ry="3.3" fill="#4a5c38" opacity="0.55"></ellipse><ellipse cx="940.7" cy="64.5" rx="3.4" ry="2.4" fill="#4a5c38" opacity="0.43"></ellipse><ellipse cx="23.5" cy="426.7" rx="6.2" ry="4.3" fill="#4a5c38" opacity="0.41"></ellipse><ellipse cx="847.4" cy="265.8" rx="5.6" ry="3.9" fill="#4a5c38" opacity="0.52"></ellipse><ellipse cx="798.0" cy="454.2" rx="4.8" ry="3.4" fill="#14201a" opacity="0.53"></ellipse><ellipse cx="52.2" cy="47.5" rx="2.5" ry="1.8" fill="#14201a" opacity="0.39"></ellipse><ellipse cx="874.3" cy="308.1" rx="6.9" ry="4.8" fill="#14201a" opacity="0.61"></ellipse><ellipse cx="993.4" cy="319.1" rx="5.6" ry="3.9" fill="#14201a" opacity="0.57"></ellipse><ellipse cx="180.3" cy="204.5" rx="6.0" ry="4.2" fill="#4a5c38" opacity="0.56"></ellipse><ellipse cx="334.8" cy="808.8" rx="2.2" ry="1.5" fill="#4a5c38" opacity="0.33"></ellipse><ellipse cx="587.8" cy="96.2" rx="5.1" ry="3.6" fill="#4a5c38" opacity="0.61"></ellipse><ellipse cx="865.5" cy="1003.8" rx="3.4" ry="2.4" fill="#4a5c38" opacity="0.64"></ellipse><ellipse cx="486.6" cy="63.7" rx="6.6" ry="4.6" fill="#14201a" opacity="0.41"></ellipse><ellipse cx="956.7" cy="617.6" rx="6.5" ry="4.6" fill="#4a5c38" opacity="0.64"></ellipse><ellipse cx="492.8" cy="354.9" rx="5.1" ry="3.6" fill="#4a5c38" opacity="0.50"></ellipse><ellipse cx="692.2" cy="436.8" rx="6.7" ry="4.7" fill="#4a5c38" opacity="0.53"></ellipse><ellipse cx="142.5" cy="858.6" rx="6.1" ry="4.3" fill="#14201a" opacity="0.56"></ellipse><ellipse cx="222.7" cy="685.1" rx="3.7" ry="2.6" fill="#4a5c38" opacity="0.61"></ellipse><ellipse cx="475.7" cy="436.7" rx="2.7" ry="1.9" fill="#14201a" opacity="0.52"></ellipse><ellipse cx="209.6" cy="614.7" rx="6.7" ry="4.7" fill="#4a5c38" opacity="0.53"></ellipse><ellipse cx="753.3" cy="611.9" rx="4.9" ry="3.4" fill="#14201a" opacity="0.34"></ellipse>
  <ellipse cx="580.5" cy="811.7" rx="1.5" ry="1.1" fill="#14201a" opacity="0.34"></ellipse><ellipse cx="567.8" cy="112.9" rx="1.1" ry="0.8" fill="#14201a" opacity="0.30"></ellipse><ellipse cx="689.5" cy="399.9" rx="2.4" ry="1.7" fill="#14201a" opacity="0.24"></ellipse><ellipse cx="864.7" cy="795.1" rx="1.2" ry="0.8" fill="#4a5c38" opacity="0.33"></ellipse><ellipse cx="369.1" cy="527.3" rx="2.5" ry="1.7" fill="#4a5c38" opacity="0.40"></ellipse><ellipse cx="387.3" cy="934.9" rx="2.0" ry="1.4" fill="#4a5c38" opacity="0.23"></ellipse><ellipse cx="714.1" cy="451.4" rx="2.2" ry="1.6" fill="#4a5c38" opacity="0.22"></ellipse><ellipse cx="450.4" cy="454.7" rx="2.1" ry="1.5" fill="#14201a" opacity="0.27"></ellipse><ellipse cx="437.1" cy="561.5" rx="1.5" ry="1.1" fill="#4a5c38" opacity="0.36"></ellipse><ellipse cx="400.2" cy="30.5" rx="2.4" ry="1.7" fill="#4a5c38" opacity="0.22"></ellipse><ellipse cx="124.5" cy="965.9" rx="1.6" ry="1.2" fill="#4a5c38" opacity="0.40"></ellipse><ellipse cx="598.9" cy="678.8" rx="2.0" ry="1.4" fill="#14201a" opacity="0.23"></ellipse><ellipse cx="702.7" cy="919.5" rx="1.3" ry="0.9" fill="#14201a" opacity="0.37"></ellipse><ellipse cx="480.9" cy="286.3" rx="2.4" ry="1.7" fill="#4a5c38" opacity="0.26"></ellipse><ellipse cx="618.2" cy="290.1" rx="1.2" ry="0.8" fill="#4a5c38" opacity="0.27"></ellipse><ellipse cx="926.2" cy="825.6" rx="1.1" ry="0.8" fill="#14201a" opacity="0.40"></ellipse><ellipse cx="429.8" cy="745.1" rx="1.0" ry="0.7" fill="#14201a" opacity="0.23"></ellipse><ellipse cx="191.5" cy="213.2" rx="2.5" ry="1.7" fill="#4a5c38" opacity="0.37"></ellipse><ellipse cx="901.2" cy="379.0" rx="1.1" ry="0.8" fill="#14201a" opacity="0.31"></ellipse><ellipse cx="47.6" cy="209.8" rx="1.3" ry="0.9" fill="#14201a" opacity="0.23"></ellipse><ellipse cx="546.9" cy="353.7" rx="1.7" ry="1.2" fill="#4a5c38" opacity="0.32"></ellipse><ellipse cx="174.0" cy="68.4" rx="2.4" ry="1.7" fill="#4a5c38" opacity="0.30"></ellipse><ellipse cx="381.1" cy="683.6" rx="1.9" ry="1.3" fill="#14201a" opacity="0.22"></ellipse><ellipse cx="450.8" cy="628.4" rx="1.7" ry="1.2" fill="#14201a" opacity="0.34"></ellipse><ellipse cx="846.0" cy="739.3" rx="1.2" ry="0.8" fill="#14201a" opacity="0.35"></ellipse><ellipse cx="173.9" cy="297.5" rx="1.2" ry="0.8" fill="#4a5c38" opacity="0.25"></ellipse><ellipse cx="974.7" cy="606.7" rx="2.1" ry="1.5" fill="#14201a" opacity="0.24"></ellipse><ellipse cx="529.8" cy="795.0" rx="2.4" ry="1.7" fill="#4a5c38" opacity="0.32"></ellipse><ellipse cx="717.9" cy="10.4" rx="1.1" ry="0.8" fill="#14201a" opacity="0.33"></ellipse><ellipse cx="540.6" cy="167.2" rx="1.1" ry="0.8" fill="#14201a" opacity="0.31"></ellipse><ellipse cx="602.7" cy="116.6" rx="2.4" ry="1.7" fill="#4a5c38" opacity="0.27"></ellipse><ellipse cx="446.8" cy="205.3" rx="1.4" ry="1.0" fill="#4a5c38" opacity="0.26"></ellipse><ellipse cx="145.6" cy="769.6" rx="1.6" ry="1.1" fill="#4a5c38" opacity="0.27"></ellipse><ellipse cx="243.1" cy="640.4" rx="1.7" ry="1.2" fill="#14201a" opacity="0.33"></ellipse><ellipse cx="658.0" cy="587.4" rx="1.8" ry="1.3" fill="#14201a" opacity="0.35"></ellipse><ellipse cx="521.4" cy="207.1" rx="2.1" ry="1.5" fill="#4a5c38" opacity="0.22"></ellipse><ellipse cx="324.2" cy="480.3" rx="1.5" ry="1.0" fill="#4a5c38" opacity="0.29"></ellipse><ellipse cx="328.0" cy="797.5" rx="2.2" ry="1.5" fill="#4a5c38" opacity="0.35"></ellipse><ellipse cx="219.0" cy="500.7" rx="1.9" ry="1.3" fill="#4a5c38" opacity="0.23"></ellipse><ellipse cx="224.6" cy="775.3" rx="1.4" ry="1.0" fill="#4a5c38" opacity="0.30"></ellipse><ellipse cx="326.5" cy="1.4" rx="1.6" ry="1.1" fill="#14201a" opacity="0.29"></ellipse><ellipse cx="326.5" cy="1025.4" rx="1.6" ry="1.1" fill="#14201a" opacity="0.29"></ellipse><ellipse cx="124.2" cy="816.5" rx="2.5" ry="1.7" fill="#4a5c38" opacity="0.36"></ellipse><ellipse cx="198.8" cy="649.7" rx="1.2" ry="0.8" fill="#14201a" opacity="0.28"></ellipse><ellipse cx="97.5" cy="843.0" rx="1.3" ry="0.9" fill="#4a5c38" opacity="0.37"></ellipse><ellipse cx="839.7" cy="235.0" rx="1.6" ry="1.1" fill="#4a5c38" opacity="0.29"></ellipse><ellipse cx="543.8" cy="817.1" rx="1.0" ry="0.7" fill="#4a5c38" opacity="0.22"></ellipse><ellipse cx="602.8" cy="399.0" rx="1.0" ry="0.7" fill="#14201a" opacity="0.28"></ellipse><ellipse cx="157.1" cy="757.3" rx="2.0" ry="1.4" fill="#4a5c38" opacity="0.36"></ellipse><ellipse cx="851.7" cy="912.5" rx="2.4" ry="1.7" fill="#14201a" opacity="0.32"></ellipse><ellipse cx="690.5" cy="537.7" rx="1.5" ry="1.0" fill="#4a5c38" opacity="0.24"></ellipse><ellipse cx="60.4" cy="749.1" rx="2.1" ry="1.5" fill="#4a5c38" opacity="0.23"></ellipse><ellipse cx="79.4" cy="571.1" rx="1.7" ry="1.2" fill="#14201a" opacity="0.33"></ellipse><ellipse cx="17.0" cy="43.9" rx="1.4" ry="1.0" fill="#14201a" opacity="0.37"></ellipse><ellipse cx="614.9" cy="185.8" rx="2.0" ry="1.4" fill="#4a5c38" opacity="0.28"></ellipse><ellipse cx="776.1" cy="420.1" rx="2.1" ry="1.4" fill="#4a5c38" opacity="0.34"></ellipse><ellipse cx="460.4" cy="777.1" rx="1.0" ry="0.7" fill="#4a5c38" opacity="0.34"></ellipse><ellipse cx="923.2" cy="783.4" rx="1.8" ry="1.3" fill="#14201a" opacity="0.22"></ellipse><ellipse cx="544.8" cy="98.7" rx="2.1" ry="1.5" fill="#14201a" opacity="0.40"></ellipse><ellipse cx="239.0" cy="837.9" rx="2.0" ry="1.4" fill="#4a5c38" opacity="0.37"></ellipse><ellipse cx="14.9" cy="599.6" rx="1.7" ry="1.2" fill="#14201a" opacity="0.35"></ellipse>
  <rect width="1024" height="1024" fill="#808080" filter="url(#swBump)" opacity="0.20" style="mix-blend-mode:overlay"></rect>
  <rect width="1024" height="1024" fill="#808080" filter="url(#swBumpFine)" opacity="0.14" style="mix-blend-mode:overlay"></rect>
  <rect width="1024" height="1024" filter="url(#swGrain)" opacity="0.08" style="mix-blend-mode:overlay" pointer-events="none"></rect>
</svg>