<svg viewBox="0 0 40 118" xmlns="http://www.w3.org/2000/svg">
  <defs><filter id="fxBlur" x="-60%" y="-60%" width="220%" height="220%"><feGaussianBlur stdDeviation="1.6"></feGaussianBlur></filter>
    <linearGradient id="bl" x1="0%" y1="0%" x2="100%" y2="0%">
      <stop offset="0%" stop-color="#9f9f9f"></stop>
      <stop offset="42%" stop-color="#2a2a2a"></stop>
      <stop offset="100%" stop-color="#131313"></stop>
    </linearGradient>
    <linearGradient id="wood" x1="0%" y1="0%" x2="100%" y2="0%">
      <stop offset="0%" stop-color="#b99279"></stop>
      <stop offset="45%" stop-color="#8a4a20"></stop>
      <stop offset="100%" stop-color="#532c13"></stop>
    </linearGradient>
    <linearGradient id="grip" x1="0%" y1="0%" x2="100%" y2="0%">
      <stop offset="0%" stop-color="#897f76"></stop>
      <stop offset="45%" stop-color="#3a2a1a"></stop>
      <stop offset="100%" stop-color="#231910"></stop>
    </linearGradient>
  </defs>
  
  <rect x="16" y="0" width="6" height="6" fill="url(#bl)"></rect>
  <rect x="14" y="6" width="10" height="4" fill="#1a1a1a"></rect>
  <rect x="15" y="10" width="8" height="38" rx="1.5" fill="url(#bl)"></rect>
  
  <rect x="12" y="16" width="4" height="26" rx="1.5" fill="#3a3a3a"></rect>
  
  <rect x="9" y="42" width="14" height="16" rx="2" fill="url(#wood)"></rect>
  
  <rect x="12" y="46" width="8" height="6" fill="#1a1a1a"></rect>
  
  <path d="M22 58 Q34 66 30 92 Q28 98 20 96 L18 60 Z" fill="url(#wood)"></path>
  
  <path d="M9 58 L24 58 L22 84 L11 92 Z" fill="url(#wood)"></path>
  
  <rect x="4" y="66" width="9" height="22" rx="2" fill="url(#grip)"></rect>
  
  <path d="M13 70 Q18 78 13 84" stroke="#1a1a1a" stroke-width="2" fill="none"></path>
  <rect x="16" y="42" width="7" height="4" fill="#0a0a0a"></rect>
  <ellipse cx="17" cy="20" rx="1.4" ry="10" fill="#fff" opacity="0.12"></ellipse>
</svg>