<svg viewBox="0 0 62 78" xmlns="http://www.w3.org/2000/svg">
  <defs><filter id="fxOutline" x="-40%" y="-40%" width="180%" height="180%"><feTurbulence type="fractalNoise" baseFrequency="0.85" numOctaves="2" seed="7" result="fxn"></feTurbulence><feDisplacementMap in="SourceGraphic" in2="fxn" scale="2.6" xChannelSelector="R" yChannelSelector="G" result="fxrough"></feDisplacementMap><feDropShadow in="fxrough" dx="0" dy="0" stdDeviation="1.3" flood-color="#0a0a0a" flood-opacity="0.85"></feDropShadow></filter><filter id="fxBlur" x="-60%" y="-60%" width="220%" height="220%"><feGaussianBlur stdDeviation="1.6"></feGaussianBlur></filter><linearGradient id="bl" x1="0%" y1="0%" x2="100%" y2="0%">
      <stop offset="0%" stop-color="#9f9f9f"></stop>
      <stop offset="42%" stop-color="#2a2a2a"></stop>
      <stop offset="100%" stop-color="#131313"></stop>
    </linearGradient><linearGradient id="grip" x1="0%" y1="0%" x2="100%" y2="0%">
      <stop offset="0%" stop-color="#897f76"></stop>
      <stop offset="45%" stop-color="#3a2a1a"></stop>
      <stop offset="100%" stop-color="#231910"></stop>
    </linearGradient><filter id="fxGrain" x="0" y="0" width="100%" height="100%"><feTurbulence type="fractalNoise" baseFrequency="0.9" numOctaves="2" seed="3" result="n"></feTurbulence><feColorMatrix in="n" type="matrix" values="0 0 0 0 0  0 0 0 0 0  0 0 0 0 0  0.9 0 0 0 0"></feColorMatrix></filter></defs><g filter="url(#fxOutline)">
  <g>
    <rect x="6" y="10" width="12" height="30" rx="3" fill="url(#bl)"></rect>
    <circle cx="9" cy="12" r="1.1" fill="#0a0a0a"></circle>
    <rect x="6" y="40" width="12" height="7" fill="#242424"></rect>
    <path d="M8 47 Q5 53 8 58" stroke="#1a1a1a" stroke-width="1.6" fill="none"></path>
    <rect x="7" y="46" width="9" height="18" rx="2" fill="url(#grip)"></rect>
    <rect x="7" y="61" width="9" height="4" rx="1" fill="#1a1a1a"></rect>
  </g>
  <g>
    <rect x="44" y="10" width="12" height="30" rx="3" fill="url(#bl)"></rect>
    <circle cx="47" cy="12" r="1.1" fill="#0a0a0a"></circle>
    <rect x="44" y="40" width="12" height="7" fill="#242424"></rect>
    <path d="M46 47 Q43 53 46 58" stroke="#1a1a1a" stroke-width="1.6" fill="none"></path>
    <rect x="45" y="46" width="9" height="18" rx="2" fill="url(#grip)"></rect>
    <rect x="45" y="61" width="9" height="4" rx="1" fill="#1a1a1a"></rect>
  </g>
<rect x="0" y="0" width="62" height="78" filter="url(#fxGrain)" opacity="0.14" style="mix-blend-mode:overlay" pointer-events="none"></rect></g></svg>