<svg viewBox="0 0 48 102" xmlns="http://www.w3.org/2000/svg">
  <defs><filter id="fxOutline" x="-40%" y="-40%" width="180%" height="180%"><feTurbulence type="fractalNoise" baseFrequency="0.85" numOctaves="2" seed="7" result="fxn"></feTurbulence><feDisplacementMap in="SourceGraphic" in2="fxn" scale="2.6" xChannelSelector="R" yChannelSelector="G" result="fxrough"></feDisplacementMap><feDropShadow in="fxrough" dx="0" dy="0" stdDeviation="1.3" flood-color="#050505" flood-opacity="0.85"></feDropShadow></filter><filter id="fxBlur" x="-60%" y="-60%" width="220%" height="220%"><feGaussianBlur stdDeviation="1.6"></feGaussianBlur></filter><linearGradient id="bl" x1="0%" y1="0%" x2="100%" y2="0%">
      <stop offset="0%" stop-color="#9f9f9f"></stop>
      <stop offset="42%" stop-color="#2a2a2a"></stop>
      <stop offset="100%" stop-color="#131313"></stop>
    </linearGradient><linearGradient id="body" x1="0%" y1="0%" x2="100%" y2="0%">
      <stop offset="0%" stop-color="#929292"></stop>
      <stop offset="45%" stop-color="#4a4a4a"></stop>
      <stop offset="100%" stop-color="#2c2c2c"></stop>
    </linearGradient><linearGradient id="grip" x1="0%" y1="0%" x2="100%" y2="0%">
      <stop offset="0%" stop-color="#7f7f7f"></stop>
      <stop offset="45%" stop-color="#2a2a2a"></stop>
      <stop offset="100%" stop-color="#191919"></stop>
    </linearGradient><filter id="fxGrain" x="0" y="0" width="100%" height="100%"><feTurbulence type="fractalNoise" baseFrequency="0.9" numOctaves="2" seed="3" result="n"></feTurbulence><feColorMatrix in="n" type="matrix" values="0 0 0 0 0  0 0 0 0 0  0 0 0 0 0  0.9 0 0 0 0"></feColorMatrix></filter></defs><g filter="url(#fxOutline)">
  <g fill="url(#bl)">
    <rect x="8" y="0" width="5" height="44" rx="2"></rect>
    <rect x="15" y="0" width="5" height="44" rx="2"></rect>
    <rect x="22" y="0" width="5" height="44" rx="2"></rect>
    <rect x="29" y="0" width="5" height="44" rx="2"></rect>
  </g>
  
  <rect x="6" y="2" width="30" height="4" rx="2" fill="#1a1a1a"></rect>
  
  <circle cx="22" cy="46" r="12" fill="url(#bl)"></circle>
  <circle cx="19" cy="42" r="2.6" fill="#fff" opacity="0.25"></circle>
  
  <rect x="10" y="56" width="24" height="24" rx="3" fill="url(#body)"></rect>
  <rect x="12" y="60" width="20" height="2" fill="#1a1a1a" opacity="0.6"></rect>
  <rect x="12" y="66" width="20" height="2" fill="#1a1a1a" opacity="0.6"></rect>
  
  <rect x="34" y="58" width="12" height="16" rx="2" fill="#3a3a3a"></rect>
  <path d="M34 66 Q28 66 24 62" stroke="#5a5a5a" stroke-width="2" fill="none"></path>
  
  <rect x="16" y="80" width="12" height="18" rx="2" fill="url(#grip)"></rect>
<rect x="0" y="0" width="48" height="102" filter="url(#fxGrain)" opacity="0.14" style="mix-blend-mode:overlay" pointer-events="none"></rect></g></svg>