<svg viewBox="0 0 30 112" xmlns="http://www.w3.org/2000/svg">
  <defs><filter id="fxOutline" x="-40%" y="-40%" width="180%" height="180%"><feTurbulence type="fractalNoise" baseFrequency="0.85" numOctaves="2" seed="7" result="fxn"></feTurbulence><feDisplacementMap in="SourceGraphic" in2="fxn" scale="2.6" xChannelSelector="R" yChannelSelector="G" result="fxrough"></feDisplacementMap><feDropShadow in="fxrough" dx="0" dy="0" stdDeviation="1.3" flood-color="#0c0804" flood-opacity="0.85"></feDropShadow></filter><filter id="fxBlur" x="-60%" y="-60%" width="220%" height="220%"><feGaussianBlur stdDeviation="1.6"></feGaussianBlur></filter>
    <linearGradient id="bl" x1="0%" y1="0%" x2="100%" y2="0%">
      <stop offset="0%" stop-color="#9f9f9f"></stop>
      <stop offset="42%" stop-color="#2a2a2a"></stop>
      <stop offset="100%" stop-color="#131313"></stop>
    </linearGradient>
    <linearGradient id="stock" x1="0%" y1="0%" x2="100%" y2="0%">
      <stop offset="0%" stop-color="#9c9283"></stop>
      <stop offset="45%" stop-color="#5a4a30"></stop>
      <stop offset="100%" stop-color="#362c1d"></stop>
    </linearGradient>
    <linearGradient id="grip" x1="0%" y1="0%" x2="100%" y2="0%">
      <stop offset="0%" stop-color="#7f7f7f"></stop>
      <stop offset="45%" stop-color="#2a2a2a"></stop>
      <stop offset="100%" stop-color="#191919"></stop>
    </linearGradient>
  <filter id="fxGrain" x="0" y="0" width="100%" height="100%"><feTurbulence type="fractalNoise" baseFrequency="0.9" numOctaves="2" seed="3" result="n"></feTurbulence><feColorMatrix in="n" type="matrix" values="0 0 0 0 0  0 0 0 0 0  0 0 0 0 0  0.9 0 0 0 0"></feColorMatrix></filter></defs><g filter="url(#fxOutline)">
  <rect x="12" y="0" width="6" height="42" rx="1.5" fill="url(#bl)"></rect>
  <circle cx="15" cy="4" r="2.2" fill="#0a0a0a"></circle>
  
  <path d="M9 42 L21 42 L23 62 L7 62 Z" fill="url(#stock)"></path>
  
  <path d="M10 30 Q15 20 20 30 L20 40 L10 40 Z" fill="#2a2a2a"></path>
  <rect x="12" y="36" width="6" height="8" fill="#1a1a1a"></rect>
  
  <path d="M13 62 L21 62 L19 92 Q17 96 15 92 Z" fill="url(#bl)"></path>
  
  <rect x="9 " y="62" width="12" height="10" rx="1" fill="#2f2a24"></rect>
  <rect x="17" y="70" width="9" height="22" rx="2" fill="url(#grip)"></rect>
  <path d="M11 74 Q15 80 11 86" stroke="#1a1a1a" stroke-width="1.6" fill="none"></path>
  
  <rect x="6" y="80" width="8" height="24" rx="2" fill="url(#stock)"></rect>
<rect x="0" y="0" width="30" height="112" filter="url(#fxGrain)" opacity="0.14" style="mix-blend-mode:overlay" pointer-events="none"></rect></g></svg>