<svg viewBox="0 0 40 78" xmlns="http://www.w3.org/2000/svg">
  <defs><filter id="fxOutline" x="-40%" y="-40%" width="180%" height="180%"><feTurbulence type="fractalNoise" baseFrequency="0.85" numOctaves="2" seed="7" result="fxn"></feTurbulence><feDisplacementMap in="SourceGraphic" in2="fxn" scale="2.6" xChannelSelector="R" yChannelSelector="G" result="fxrough"></feDisplacementMap><feDropShadow in="fxrough" dx="0" dy="0" stdDeviation="1.3" flood-color="#0a0a0a" flood-opacity="0.85"></feDropShadow></filter><filter id="fxBlur" x="-60%" y="-60%" width="220%" height="220%"><feGaussianBlur stdDeviation="1.6"></feGaussianBlur></filter><linearGradient id="bl" x1="0%" y1="0%" x2="100%" y2="0%">
      <stop offset="0%" stop-color="#9f9f9f"></stop>
      <stop offset="42%" stop-color="#2a2a2a"></stop>
      <stop offset="100%" stop-color="#131313"></stop>
    </linearGradient><linearGradient id="grip" x1="0%" y1="0%" x2="100%" y2="0%">
      <stop offset="0%" stop-color="#897f76"></stop>
      <stop offset="45%" stop-color="#3a2a1a"></stop>
      <stop offset="100%" stop-color="#231910"></stop>
    </linearGradient><filter id="fxGrain" x="0" y="0" width="100%" height="100%"><feTurbulence type="fractalNoise" baseFrequency="0.9" numOctaves="2" seed="3" result="n"></feTurbulence><feColorMatrix in="n" type="matrix" values="0 0 0 0 0  0 0 0 0 0  0 0 0 0 0  0.9 0 0 0 0"></feColorMatrix></filter></defs><g filter="url(#fxOutline)">
  
  <rect x="13" y="8" width="14" height="34" rx="3" fill="url(#bl)"></rect>
  <rect x="15" y="10" width="1.6" height="26" fill="#9a9a9a" opacity="0.5"></rect>
  <circle cx="17" cy="10" r="1.3" fill="#0a0a0a"></circle>
  
  <path d="M27 38 Q31 36 30 42 Q28 44 26 42 Z" fill="#1a1a1a"></path>
  
  <rect x="13" y="42" width="14" height="8" fill="#242424"></rect>
  
  <path d="M15 48 Q11 56 15 62" stroke="#1a1a1a" stroke-width="2" fill="none"></path>
  <rect x="18" y="52" width="2.4" height="6" fill="#0a0a0a"></rect>
  
  <rect x="14" y="50" width="10" height="20" rx="2" fill="url(#grip)"></rect>
  <rect x="14" y="68" width="10" height="4" rx="1" fill="#1a1a1a"></rect>
  
<rect x="0" y="0" width="40" height="78" filter="url(#fxGrain)" opacity="0.14" style="mix-blend-mode:overlay" pointer-events="none"></rect></g></svg>