<svg viewBox="0 0 34 110" xmlns="http://www.w3.org/2000/svg">
  <defs><filter id="fxOutline" x="-40%" y="-40%" width="180%" height="180%"><feTurbulence type="fractalNoise" baseFrequency="0.85" numOctaves="2" seed="7" result="fxn"></feTurbulence><feDisplacementMap in="SourceGraphic" in2="fxn" scale="2.6" xChannelSelector="R" yChannelSelector="G" result="fxrough"></feDisplacementMap><feDropShadow in="fxrough" dx="0" dy="0" stdDeviation="1.3" flood-color="#0c0804" flood-opacity="0.85"></feDropShadow></filter><filter id="fxBlur" x="-60%" y="-60%" width="220%" height="220%"><feGaussianBlur stdDeviation="1.6"></feGaussianBlur></filter><linearGradient id="bl" x1="0%" y1="0%" x2="100%" y2="0%">
      <stop offset="0%" stop-color="#9f9f9f"></stop>
      <stop offset="42%" stop-color="#2a2a2a"></stop>
      <stop offset="100%" stop-color="#131313"></stop>
    </linearGradient><linearGradient id="wood" x1="0%" y1="0%" x2="100%" y2="0%">
      <stop offset="0%" stop-color="#a68e7a"></stop>
      <stop offset="45%" stop-color="#6a4322"></stop>
      <stop offset="100%" stop-color="#402814"></stop>
    </linearGradient><linearGradient id="pump" x1="0%" y1="0%" x2="100%" y2="0%">
      <stop offset="0%" stop-color="#7f7973"></stop>
      <stop offset="45%" stop-color="#2a2016"></stop>
      <stop offset="100%" stop-color="#19130d"></stop>
    </linearGradient><filter id="fxGrain" x="0" y="0" width="100%" height="100%"><feTurbulence type="fractalNoise" baseFrequency="0.9" numOctaves="2" seed="3" result="n"></feTurbulence><feColorMatrix in="n" type="matrix" values="0 0 0 0 0  0 0 0 0 0  0 0 0 0 0  0.9 0 0 0 0"></feColorMatrix></filter></defs><g filter="url(#fxOutline)">
  <circle cx="16" cy="3" r="3.4" fill="#0a0a0a"></circle>
  <rect x="13" y="2" width="6" height="46" rx="2" fill="url(#bl)"></rect>
  
  <rect x="8" y="14" width="4" height="30" rx="2" fill="#3a3a3a"></rect>
  
  <rect x="6" y="42" width="14" height="14" rx="3" fill="url(#pump)"></rect>
  
  
  <rect x="10" y="56" width="14" height="20" rx="2" fill="url(#wood)"></rect>
  <circle cx="17" cy="64" r="1.6" fill="#0a0a0a"></circle>
  
  <path d="M12 76 Q9 82 12 88" stroke="#170f08" stroke-width="1.6" fill="none"></path>
  <rect x="18" y="76" width="9" height="24" rx="2" fill="url(#wood)"></rect>
  
  <rect x="5" y="84" width="8" height="22" rx="2" fill="url(#wood)"></rect>
<rect x="0" y="0" width="34" height="110" filter="url(#fxGrain)" opacity="0.14" style="mix-blend-mode:overlay" pointer-events="none"></rect></g></svg>