<svg viewBox="0 0 30 134" xmlns="http://www.w3.org/2000/svg">
  <defs><filter id="fxBlur" x="-60%" y="-60%" width="220%" height="220%"><feGaussianBlur stdDeviation="1.6"></feGaussianBlur></filter><linearGradient id="bl" x1="0%" y1="0%" x2="100%" y2="0%">
      <stop offset="0%" stop-color="#9f9f9f"></stop>
      <stop offset="42%" stop-color="#2a2a2a"></stop>
      <stop offset="100%" stop-color="#131313"></stop>
    </linearGradient><linearGradient id="stock" x1="0%" y1="0%" x2="100%" y2="0%">
      <stop offset="0%" stop-color="#899289"></stop>
      <stop offset="45%" stop-color="#3a4a3a"></stop>
      <stop offset="100%" stop-color="#232c23"></stop>
    </linearGradient><linearGradient id="scope" x1="0%" y1="0%" x2="100%" y2="0%">
      <stop offset="0%" stop-color="#7f7f7f"></stop>
      <stop offset="45%" stop-color="#2a2a2a"></stop>
      <stop offset="100%" stop-color="#191919"></stop>
    </linearGradient></defs>
  <rect x="12" y="0" width="4" height="62" rx="1.2" fill="url(#bl)"></rect>
  
  <rect x="11" y="0" width="6" height="6" fill="#1a1a1a"></rect>
  
  <path d="M13 40 L5 54 M13 40 L21 46" stroke="#1a1a1a" stroke-width="1.6" fill="none"></path>
  
  <rect x="4" y="18" width="18" height="9" rx="3" fill="url(#scope)"></rect>
  <circle cx="6.5" cy="22.5" r="3.6" fill="#0a0a0a"></circle>
  <circle cx="6.5" cy="22.5" r="2.2" fill="#5ac8ff" opacity="0.65"></circle>
  <circle cx="19.5" cy="22.5" r="3.2" fill="#0a0a0a"></circle>
  <circle cx="19.5" cy="22.5" r="1.8" fill="#5ac8ff" opacity="0.55"></circle>
  <rect x="4" y="16" width="18" height="2" fill="#0a0a0a"></rect>
  <rect x="4" y="27" width="18" height="2" fill="#0a0a0a"></rect>
  
  <path d="M16 60 L24 64 L22 67 L15 63 Z" fill="#2a2a2a"></path>
  
  <rect x="8" y="62" width="11" height="36" rx="2" fill="url(#stock)"></rect>
  <path d="M9 90 Q14 100 9 108" stroke="#0a1208" stroke-width="1.4" fill="none"></path>
  <rect x="13" y="92" width="7" height="26" rx="2" fill="#222"></rect>
  <rect x="4" y="100" width="7" height="24" rx="2" fill="#2a2a2a"></rect>
  <line x1="14" y1="0" x2="14" y2="-40" stroke="#ff3030" stroke-width="1" opacity="0.7"></line>
</svg>